<svg xmlns="http://www.w3.org/2000/svg" id="Logo_FASTI" x="0" y="0" version="1.1" viewBox="0 0 425.3 233.5" xml:space="preserve">
	<style>
	.st0{fill:#008f3a}
	</style>
	<path d="M239.7 193.4c4.2.4 8.3.3 12.1-1.8 2.2-1.2 4.3-2.6 6.4-4.1 1.8-1.3 3.6-2.9 5.3-4.4 1-.9 1.7-2 2.6-2.9 1-1 2.1-2 3.1-3 .3-.3.5-.7.7-.9.6-.6 1.2-1.1 1.8-1.6 1.6-1.6 3.2-3.3 4.8-4.9 2.5-2.5 5-5 7.4-7.5.9-.9 1.5-2.1 2.4-3.1 1.2-1.5 2.5-2.8 3.7-4.3 1.8-2.4 3.5-4.9 5.3-7.4.9-1.3 1.9-2.6 2.7-4 1.3-2.3 2.6-4.6 3.9-7 .9-1.6 1.7-3.2 2.6-4.9.4-.7.8-1.5 1.1-2.3.1-.1-.3-.6-.4-.6-2.8 0-5.6.2-8.3 0-3.5-.2-6.8.7-10.1 1.4-.4.1-.9 0-1.3 0-.2-1.9.9-3.3 1.7-4.9.6-1.4 1.4-2.7 2-4 .8-1.7 1.4-3.4 2.3-5.1 2.2-4.5 4.4-9.1 7.3-13.2 2.2-3.1 4.9-5.6 8.4-7.3 3.2-1.5 6.6-2.4 10.1-2.7 2.4-.2 4.9-.4 7.3-.8.4 0 .9-.5 1.1-.9 1.7-3.3 3.3-6.7 5-10 1-1.9 2.2-3.8 3.3-5.7.6-.9 1.5-1.7 2.2-2.6 1.8-2.2 4.1-3.8 6.6-5 3.4-1.6 6.9-2.1 10.7-1.1 1.6.4 2.8 1.1 3.8 2.2 1.1 1.2 1.5 3.4.9 4.8-.2.4-.1.9-.2 1.3-.5 1.5-1 3-1.6 4.4-1.5 3.2-3.1 6.5-5.1 9.4-.4.5-.5 1.2-.8 2 4.4.5 8.7.9 13.2 1.4-.3.9-.4 2-.8 2.8-.4.9-.8 1.8-1.1 2.8-.8 2.7-1.9 5.3-2.9 7.9-.8 2-1.5 3.9-2.4 5.9-.9 2.2-1.7 4.4-3.2 6.4-.9 1.2-1.5 2.7-2.4 3.9-.7 1-1.7 1.8-2.6 2.5-1.3 1-2.5 2.2-4 2.8-2 .9-4.1 1.5-6.3 2-2.1.5-4.3.6-6.4.8-.9.1-1.9 0-2.9-.1-1.4-.2-1.9.1-2.5 1.3-.6 1.3-1.5 2.5-2.2 3.8s-1.4 2.6-2 3.9c-.3.5-.5 1.1-.8 1.6-.9 1.6-1.9 3.2-2.7 4.9-.5 1-.7 2.1-1 3.4-.3.4-.8 1-1.2 1.7-.6 1-1.1 2.1-1.6 3.1-.2.5-.3 1.1-.5 1.6-1 2.8-2.2 5.6-3.1 8.5-.9 2.8-1.7 5.6-2.4 8.4-.5 1.8-.7 3.7-1 5.5-.1.4.1.9 0 1.4-.1 1-.4 2-.4 2.9 0 1.2.3 2.4.4 3.5.1.8 0 1.7.3 2.5.4 1.4 1.1 2.9 2.5 3.6 1.1.5 2.6.5 3.8.3 2.6-.5 4.8-1.8 6.8-3.5 2.3-1.9 4.7-3.8 6.9-5.7 1.7-1.5 3.2-3.2 4.8-4.8 1.2-1.2 2.5-2.2 3.7-3.3s2.4-2.3 3.6-3.4c1.7-1.5 3.4-3 5-4.6 1.3-1.3 2.6-2.5 3.9-3.9.3-.3.4-.9.6-1.4.4-1.1.7-2.3 1-3.4.4-1.2.9-2.4 1.3-3.6.5-1.4.9-2.8 1.4-4.1.7-1.6 1.6-3.2 2.4-4.8s1.7-3.2 2.6-4.8c1.1-1.9 2.1-3.7 3.3-5.5 1.9-2.8 3.7-5.7 5.9-8.3 1.9-2.4 4.3-4.4 6.4-6.6 2.8-3 6.1-5.2 9.9-6.6 4-1.5 8-1.2 11.6 1.1 2.1 1.3 3.5 3.3 3.4 6-.1 1.9 0 3.9-.5 5.6-.9 3.2-2.1 6.4-3.6 9.4-1.7 3.5-3.9 6.8-6 10.2-1.1 1.7-2.4 3.2-3.6 4.8-.9 1.2-1.7 2.5-2.7 3.7-1.9 2.5-3.8 4.9-5.8 7.3-1.4 1.7-3 3.3-4.5 4.9-.9 1-1.9 2-2.9 2.8-1.2.9-1.5 2.1-1.5 3.3 0 2.7-.1 5.4.5 8 .7 3.4 3.5 6.2 7.4 6.8 3.8.5 7.2-.1 10.4-1.9 2.1-1.2 4.1-2.6 5.9-4.2 3.1-2.8 6-5.7 8.9-8.6 1.7-1.6 3.3-3.3 5-4.9 1.4-1.4 2.6-2.9 4-4.3.3-.3.8-.3 1.5-.6.5 2.6 1 5.1 1.4 7.5.3 1.4.5 2.8.7 4.2.2 1.5-.7 2.6-1.4 3.7l-4.5 6.6c-.8 1.2-1.6 2.4-2.5 3.6-1.8 2.4-3.6 4.7-5.4 7-1.8 2.1-3.6 4.2-5.5 6.3-1.7 1.8-3.6 3.5-5.4 5.3-2.8 2.9-6.1 5.3-9.6 7.3s-7.3 3.7-11.6 3.8c-3.1 0-5.9-.3-8.5-2-1.7-1.1-3.4-2.4-4.5-4.2s-2.4-3.5-3.3-5.4c-1-2.2-1.6-4.6-2.3-7-.4-1.3-1-2.6-1.3-4-.3-1.2-.2-2.4-.3-3.7-.3-2.5-.6-5-1-7.5 0-.1-.1-.2-.2-.5-.3 1.2-2 1.4-1.6 3.1-2 .1-2.4 1.9-3.4 3.1-2.4 2.5-4.6 5.2-6.9 7.8-1.4 1.6-2.9 3.3-4.4 4.8-2 2-4.3 3.8-6.3 5.8-2.4 2.4-5 4.5-7.8 6.4-4.4 3.1-9 6-14.4 7.3-3.9.9-7.7.9-11.3-.9-2.2-1.1-4-2.7-5.2-5-1.1-2-2.1-4-2.4-6.3-.2-1.3-.3-2.6-.5-3.9-.2-1.3-.7-2.5-.7-3.7.1-2.6.4-5.2.7-7.8.2-1.6.4-3.2.7-4.7.5-2.3 1.2-4.6 1.8-6.9.5-1.8.9-3.7 1.3-5.5-.1-.1-.2-.1-.3-.2-1 1.2-2 2.3-2.9 3.5-1.4 1.7-2.7 3.4-4.1 5.1-1.6 1.9-3.2 3.7-4.8 5.5-1.6 1.7-3.2 3.4-4.9 5.1-1.4 1.4-2.7 2.9-4.1 4.3-1 1-2.2 1.8-3.3 2.7-1.2 1-2.3 2.1-3.6 3.1-2.3 1.8-4.7 3.6-7.1 5.2-3.1 2.1-6.4 3.8-9.9 5.1-2.7 1-5.4 1.4-8.2 1.6-1.9.1-3.9-.3-5.9-.5-.2 0-.4-.1-.6-.1-.9 0-1.8 0-2.6-.7-.7-.6-1.9-.5-2.8-.9-2.4-1.1-4.8-2.3-7.1-3.6-1.5-.8-3-1.7-4.4-2.8-.9-.7-1.6-1.7-2.5-2.5-2-1.7-3.5-3.9-5-6-1-1.4-1.7-3-2.5-4.5l-2.1-4.2c-1.5 1.5-3.1 3-4.5 4.6-.3.4-.2 1.1-.3 1.3-.8.5-1.5.7-2 1.2-1.8 1.7-3.5 3.5-5.3 5.2-1.5 1.4-3 2.7-4.5 4-3.2 2.7-6.3 5.4-9.6 7.8-1.9 1.4-4.1 2.4-6.2 3.6-1.9 1.2-4 1.6-6.2 1.4-2.4-.1-4.6-1-6.3-2.6-1.6-1.5-2.6-3.6-3.3-5.7-1.4-3.9-1.2-7.9-.9-11.9.2-2.6 1.1-5.2 1.7-7.8.3-1.5.5-3 .9-4.5.6-2.2 1.4-4.3 2.1-6.4l1.5-5.1c.1-.2 0-.5-.1-.8-1.2 1.1-2.4 2.2-3.5 3.3-1.5 1.6-2.9 3.4-4.4 5.1-1.9 2.1-3.9 4-5.8 6.1-1.5 1.6-2.9 3.2-4.5 4.7-1 1-2.1 2-3.1 3.1-.8.8-1.5 1.7-2.3 2.4-2.6 2.4-5.1 4.9-7.8 7.2-1.3 1.2-2.9 2.2-4.3 3.3-4.3 3.2-6.8 2.7-10.6-.5-1.5-1.3-2.7-2.9-4-4.5-1.5-1.9-2.9-3.7-4.3-5.7-.7-1.1-1.1-2.4-1.7-3.6-.6-1.3-1.2-2.6-1.7-3.9-.5-1.1-.6-2.4-1.2-3.4s-.6-2-.9-3.1c-.3-1.2-.5-2.3-.7-3.5-.2-1.5-.5-2.9-.5-4.4-.1-1.8-.1-3.7.1-5.5.1-1.4.4-2.7.7-4 .3-1.3.8-2.4 1.3-3.7.3-.8.5-1.7.8-2.5.5-1.4 1.1-2.7 1.7-4.1.6-1.4 1.2-2.8 2-4.2s1.8-2.7 2.7-4l2.1-3c.8-1 1.6-2 2.3-2.9 1.1-1.4 2.2-2.8 3.4-4.2.4-.5 1-.9 1.5-1.4 1-1 2-2 2.9-3 1-1 1.9-2 2.9-2.9 1.8-1.6 3.6-3.2 5.5-4.7 2.1-1.7 4.2-3.4 6.4-5.1 2.1-1.5 4.3-3 6.5-4.4 2.9-1.8 5.8-3.6 8.8-5.3 2.2-1.2 4.5-2.3 6.9-3.3 3.5-1.5 7-3.1 10.7-4.3 3.1-1.1 6.4-2 9.7-2.2 1.1-.1 2.1-.4 3.2-.4 6.4-.4 12.3 3.7 14.5 9.6.4 1.1.8 2.3 1.2 3.4.7 2.1 0 3.8-1.6 5.2-1.4 1.2-2.9 2.2-4.4 3.2-.6.4-.7.7 0 1.1 2.8 1.7 4 4.4 4.5 7.6.4 2.9.3 5.7-.7 8.4-.6 1.6-1.4 3.1-2.2 4.5-.9 1.7-1.8 3.5-2.8 5.2-.9 1.5-1.9 3-2.8 4.5-.8 1.4-1.5 2.8-2.2 4.2-.9 1.6-1.8 3.2-2.8 4.7-.3.5-.5 1-.7 1.5-.9 1.9-2 3.7-2.6 5.7-.7 2-1 4.1-1.3 6.1-.1.7.5 1.5-.4 2 .8 1.4.3 3.2 1.6 4.5 1.7 1.6 3.7 1.7 5.8 1.3 2.8-.5 4.9-1.9 6.4-4.4 1.1-1.8 2.6-3.2 3.8-4.9.8-1 1.4-2.2 2.2-3.3 1.5-2 3-4 4.6-5.9 1.6-2 3.3-4 5-6 1.1-1.3 2.2-2.6 3.2-3.9 1.4-1.7 2.9-3.3 4.2-4.9 1.3-1.6 2.5-3.2 3.8-4.8 1.5-1.9 3-3.9 4.6-5.7 1.5-1.8 3.2-3.6 4.7-5.5.9-1.1 1.7-2.2 2.5-3.3.9-1.1 2-2.2 2.9-3.3.7-.8 1.2-1.7 1.9-2.5 2-2.5 4-5 6-7.4 1.8-2.2 3.7-4.3 5.3-6.6.5-.6.4-1.6.5-2.5.3-1.7.2-3.5.8-5.1 1.2-3.3 2.4-6.6 5.3-9 3.5-3 7.4-3.3 11.5-2.3 2.8.7 4.6 3.5 4.8 6.6.2 2 .5 4 .7 6 .3 2.2.6 4.4.9 6.7.2 1.3.5 2.6.8 3.8 0 .2.1.3.1.5.3 2.4.5 4.8 1 7.2 1.3 5.8 1.2 11.6 1.1 17.4 0 2.4-.3 4.7-.7 7.1-.3 2-.9 4-1.5 5.9-.8 2.4-1.8 4.8-2.8 7.1-.7 1.7-1.5 3.4-2.4 5-.8 1.5-1.9 2.8-2.8 4.3-.7 1.2-1.8 2.2-2.5 3.3-.6 1-1.2 2.1-2 3-1.7 2.1-3.5 4.2-5.4 6.2-1.8 1.9-3.8 3.6-5.7 5.4-.3.8-.6 1.3-1 1.9zm-73.4-57.5c-.1-.1-.1-.2-.2-.2-1.7.7-3.4 1.4-5.1 2.2-1.9.8-3.7 1.7-5.6 2.6-1.6.8-3.1 1.6-4.8 2.3-1.3.6-2.4 1.7-3.9 1.6-.2 1.2-1.4 1.1-2.1 1.5-1.4.9-2.9 1.7-4.4 2.6-1.4.8-2.8 1.6-4.1 2.5-3 2.1-5.9 4.3-8.9 6.4-3.5 2.6-6.5 5.8-9.2 9.2-2.1 2.6-3.6 5.3-4.8 8.4-.3.7-.2 1.5-.6 2-.8 1.2-.8 2.5-1.1 3.8-.3 1.4-.2 2.8-.4 4.2-.2 1.9 0 3.8.8 5.5.3.7 1.2 1.8 1.7 1.7 1.7-.3 3.4-.7 4.8-1.6 2.4-1.6 4.7-3.4 6.9-5.3 2-1.8 3.6-3.8 5.5-5.7 1.6-1.6 3.2-3.2 4.7-4.9 2.6-3 5.1-6.1 7.7-9.1 1.5-1.8 3-3.5 4.5-5.4 1.7-2 3.2-4.1 4.9-6.2 1.5-1.9 3.1-3.8 4.6-5.7s2.9-3.9 4.4-5.9c1.5-2.1 3.1-4.3 4.7-6.5zm73.6-1.6c-1.3 0-1.4 1.2-2 1.9-2.4 3-4.9 6-7.3 9.1l-8.4 10.5c-1.6 2-3.4 4-5 6-2.1 2.5-4.1 5.1-6.2 7.8.9.3 1.7.5 2.5.8 3.8 1.4 6.1 4.6 8.6 7.5.8.9 1.2 2 1.8 3 .9 1.6 1.8 3.2 2.8 4.8.4-.3.8-.5 1.2-.8 1.2-1.1 2.5-2.2 3.7-3.4 1.4-1.3 2.9-2.5 4.1-4 1.3-1.7 2.5-3.6 3.4-5.5 1-2 1.7-4.2 2.2-6.4s.7-4.4 1-6.6c.2-1.4.2-2.8.2-4.1-.1-2-.4-4.1-.6-6.1-.1-1.3-.3-2.7-.5-4-.2-1.6-.5-3.1-.7-4.7-.5-1.9-.6-3.8-.8-5.8z" class="st0"/>
	<path d="M5.2 224.7l.3-1.8c.6-2.6 1.2-5.1 1.9-7.7 1-3.9 1.8-7.9 2.9-11.7.6-2.3 1.3-4.6 1.9-6.9.6-2.4.9-4.9 1.5-7.3.6-2.2 1.4-4.4 2-6.6.5-1.7.7-3.5 1.1-5.3.6-2.4 1.2-4.8 1.8-7.1.3-1.4.8-2.6 1.4-3.8.5-1 .3-2.5.6-3.7.6-2.9 1.3-5.8 1.9-8.7.1-.5.4-1 .7-1.5.1-.1.2-.3.2-.4-.3-1.9.8-3.4 1.1-5.2.1-.7.3-1.5.5-2.2.5-2.2 1.1-4.4 1.6-6.6.4-1.7.7-3.4 1.2-5.1.7-2.8 1.5-5.6 2.2-8.4.6-2.3 1-4.7 1.6-7.1.6-2.5 1.4-4.9 2.1-7.3v-.5H13c.2-1.3.4-2.4.6-3.5.3-1.2.7-2.5 1-3.7.6-2.3 1.3-4.6 1.9-6.9.3-1.2.4-2.4.7-3.6 0-.1.1-.2.1-.3 1.2-2.4 1.2-5 1.8-7.5.1-.6.9-1 .6-1.9 0-.1 1-.7 1.5-.8 6.3-.1 12.7-.1 19-.1.7 0 1.1-.2 1.2-.9.4-2.2.8-4.4 1.3-6.5.3-1.2.7-2.3 1-3.5.5-2 1-4.1 1.5-6.1.7-2.5.9-5.2 2.3-7.5.3-.6.2-1.4.4-2.1.6-1.9 1.2-3.8 1.9-5.6.6-1.5 1.4-3 2.2-4.4 1.1-1.9 2.2-3.8 3.5-5.7.8-1.2 1.8-2.3 2.8-3.4.4-.5.7-1 1.2-1.4 2-1.5 3.7-3.3 6-4.6 2.1-1.2 4.2-2.5 6.4-3.5 1.4-.6 2.9-1.1 4.4-1.6 1.4-.5 2.8-.8 4.2-1.3 3.6-1.1 7.3-1.7 11.1-2.1 3-.3 6.1-.6 9.2-.7 5.1-.2 10.3-.5 15.4-.5 4.4 0 8.8.4 13.2.7.4 0 .7.2 1 .3-.8 3.4-1.6 6.8-2.5 10.2-.4 1.7-.6 3.6-1.3 5.2-.4.9-.4 1.8-.7 2.7-.4 1.1-.7 2.2-1 3.4-.5 2-.9 3.9-1.3 5.9-.2.8-.6 1-1.3 1-2.5 0-5-.2-7.4 0s-4.9.5-7.2 1.2c-2.2.7-4.1 2.1-5.8 3.8-2.1 2-2.8 4.6-4 7-1.5 3.1-1.8 6.4-2.6 9.6-.5 1.9-.7 3.9-1.5 5.6-.7 1.4-.3 3-1.4 4.5h21.9c-2.3 9.4-4.6 18.7-7 28.2H87.7c-2.8 0-2.4.3-3 2.5s-1 4.5-1.5 6.7c-.5 2.4-1.1 4.8-1.6 7.1-.3 1.2-.7 2.3-1 3.5-.2.6-.2 1.2-.4 1.8-.2.9-.5 1.8-.7 2.8-.5 1.9-.8 3.8-1.4 5.6-.2.7-.4 1.4-.8 2.1-.6.8-.4 2.1-.6 3.2-.6 2.6-1.2 5.2-1.9 7.8-.3 1.1-.8 2.1-1.1 3.1 0 .1-.1.1-.1.2 0 3.3-1.5 6.3-2.1 9.5-.4 2-.8 4-1.4 6-.3.9-.8 1.8-1.3 2.6-.1.1-.2.3-.1.3.9 1.6-.3 2.9-.6 4.2-.5 2.6-1.2 5.1-1.9 7.7-.3 1.3-.8 2.5-1.2 3.7-.3.9-.4 1.9-.6 2.8-.3 1.4-.7 2.9-1 4.3-.7 2.9-1.3 5.7-2 8.6-.2.9-.7 1.7-.9 2.7-.8 3.3-1.6 6.7-2.4 10-.2 1.1-.3 2.2-.6 3.2-.2.9-.7 1.7-1.2 2.8-16.8.5-33.9.5-51.1.5zM45.4 85.8H24.1c-1.6 6.6-3.2 13.1-4.8 19.7h20c.1.3.4.8.3 1.2-.2 1.5-.6 3-.9 4.5-.3 1.4-.8 2.7-1.2 4.1-.5 2.3-1 4.5-1.5 6.8-.7 3-1.5 5.9-2.3 8.8-.8 3.1-1.7 6.1-2.5 9.2-.6 2.5-1.2 5-1.9 7.5l-1.2 4.5-.9 4.5-1.8 6.9c-.6 2.4-1.2 4.7-1.8 7.1-.3 1-.4 2.1-.7 3.1-.4 1.6-.9 3.2-1.3 4.7-.8 3-1.5 6.1-2.2 9.1l-1.2 4.8c-.4 1.8-.7 3.6-1.3 5.3-.4 1-.1 2.2-1.1 3.2-.5.5-.4 1.7-.6 2.6-.7 3.3-1.5 6.6-2.3 9.9-.6 2.5-1.3 4.9-2 7.5 2.6-.1 4.9 0 7.3 0 4.6-.1 9.2-.2 13.7-.2h20.3c9.7-38.5 19.3-76.9 29-115.3h20.6c.7 0 1.2-.2 1.3-1 .2-1.3.4-2.6.7-3.9.5-1.8 1.1-3.5 1.5-5.3.8-3.1 1.6-6.3 2.4-9.6h-1.6c-1.8 0-3.6.1-5.3.1-4.5 0-8.9 0-13.4.1-1.1 0-1.5-.3-1.2-1.4l1.8-6.9c.3-1.1.8-2.2 1-3.4.5-2.1.7-4.2 1.3-6.2.8-2.7 1.7-5.4 2.6-8 .8-2.2 1.8-4.4 3.3-6.3 2-2.7 4.7-4.5 7.6-6 2.8-1.4 5.8-1.6 8.9-1.9 2-.2 4-.2 6.2-.4 1.7-6.8 3.4-13.6 5.2-20.5h-5c-5.6-.1-11.1-.3-16.7-.2-3 0-6 .5-8.9.9-3.6.5-7.1 1.1-10.6 1.7-.8.1-1.6.5-2.3.7-1.8.6-3.7 1.1-5.5 1.8-1.3.5-2.6 1.2-3.9 1.9-1.5.8-3 1.7-4.5 2.6-.5.3-.8.8-1.2 1.1-1.8 1.3-3.3 2.9-4.6 4.6-1.1 1.4-2 2.8-3 4.3-.4.9-1.1 1.9-1.5 2.9-.8 1.9-1.5 3.8-2.2 5.8-.8 2.1-1.6 4.1-2.3 6.3-.9 3.2-1.7 6.5-2.5 9.7-.4 1.7-.9 3.5-1.4 5.2-.4 1.7-.9 3.4-1.3 5.1-.4 2.2-.8 4.4-1.3 6.7z"/>
	<path d="M399.9 108.7c-3.2-.1-5.6-1.6-7.5-4.1-1.5-2.1-2.1-4.4-2.3-6.9 0-.7-.4-1.4-.4-2.1 0-1.1.4-2.2.4-3.3.3-3.6 1.8-6.7 3.5-9.7 1.1-1.9 2.9-3.3 4.5-4.9 2.2-2.2 4.8-3.8 7.8-4.7 2.1-.7 4.2-.9 6.4-.4 2.5.5 4.8 3.2 5.6 5.6.9 2.6.8 5.3.4 7.8-.5 2.9-1.4 5.7-2.2 8.5 0 .2-.1.3-.2.4-1.3 2.1-2.2 4.4-3.7 6.4-2.3 2.9-4.9 5.3-8.4 6.7-1.3.4-2.7.4-3.9.7z" class="st0"/>
	<path fill="#fff" d="M45.4 85.8c.5-2.3.9-4.6 1.4-6.8.4-1.7.8-3.4 1.3-5.1.4-1.7.9-3.5 1.4-5.2.8-3.2 1.6-6.5 2.5-9.7.6-2.1 1.5-4.2 2.3-6.3.7-1.9 1.4-3.9 2.2-5.8.4-1 1.1-2 1.8-2.9 1-1.4 1.9-2.9 3-4.3 1.3-1.7 2.8-3.3 4.6-4.6.4-.3.8-.8 1.2-1.1 1.5-.9 3-1.8 4.5-2.6 1.3-.7 2.5-1.4 3.9-1.9 1.8-.7 3.7-1.2 5.5-1.8.8-.2 1.5-.6 2.3-.7 3.5-.6 7.1-1.2 10.6-1.7 3-.4 5.9-.9 8.9-.9 5.6-.1 11.1.1 16.7.2h5c-1.7 7-3.5 13.8-5.2 20.5-2.1.1-4.2.2-6.2.4-3 .3-6.1.5-8.9 1.9-2.9 1.5-5.6 3.3-7.6 6-1.5 2-2.5 4.1-3.3 6.3-.9 2.7-1.9 5.3-2.6 8-.6 2-.8 4.2-1.3 6.2-.3 1.1-.7 2.2-1 3.4l-1.8 6.9c-.3 1.1.1 1.4 1.2 1.4 4.5-.1 8.9-.1 13.4-.1 1.8 0 3.6-.1 5.3-.1h1.6c-.8 3.3-1.6 6.4-2.4 9.6-.5 1.8-1.1 3.5-1.5 5.3-.3 1.3-.5 2.6-.7 3.9-.1.8-.6 1-1.3 1H81.6c-9.7 38.5-19.3 76.9-29 115.3H32.3c-4.6 0-9.2.1-13.7.2-2.4.1-4.8-.1-7.3 0 .7-2.6 1.4-5 2-7.5.8-3.3 1.5-6.6 2.3-9.9.2-.9 0-2.1.6-2.6.9-1 .7-2.1 1.1-3.2.6-1.7.8-3.5 1.3-5.3l1.2-4.8c.7-3 1.5-6.1 2.2-9.1.4-1.6.9-3.2 1.3-4.7.3-1 .4-2.1.7-3.1.6-2.4 1.2-4.7 1.8-7.1l1.8-6.9c.4-1.5.6-3 .9-4.5l1.2-4.5c.6-2.5 1.2-5 1.9-7.5.8-3.1 1.6-6.1 2.5-9.2.8-2.9 1.6-5.9 2.3-8.8.5-2.3 1-4.5 1.5-6.8.3-1.4.8-2.7 1.2-4.1.4-1.5.7-3 .9-4.5.1-.4-.2-.9-.3-1.2h-20c1.6-6.6 3.2-13.1 4.8-19.7 6.6.1 13.6.1 20.9.1z"/>
<script xmlns=""/></svg>