<?xml version="1.0" encoding="UTF-8"?>
<svg id="Layer_1" xmlns="http://www.w3.org/2000/svg" version="1.1" viewBox="0 0 263 61">
  <!-- Generator: Adobe Illustrator 29.0.1, SVG Export Plug-In . SVG Version: 2.1.0 Build 192)  -->
  <defs>
    <style>
      .st0 {
        fill: #fff;
      }
    </style>
  </defs>
  <rect class="st0" x="1.82" y="7.15" width="75.29" height="23.49" transform="translate(-.41 .89) rotate(-1.29)"/>
  <rect class="st0" x="24.55" y="31.7" width="53.13" height="23.5" transform="translate(-.96 1.16) rotate(-1.29)"/>
  <g>
    <path d="M5.57,25.58l2.66-.06.96-9.6.97-.49-.08-.31-3.76,1.31.31-3.12,3.45-1.27,3.12-.07-1.34,13.46,2.6-.06-.29,2.8-8.9.2.28-2.8Z"/>
    <path d="M20.6,28.22c-1.93.04-3.15-.35-3.66-1.18-.51-.83-.78-1.76-.81-2.79,0-.34,0-.69.05-1.06.17-1.67.74-2.86,1.71-3.57.06-.04.13-.09.2-.14-.04-.02-.08-.05-.12-.08-.63-.47-.96-1.26-.99-2.37,0-.29,0-.59.04-.91.15-1.53.63-2.65,1.45-3.35s2.08-1.07,3.78-1.11c1.64-.04,2.77.24,3.4.84.63.59.96,1.42.98,2.48,0,.3,0,.61-.04.94-.16,1.6-.69,2.71-1.61,3.34-.04.03-.08.06-.13.09.06.05.11.09.17.13.65.55.99,1.4,1.02,2.57,0,.3,0,.61-.04.94-.15,1.51-.63,2.75-1.43,3.72-.81.97-2.13,1.48-3.97,1.52ZM20.84,25.63c.46-.01.81-.13,1.03-.36.22-.23.4-.97.52-2.23.07-.62.1-1.11.09-1.47,0-.4-.08-.67-.22-.81-.14-.14-.45-.21-.92-.2-.46.01-.81.11-1.03.31-.22.19-.39.94-.53,2.23-.06.59-.08,1.07-.08,1.43,0,.41.08.7.22.87.14.17.44.25.91.24ZM21.58,18.23c.46-.01.8-.11,1-.29.2-.18.36-.82.47-1.92.03-.33.05-.61.04-.84,0-.38-.08-.65-.23-.79-.14-.14-.44-.21-.89-.2-.45.01-.78.11-.98.29s-.36.71-.45,1.59c-.04.49-.06.89-.06,1.19,0,.38.08.64.2.78.13.13.42.19.89.18Z"/>
    <path d="M41.04,8.73l3.65-.08-1.89,18.89-3.65.08.07-.67s.02-.1.07-.17l.82-.92-.22-.1-.14.12c-.23.32-.51.61-.85.87-.83.66-1.77,1-2.85,1.02-.11,0-.22,0-.34,0-1.39-.06-2.21-.58-2.44-1.57-.23-.99-.36-1.92-.38-2.8-.02-.85.02-1.79.13-2.84.22-2.13.61-3.85,1.17-5.15.56-1.3,1.55-2.03,2.96-2.18.14-.01.27-.02.4-.02,1.05-.02,1.92.28,2.6.9.29.27.52.56.68.9l.11.11.25-.15-.65-.96c-.03-.06-.04-.12-.03-.18l.51-5.1ZM37.72,25.17c.48-.01.89-.15,1.24-.42.3-.23.52-.86.65-1.88l.49-4.87c.02-.26.02-.5.02-.71-.01-.59-.11-.97-.3-1.13-.3-.26-.69-.38-1.17-.37-.52.01-.92.19-1.19.54-.28.35-.54,1.74-.78,4.17-.14,1.48-.21,2.57-.19,3.28,0,.47.09.82.23,1.06.14.23.48.34,1,.33Z"/>
    <path d="M49.9,24.99c.41,0,.71-.06.9-.15.2-.09.39-.39.58-.9s.34-1.07.47-1.69l3.66-.08c-.2,1.38-.58,2.44-1.13,3.17-.56.73-1.21,1.27-1.96,1.61-.75.34-1.67.52-2.75.55-1.86.04-3.11-.45-3.74-1.48-.63-1.03-.96-2.27-.99-3.73-.01-.62.01-1.28.09-1.99.26-2.52.86-4.37,1.81-5.56.95-1.19,2.37-1.8,4.27-1.84,1.93-.04,3.19.42,3.78,1.39.58.97.89,2.17.92,3.59.01.66-.02,1.38-.1,2.16l-.16,1.1-7.03.16c-.07.87-.1,1.56-.09,2.08.01.52.06.87.16,1.04.23.4.67.58,1.32.57ZM52.14,19.06c.08-.91.12-1.64.11-2.17-.01-.51-.09-.89-.25-1.13s-.54-.35-1.15-.34c-.64.01-1.11.21-1.4.57-.25.31-.49,1.36-.71,3.15l3.41-.08ZM50.88,10.22l2.45-.06-2.45,2.43-1.68.04,1.69-2.42Z"/>
    <path d="M61.83,27.23c-1.62.04-2.8-.33-3.54-1.1-.73-.77-1.12-1.98-1.16-3.62-.02-.71.02-1.52.11-2.43.31-3.07.98-5.07,2.03-6,1.05-.93,2.38-1.42,4.01-1.45,1.64-.04,2.8.33,3.49,1.1.69.77,1.05,1.95,1.08,3.53.01.5,0,1.05-.05,1.65l-3.6.08c.08-.99.12-1.77.1-2.33-.01-.49-.08-.85-.22-1.08-.13-.23-.49-.34-1.07-.33-.51.01-.93.2-1.25.56-.32.36-.6,1.76-.84,4.2-.13,1.27-.19,2.26-.17,2.96.01.57.11.99.29,1.28.18.28.52.42,1.04.41.58-.01,1-.21,1.26-.58.26-.37.48-1.44.68-3.18l3.6-.08c-.3,2.33-.93,3.97-1.89,4.93-.96.96-2.26,1.46-3.9,1.5Z"/>
    <path d="M72.52,24.11l-.29,2.77-3.53.08.29-2.77,3.53-.08Z"/>
    <path d="M29.89,49.53c.1-1.07.5-2.02,1.2-2.84.69-.82,1.68-1.68,2.97-2.59,1.18-.88,1.96-1.58,2.33-2.1.37-.52.6-1.23.68-2.13.05-.45.07-.81.06-1.09,0-.37-.08-.6-.23-.69-.14-.09-.42-.13-.85-.12-.49.01-.86.14-1.1.38-.25.24-.44,1.01-.57,2.31l-3.62.08c.18-1.8.7-3.13,1.56-4,.86-.87,2.18-1.33,3.96-1.37,1.83-.04,3.03.26,3.6.91.57.65.87,1.49.89,2.54,0,.3,0,.63-.04.99-.14,1.33-.58,2.43-1.32,3.3-.75.87-1.68,1.76-2.81,2.69-.95.74-1.64,1.34-2.07,1.79-.43.45-.67.91-.71,1.38l6.01-.14-.28,2.8-9.89.22.24-2.31Z"/>
    <path d="M45.75,51.65c-1.68.04-2.85-.33-3.5-1.12-.65-.78-.99-1.68-1.01-2.71,0-.23,0-.48.03-.73l.73-7.21c.14-1.36.65-2.48,1.55-3.38.9-.9,2.18-1.36,3.85-1.4,1.67-.04,2.83.33,3.48,1.12.65.78.99,1.68,1.01,2.71,0,.23,0,.48-.03.73l-.73,7.21c-.14,1.36-.65,2.48-1.54,3.38-.89.9-2.17,1.36-3.84,1.4ZM46,49.05c.45,0,.79-.16,1.01-.46.22-.29.36-.63.4-1l.85-8.49c0-.07,0-.14,0-.22,0-.29-.08-.56-.23-.81-.15-.25-.45-.37-.9-.36-.46.01-.79.16-1.02.45s-.35.62-.39,1l-.85,8.49c0,.09,0,.17,0,.25,0,.28.08.54.23.79.15.25.45.37.9.36Z"/>
    <path d="M52.17,49.03c.1-1.07.5-2.02,1.2-2.84.69-.82,1.68-1.68,2.97-2.59,1.18-.88,1.96-1.58,2.33-2.1.37-.52.6-1.23.68-2.13.05-.45.07-.81.06-1.09,0-.37-.08-.6-.23-.69-.14-.09-.43-.13-.85-.12-.49.01-.86.14-1.1.38-.25.24-.44,1.01-.57,2.31l-3.62.08c.18-1.8.7-3.13,1.56-4,.87-.87,2.18-1.33,3.96-1.37,1.83-.04,3.03.26,3.6.91.57.65.87,1.49.89,2.54,0,.3,0,.63-.04.99-.14,1.33-.58,2.43-1.32,3.3-.75.87-1.68,1.76-2.81,2.69-.95.74-1.64,1.34-2.07,1.79-.43.45-.67.91-.71,1.38l6.01-.14-.28,2.8-9.88.22.24-2.31Z"/>
    <path d="M67.83,51.14c-1.65.04-2.77-.37-3.35-1.21-.59-.85-.89-1.83-.92-2.95,0-.34,0-.69.05-1.06l3.64-.08c-.06.71-.09,1.26-.08,1.67,0,.43.08.72.22.87.14.15.43.21.89.2.46-.01.79-.13,1.02-.36.22-.23.42-1.23.6-2.99.09-.8.12-1.42.12-1.85,0-.38-.08-.65-.21-.8-.13-.15-.41-.22-.85-.21-.44,0-.78.11-1.02.3-.24.19-.4.63-.49,1.31l-3.63.08,1.38-9.21,9.11-.2-.29,2.8-5.88.13-.28,2.48c0,.06-.03.11-.08.16l-1.26.69.14.26,1.13-.53c.89-.48,1.86-.74,2.89-.76,1.23-.03,2.03.32,2.38,1.03.36.72.55,1.56.57,2.53.01.5-.01,1.06-.07,1.68-.21,2.05-.75,3.55-1.61,4.52-.86.97-2.23,1.47-4.09,1.51Z"/>
  </g>
  <g>
    <path class="st0" d="M87.74,22.42c.05,2.32-.2,4.01-3.19,4.08-.44,0-1-.02-1.33-.07l-.05-2.45c.16.01.41.03.67.02.77-.02.98-.28.96-1.19l-.27-11.86,2.95-.07.26,11.54Z"/>
    <path class="st0" d="M97.33,14.77l.16,7.12c.07,3.04-1.33,4.38-4.02,4.44-2.54.06-3.88-1.25-3.95-4.23l-.16-7.23c-.07-2.96,1.53-4.29,3.89-4.34,2.38-.05,4.01,1.18,4.08,4.25ZM92.34,14.55l.18,7.84c.02.95.36,1.43,1.02,1.42.69-.02.99-.47.97-1.48l-.18-7.85c-.02-.96-.3-1.44-1.04-1.43-.63.01-.97.48-.94,1.49Z"/>
    <path class="st0" d="M101.95,10.56l.26,11.68c.02.89.3,1.37.98,1.35.71-.02.92-.57.9-1.39l-.26-11.68,2.99-.07.26,11.49c.06,2.72-1.16,4.09-3.87,4.15-2.67.06-3.9-1.21-3.96-4l-.26-11.47,2.97-.07Z"/>
    <path class="st0" d="M111.94,19.01l.15,6.67-2.95.07-.34-15.34,3.83-.09c2.57-.06,3.87,1.04,3.93,3.73v.55c.06,2.19-.8,2.86-1.45,3.18.97.44,1.43,1.13,1.48,3.27.03,1.48.06,3.72.21,4.52l-2.85.06c-.21-.69-.24-2.69-.28-4.64-.04-1.73-.24-2.02-1.37-1.99h-.35ZM111.9,16.69h.37c.98-.03,1.38-.35,1.35-1.78l-.02-.74c-.02-1.03-.24-1.54-1.33-1.51h-.46s.09,4.03.09,4.03Z"/>
    <path class="st0" d="M118.64,25.53l-.34-15.34,3.26-.07c.53,1.86,2.22,8.77,2.36,9.45h.07c-.21-2.04-.38-4.83-.42-6.97l-.06-2.52,2.74-.06.34,15.34-3.29.07c-.35-1.45-2.21-9.35-2.32-9.84h-.08c.16,1.8.31,4.85.37,7.27l.06,2.62-2.69.06Z"/>
    <path class="st0" d="M134.62,18.39l-3.16.07.09,4.18,3.71-.08-.3,2.6-6.31.14-.34-15.34,6.29-.14.06,2.61-3.33.08.08,3.36,3.16-.07.06,2.59ZM135.57,6.59l-2.97,2.37-2.6.06,2.11-2.35,3.46-.08Z"/>
    <path class="st0" d="M142.55,18.22l-3.16.07.09,4.18,3.71-.08-.3,2.6-6.31.14-.34-15.34,6.29-.14.06,2.61-3.33.08.08,3.36,3.16-.07.06,2.59Z"/>
    <path class="st0" d="M150.36,9.47l.34,15.34-2.95.07-.34-15.34,2.95-.07Z"/>
    <path class="st0" d="M152.79,24.76l-.34-15.34,3.26-.07c.53,1.86,2.22,8.77,2.36,9.45h.07c-.21-2.04-.38-4.83-.42-6.97l-.06-2.52,2.74-.06.34,15.34-3.29.07c-.35-1.45-2.21-9.35-2.32-9.84h-.08c.16,1.81.31,4.85.37,7.27l.06,2.62-2.69.06Z"/>
    <path class="st0" d="M163.94,11.78l-2.23.05-.06-2.61,7.43-.17.06,2.61-2.25.05.29,12.73-2.95.07-.29-12.73Z"/>
    <path class="st0" d="M176.65,17.45l-3.16.07.09,4.18,3.71-.08-.3,2.6-6.31.14-.34-15.34,6.28-.14.06,2.61-3.33.07.08,3.36,3.16-.07.06,2.59Z"/>
    <path class="st0" d="M181.43,17.45l.15,6.67-2.95.07-.34-15.34,3.83-.09c2.57-.06,3.87,1.04,3.93,3.73v.55c.06,2.19-.8,2.86-1.45,3.18.97.44,1.43,1.13,1.48,3.27.03,1.48.06,3.72.21,4.52l-2.86.06c-.21-.69-.24-2.69-.28-4.65-.04-1.73-.24-2.02-1.37-1.99h-.35ZM181.39,15.12h.37c.98-.03,1.38-.35,1.35-1.78l-.02-.74c-.02-1.03-.24-1.54-1.33-1.51h-.46s.09,4.03.09,4.03Z"/>
    <path class="st0" d="M188.13,23.97l-.34-15.34,3.26-.07c.53,1.86,2.22,8.77,2.36,9.45h.07c-.21-2.04-.38-4.83-.42-6.97l-.06-2.52,2.74-.06.34,15.34-3.29.07c-.35-1.45-2.21-9.35-2.32-9.84h-.08c.15,1.8.31,4.85.37,7.27l.06,2.62-2.69.06Z"/>
    <path class="st0" d="M200.72,20.03l-.3,3.66-3.01.07,1.82-15.39,4.4-.1,2.57,15.29-3.07.07-.5-3.64-1.91.04ZM202.33,17.39c-.26-1.96-.63-4.94-.81-6.4h-.12c-.03,1.07-.32,4.53-.48,6.43l1.4-.03Z"/>
    <path class="st0" d="M207.82,10.79l-2.23.05-.06-2.61,7.43-.17.06,2.61-2.25.05.29,12.73-2.95.07-.29-12.73Z"/>
    <path class="st0" d="M217.18,7.97l.34,15.34-2.95.07-.34-15.34,2.95-.07Z"/>
    <path class="st0" d="M227.08,11.85l.16,7.12c.07,3.04-1.33,4.38-4.02,4.44-2.54.06-3.88-1.25-3.95-4.23l-.16-7.23c-.07-2.96,1.53-4.29,3.89-4.34,2.38-.05,4.01,1.18,4.08,4.25ZM222.09,11.63l.18,7.84c.02.95.36,1.43,1.02,1.42.69-.02.99-.47.97-1.48l-.18-7.85c-.02-.96-.3-1.44-1.04-1.43-.63.01-.97.48-.94,1.49Z"/>
    <path class="st0" d="M229.15,23.05l-.34-15.34,3.26-.07c.53,1.86,2.22,8.77,2.36,9.45h.07c-.21-2.04-.38-4.83-.42-6.97l-.06-2.52,2.74-.06.34,15.34-3.3.07c-.35-1.45-2.21-9.35-2.32-9.84h-.08c.16,1.8.31,4.85.37,7.27l.06,2.62-2.69.06Z"/>
    <path class="st0" d="M241.74,19.11l-.29,3.66-3.01.07,1.82-15.39,4.4-.1,2.57,15.29-3.07.07-.5-3.64-1.91.04ZM243.35,16.47c-.26-1.96-.63-4.94-.81-6.4h-.12c-.03,1.07-.32,4.53-.48,6.43l1.4-.03Z"/>
    <path class="st0" d="M248.17,7.27l2.95-.07.29,12.76,3.71-.08-.21,2.59-6.4.14-.34-15.34Z"/>
    <path class="st0" d="M262.28,15.52l-3.16.07.09,4.18,3.71-.08-.3,2.6-6.31.14-.34-15.34,6.28-.14.06,2.61-3.33.07.08,3.36,3.16-.07.06,2.59Z"/>
    <path class="st0" d="M84.25,34.96l3.63-.08c3.16-.07,4.28,1.35,4.35,4.52l.13,5.77c.06,2.64-.45,4.97-3.94,5.05l-3.83.09-.34-15.34ZM87.5,47.86h.58c1.16-.04,1.33-.8,1.31-1.99l-.16-6.87c-.03-1.13-.29-1.74-1.41-1.72h-.55s.24,10.58.24,10.58Z"/>
    <path class="st0" d="M100.25,43.17l-3.16.07.09,4.18,3.71-.08-.3,2.6-6.31.14-.34-15.34,6.29-.14.06,2.61-3.33.07.08,3.36,3.16-.07.06,2.59Z"/>
    <path class="st0" d="M104.77,45.12l.02,1.06c.02,1.01.28,1.47.96,1.46.68-.02.82-.71.81-1.44-.03-1.45-.31-1.86-1.91-3.14-1.76-1.43-2.67-2.27-2.72-4.53-.05-2.19.63-4.23,3.54-4.29,3.09-.07,3.59,2.02,3.63,3.78l.02.88-2.79.06-.02-.92c-.02-.93-.18-1.39-.77-1.38-.54.01-.71.48-.69,1.35.02.92.2,1.38,1.49,2.34,2.3,1.72,3.13,2.7,3.18,5.23.05,2.4-.72,4.4-3.77,4.47-2.93.07-3.8-1.68-3.85-3.95l-.02-.92,2.89-.07Z"/>
    <path class="st0" d="M122.2,44.57c-.05-2.37-.11-5.74-.11-7.62h-.08c-.25,3.08-.79,9.31-1.14,12.54l-2.5.06c-.41-3.35-1.22-9.66-1.6-12.52h-.09c.08,1.8.23,5.13.29,7.77l.11,4.78-2.68.06-.34-15.34,4.23-.1c.47,2.91,1,6.73,1.22,8.8h.06c.19-2.23.62-5.46,1.02-8.85l4.22-.09.34,15.34-2.84.06-.11-4.89Z"/>
    <path class="st0" d="M129.82,33.94l.34,15.34-2.95.07-.34-15.34,2.95-.07Z"/>
    <path class="st0" d="M139.83,49.06l-2.22.05c-.08-.27-.13-.81-.16-1.13-.46,1.09-1.44,1.4-2.39,1.42-2.39.05-3.1-1.71-3.16-4.21l-.16-7.22c-.05-2.35.88-4.32,3.8-4.39,3.53-.08,3.95,2.48,3.98,4.03v.69s-2.96.07-2.96.07l-.02-.84c-.02-.74-.12-1.43-.94-1.41-.67.02-.91.51-.89,1.51l.18,7.86c.02,1.04.37,1.42.96,1.41.72-.02.95-.58.92-1.84l-.05-2.2-1.01.02-.06-2.49,3.98-.09.2,8.77Z"/>
    <path class="st0" d="M144.63,42.28l.15,6.67-2.95.07-.34-15.34,3.83-.09c2.57-.06,3.87,1.04,3.93,3.73v.55c.06,2.19-.8,2.86-1.45,3.18.96.44,1.43,1.13,1.48,3.27.03,1.48.06,3.72.21,4.52l-2.85.06c-.21-.69-.24-2.69-.28-4.65-.04-1.73-.24-2.02-1.37-1.99h-.35ZM144.58,39.96h.37c.99-.03,1.38-.35,1.35-1.78l-.02-.74c-.02-1.03-.24-1.54-1.33-1.51h-.46s.09,4.03.09,4.03Z"/>
    <path class="st0" d="M153.94,45.09l-.3,3.66-3.01.07,1.82-15.39,4.4-.1,2.57,15.29-3.07.07-.5-3.64-1.91.04ZM155.54,42.45c-.26-1.96-.63-4.94-.81-6.4h-.12c-.03,1.07-.31,4.53-.48,6.43l1.4-.03Z"/>
    <path class="st0" d="M160.71,48.59l-.34-15.34,3.26-.07c.53,1.86,2.22,8.77,2.36,9.45h.07c-.21-2.04-.38-4.83-.43-6.97l-.06-2.52,2.74-.06.34,15.34-3.29.07c-.35-1.45-2.21-9.35-2.32-9.84h-.08c.15,1.81.31,4.85.37,7.27l.06,2.62-2.69.06Z"/>
    <path class="st0" d="M171.86,35.6l-2.23.05-.06-2.61,7.43-.17.06,2.61-2.25.05.29,12.73-2.95.07-.29-12.73Z"/>
    <path class="st0" d="M178.58,42.14c-.02-.83.54-1.46,1.35-1.48.8-.02,1.35.57,1.39,1.42.02.83-.52,1.46-1.35,1.48-.8.02-1.39-.59-1.39-1.42Z"/>
    <path class="st0" d="M189.56,41.16l-3.16.07.09,4.18,3.71-.08-.3,2.6-6.31.14-.34-15.34,6.29-.14.06,2.61-3.33.08.08,3.36,3.16-.07.06,2.59Z"/>
    <path class="st0" d="M191.55,41.85c-.02-.83.54-1.46,1.35-1.48.8-.02,1.35.57,1.39,1.42.02.83-.52,1.46-1.35,1.48-.8.02-1.39-.59-1.39-1.42Z"/>
    <path class="st0" d="M198.84,43l.02,1.06c.02,1.01.28,1.47.96,1.46.68-.02.82-.71.81-1.44-.03-1.45-.31-1.86-1.91-3.14-1.76-1.42-2.67-2.27-2.72-4.53-.05-2.19.63-4.23,3.54-4.29,3.09-.07,3.59,2.02,3.63,3.78l.02.88-2.79.06-.02-.92c-.02-.93-.18-1.39-.77-1.38-.54.01-.71.49-.69,1.35.02.92.2,1.38,1.49,2.34,2.3,1.72,3.13,2.7,3.18,5.23.05,2.4-.72,4.4-3.77,4.47-2.93.07-3.8-1.68-3.85-3.95l-.02-.92,2.89-.06Z"/>
  </g>
</svg>