<?xml version="1.0" encoding="UTF-8"?>
<svg id="Layer_1" xmlns="http://www.w3.org/2000/svg" version="1.1" viewBox="0 0 263 61">
  <!-- Generator: Adobe Illustrator 29.0.1, SVG Export Plug-In . SVG Version: 2.1.0 Build 192)  -->
  <defs>
    <style>
      .st0 {
        font-family: BaseNeue-CondensedBoldOblique, 'Base Neue';
        font-size: 24px;
        font-style: oblique;
        font-weight: 700;
      }

      .st1 {
        fill: #fff;
      }

      .st2 {
        letter-spacing: .02em;
      }

      .st3 {
        letter-spacing: .04em;
      }
    </style>
  </defs>
  <rect class="st1" x="1.82" y="7.15" width="75.29" height="23.49" transform="translate(-.41 .89) rotate(-1.29)"/>
  <rect class="st1" x="24.55" y="31.7" width="53.13" height="23.5" transform="translate(-.96 1.16) rotate(-1.29)"/>
  <text class="st0" transform="translate(4.79 28.39) rotate(-1.29)"><tspan class="st3"><tspan x="0" y="0">18 déc.</tspan></tspan><tspan class="st2"><tspan x="24.01" y="24">2025</tspan></tspan></text>
  <g>
    <path class="st1" d="M87.74,22.42c.05,2.32-.2,4.01-3.19,4.08-.44,0-1-.02-1.33-.07l-.05-2.45c.16.01.41.03.67.02.77-.02.98-.28.96-1.19l-.27-11.86,2.95-.07.26,11.54Z"/>
    <path class="st1" d="M97.33,14.77l.16,7.12c.07,3.04-1.33,4.38-4.02,4.44-2.54.06-3.88-1.25-3.95-4.23l-.16-7.23c-.07-2.96,1.53-4.29,3.89-4.34,2.38-.05,4.01,1.18,4.08,4.25ZM92.34,14.55l.18,7.84c.02.95.36,1.43,1.02,1.42.69-.02.99-.47.97-1.48l-.18-7.85c-.02-.96-.3-1.44-1.04-1.43-.63.01-.97.48-.94,1.49Z"/>
    <path class="st1" d="M101.95,10.56l.26,11.68c.02.89.3,1.37.98,1.35.71-.02.92-.57.9-1.39l-.26-11.68,2.99-.07.26,11.49c.06,2.72-1.16,4.09-3.87,4.15-2.67.06-3.9-1.21-3.96-4l-.26-11.47,2.97-.07Z"/>
    <path class="st1" d="M111.94,19.01l.15,6.67-2.95.07-.34-15.34,3.83-.09c2.57-.06,3.87,1.04,3.93,3.73v.55c.06,2.19-.8,2.86-1.45,3.18.97.44,1.43,1.13,1.48,3.27.03,1.48.06,3.72.21,4.52l-2.85.06c-.21-.69-.24-2.69-.28-4.64-.04-1.73-.24-2.02-1.37-1.99h-.35ZM111.9,16.69h.37c.98-.03,1.38-.35,1.35-1.78l-.02-.74c-.02-1.03-.24-1.54-1.33-1.51h-.46s.09,4.03.09,4.03Z"/>
    <path class="st1" d="M118.64,25.53l-.34-15.34,3.26-.07c.53,1.86,2.22,8.77,2.36,9.45h.07c-.21-2.04-.38-4.83-.42-6.97l-.06-2.52,2.74-.06.34,15.34-3.29.07c-.35-1.45-2.21-9.35-2.32-9.84h-.08c.16,1.8.31,4.85.37,7.27l.06,2.62-2.69.06Z"/>
    <path class="st1" d="M134.62,18.39l-3.16.07.09,4.18,3.71-.08-.3,2.6-6.31.14-.34-15.34,6.29-.14.06,2.61-3.33.08.08,3.36,3.16-.07.06,2.59ZM135.57,6.59l-2.97,2.37-2.6.06,2.11-2.35,3.46-.08Z"/>
    <path class="st1" d="M142.55,18.22l-3.16.07.09,4.18,3.71-.08-.3,2.6-6.31.14-.34-15.34,6.29-.14.06,2.61-3.33.08.08,3.36,3.16-.07.06,2.59Z"/>
    <path class="st1" d="M150.36,9.47l.34,15.34-2.95.07-.34-15.34,2.95-.07Z"/>
    <path class="st1" d="M152.79,24.76l-.34-15.34,3.26-.07c.53,1.86,2.22,8.77,2.36,9.45h.07c-.21-2.04-.38-4.83-.42-6.97l-.06-2.52,2.74-.06.34,15.34-3.29.07c-.35-1.45-2.21-9.35-2.32-9.84h-.08c.16,1.81.31,4.85.37,7.27l.06,2.62-2.69.06Z"/>
    <path class="st1" d="M163.94,11.78l-2.23.05-.06-2.61,7.43-.17.06,2.61-2.25.05.29,12.73-2.95.07-.29-12.73Z"/>
    <path class="st1" d="M176.65,17.45l-3.16.07.09,4.18,3.71-.08-.3,2.6-6.31.14-.34-15.34,6.28-.14.06,2.61-3.33.07.08,3.36,3.16-.07.06,2.59Z"/>
    <path class="st1" d="M181.43,17.45l.15,6.67-2.95.07-.34-15.34,3.83-.09c2.57-.06,3.87,1.04,3.93,3.73v.55c.06,2.19-.8,2.86-1.45,3.18.97.44,1.43,1.13,1.48,3.27.03,1.48.06,3.72.21,4.52l-2.86.06c-.21-.69-.24-2.69-.28-4.65-.04-1.73-.24-2.02-1.37-1.99h-.35ZM181.39,15.12h.37c.98-.03,1.38-.35,1.35-1.78l-.02-.74c-.02-1.03-.24-1.54-1.33-1.51h-.46s.09,4.03.09,4.03Z"/>
    <path class="st1" d="M188.13,23.97l-.34-15.34,3.26-.07c.53,1.86,2.22,8.77,2.36,9.45h.07c-.21-2.04-.38-4.83-.42-6.97l-.06-2.52,2.74-.06.34,15.34-3.29.07c-.35-1.45-2.21-9.35-2.32-9.84h-.08c.15,1.8.31,4.85.37,7.27l.06,2.62-2.69.06Z"/>
    <path class="st1" d="M200.72,20.03l-.3,3.66-3.01.07,1.82-15.39,4.4-.1,2.57,15.29-3.07.07-.5-3.64-1.91.04ZM202.33,17.39c-.26-1.96-.63-4.94-.81-6.4h-.12c-.03,1.07-.32,4.53-.48,6.43l1.4-.03Z"/>
    <path class="st1" d="M207.82,10.79l-2.23.05-.06-2.61,7.43-.17.06,2.61-2.25.05.29,12.73-2.95.07-.29-12.73Z"/>
    <path class="st1" d="M217.18,7.97l.34,15.34-2.95.07-.34-15.34,2.95-.07Z"/>
    <path class="st1" d="M227.08,11.85l.16,7.12c.07,3.04-1.33,4.38-4.02,4.44-2.54.06-3.88-1.25-3.95-4.23l-.16-7.23c-.07-2.96,1.53-4.29,3.89-4.34,2.38-.05,4.01,1.18,4.08,4.25ZM222.09,11.63l.18,7.84c.02.95.36,1.43,1.02,1.42.69-.02.99-.47.97-1.48l-.18-7.85c-.02-.96-.3-1.44-1.04-1.43-.63.01-.97.48-.94,1.49Z"/>
    <path class="st1" d="M229.15,23.05l-.34-15.34,3.26-.07c.53,1.86,2.22,8.77,2.36,9.45h.07c-.21-2.04-.38-4.83-.42-6.97l-.06-2.52,2.74-.06.34,15.34-3.3.07c-.35-1.45-2.21-9.35-2.32-9.84h-.08c.16,1.8.31,4.85.37,7.27l.06,2.62-2.69.06Z"/>
    <path class="st1" d="M241.74,19.11l-.29,3.66-3.01.07,1.82-15.39,4.4-.1,2.57,15.29-3.07.07-.5-3.64-1.91.04ZM243.35,16.47c-.26-1.96-.63-4.94-.81-6.4h-.12c-.03,1.07-.32,4.53-.48,6.43l1.4-.03Z"/>
    <path class="st1" d="M248.17,7.27l2.95-.07.29,12.76,3.71-.08-.21,2.59-6.4.14-.34-15.34Z"/>
    <path class="st1" d="M262.28,15.52l-3.16.07.09,4.18,3.71-.08-.3,2.6-6.31.14-.34-15.34,6.28-.14.06,2.61-3.33.07.08,3.36,3.16-.07.06,2.59Z"/>
    <path class="st1" d="M84.25,34.96l3.63-.08c3.16-.07,4.28,1.35,4.35,4.52l.13,5.77c.06,2.64-.45,4.97-3.94,5.05l-3.83.09-.34-15.34ZM87.5,47.86h.58c1.16-.04,1.33-.8,1.31-1.99l-.16-6.87c-.03-1.13-.29-1.74-1.41-1.72h-.55s.24,10.58.24,10.58Z"/>
    <path class="st1" d="M100.25,43.17l-3.16.07.09,4.18,3.71-.08-.3,2.6-6.31.14-.34-15.34,6.29-.14.06,2.61-3.33.07.08,3.36,3.16-.07.06,2.59Z"/>
    <path class="st1" d="M104.77,45.12l.02,1.06c.02,1.01.28,1.47.96,1.46.68-.02.82-.71.81-1.44-.03-1.45-.31-1.86-1.91-3.14-1.76-1.43-2.67-2.27-2.72-4.53-.05-2.19.63-4.23,3.54-4.29,3.09-.07,3.59,2.02,3.63,3.78l.02.88-2.79.06-.02-.92c-.02-.93-.18-1.39-.77-1.38-.54.01-.71.48-.69,1.35.02.92.2,1.38,1.49,2.34,2.3,1.72,3.13,2.7,3.18,5.23.05,2.4-.72,4.4-3.77,4.47-2.93.07-3.8-1.68-3.85-3.95l-.02-.92,2.89-.07Z"/>
    <path class="st1" d="M122.2,44.57c-.05-2.37-.11-5.74-.11-7.62h-.08c-.25,3.08-.79,9.31-1.14,12.54l-2.5.06c-.41-3.35-1.22-9.66-1.6-12.52h-.09c.08,1.8.23,5.13.29,7.77l.11,4.78-2.68.06-.34-15.34,4.23-.1c.47,2.91,1,6.73,1.22,8.8h.06c.19-2.23.62-5.46,1.02-8.85l4.22-.09.34,15.34-2.84.06-.11-4.89Z"/>
    <path class="st1" d="M129.82,33.94l.34,15.34-2.95.07-.34-15.34,2.95-.07Z"/>
    <path class="st1" d="M139.83,49.06l-2.22.05c-.08-.27-.13-.81-.16-1.13-.46,1.09-1.44,1.4-2.39,1.42-2.39.05-3.1-1.71-3.16-4.21l-.16-7.22c-.05-2.35.88-4.32,3.8-4.39,3.53-.08,3.95,2.48,3.98,4.03v.69s-2.96.07-2.96.07l-.02-.84c-.02-.74-.12-1.43-.94-1.41-.67.02-.91.51-.89,1.51l.18,7.86c.02,1.04.37,1.42.96,1.41.72-.02.95-.58.92-1.84l-.05-2.2-1.01.02-.06-2.49,3.98-.09.2,8.77Z"/>
    <path class="st1" d="M144.63,42.28l.15,6.67-2.95.07-.34-15.34,3.83-.09c2.57-.06,3.87,1.04,3.93,3.73v.55c.06,2.19-.8,2.86-1.45,3.18.96.44,1.43,1.13,1.48,3.27.03,1.48.06,3.72.21,4.52l-2.85.06c-.21-.69-.24-2.69-.28-4.65-.04-1.73-.24-2.02-1.37-1.99h-.35ZM144.58,39.96h.37c.99-.03,1.38-.35,1.35-1.78l-.02-.74c-.02-1.03-.24-1.54-1.33-1.51h-.46s.09,4.03.09,4.03Z"/>
    <path class="st1" d="M153.94,45.09l-.3,3.66-3.01.07,1.82-15.39,4.4-.1,2.57,15.29-3.07.07-.5-3.64-1.91.04ZM155.54,42.45c-.26-1.96-.63-4.94-.81-6.4h-.12c-.03,1.07-.31,4.53-.48,6.43l1.4-.03Z"/>
    <path class="st1" d="M160.71,48.59l-.34-15.34,3.26-.07c.53,1.86,2.22,8.77,2.36,9.45h.07c-.21-2.04-.38-4.83-.43-6.97l-.06-2.52,2.74-.06.34,15.34-3.29.07c-.35-1.45-2.21-9.35-2.32-9.84h-.08c.15,1.81.31,4.85.37,7.27l.06,2.62-2.69.06Z"/>
    <path class="st1" d="M171.86,35.6l-2.23.05-.06-2.61,7.43-.17.06,2.61-2.25.05.29,12.73-2.95.07-.29-12.73Z"/>
    <path class="st1" d="M178.58,42.14c-.02-.83.54-1.46,1.35-1.48.8-.02,1.35.57,1.39,1.42.02.83-.52,1.46-1.35,1.48-.8.02-1.39-.59-1.39-1.42Z"/>
    <path class="st1" d="M189.56,41.16l-3.16.07.09,4.18,3.71-.08-.3,2.6-6.31.14-.34-15.34,6.29-.14.06,2.61-3.33.08.08,3.36,3.16-.07.06,2.59Z"/>
    <path class="st1" d="M191.55,41.85c-.02-.83.54-1.46,1.35-1.48.8-.02,1.35.57,1.39,1.42.02.83-.52,1.46-1.35,1.48-.8.02-1.39-.59-1.39-1.42Z"/>
    <path class="st1" d="M198.84,43l.02,1.06c.02,1.01.28,1.47.96,1.46.68-.02.82-.71.81-1.44-.03-1.45-.31-1.86-1.91-3.14-1.76-1.42-2.67-2.27-2.72-4.53-.05-2.19.63-4.23,3.54-4.29,3.09-.07,3.59,2.02,3.63,3.78l.02.88-2.79.06-.02-.92c-.02-.93-.18-1.39-.77-1.38-.54.01-.71.49-.69,1.35.02.92.2,1.38,1.49,2.34,2.3,1.72,3.13,2.7,3.18,5.23.05,2.4-.72,4.4-3.77,4.47-2.93.07-3.8-1.68-3.85-3.95l-.02-.92,2.89-.06Z"/>
  </g>
</svg>