<?xml version="1.0" encoding="UTF-8"?>
<svg id="Layer_1" data-name="Layer 1" xmlns="http://www.w3.org/2000/svg" viewBox="0 0 114.32 30.14">
  <defs>
    <style>
      .cls-1 {
        fill: #ef4a39;
      }

      .cls-2 {
        fill: #636565;
      }
    </style>
  </defs>
  <g id="yblt6E">
    <g>
      <path d="M28.66,20.44c-1.08,2.85-3.08,5.15-5.39,7.14-1.48,1.28-3.43,1.69-5.32,2.12-2.99.68-4.68.57-7.61-.31-.89-.27-1.19-.58-1.95-.96-.62-.31-3.63-1.53-3.68-2.14.07-.52.6-.71.9-1.06.45-.51.69-1.2.65-1.87,1.39-.34,3.59-.69,4.14-2.23.21-.6.02-.74.04-1.24.02-.65.89-.61,1.42-.81,1.3-.5,2.1-1.76,1.6-3.14-.11-.31-.41-.49-.26-.91.03-.08,1.13-.54,1.4-.82.99-1.01.54-2.81-.47-3.64-.24-.2-.9-.41-.95-.68-.12-.63.69-.83.11-1.9-.13-.24-.43-.34-.35-.65.41-.61.81-1.24,1.35-1.73.8-.72,4.87-3.49,5.75-3.75.55-.16,1.98-.14,2.48.11.39.2.52,1.34.49,1.75-.1,1.51-1,2.4-1.75,3.56-.34.53.16.51.55.21.95-.72,1.12-2.11,2.41-2.55.95-.32,1.89-.28,2.45.68.37.63.27,1.04.1,1.65-.32.02-.66-.03-.98,0-.2.02-.33.18-.6.17-.5-.02-.67-.46-1.35-.32-.22.05-.33.23-.44.29-.8.43-.65.61-1.17,1.09s-1.63.5-1.62,1.54c0,1.24,1.37.27,1.62.48.18.47.16,1.23.84.99.07-.02.71-.82.71-.87v-1.58c.3-.06.12.34.2.58.01.03.23.19.32.19.28.57.06.95,0,1.54-.02.18.03.36-.01.54l-.13.13c-.42-.02-1.39.14-1.7-.16-.13-.13-.15-.51-.43-.51-.53.14-.81.48-1.31.65-.45.15-.9.25-1.38.2-.05-.26.09-.13.2-.18.39-.18.64-.21.83-.63-.06-.42-.46-.43-.5-.49-.09-.13.09-.43-.35-.42l-.02-.66c-.26-.14-.57-.1-.8.07-.02.01-.32.32-.34.34-.07.15-.01.31-.06.41-.12.21-.78.07-.67.82.47.18.84.03.95-.45h.33c-.1.44-.4.68-.17,1.18h-.6c-.14.57.44.61.16,1.14-.3.56-.46.15-.74.07-.9-.24-1.14.36-1.14,1.13s.12,1.1.83,1.39c.26-.13.59-.09.82-.15.18-.05.57-.85.83-.68l.25.55c-.28.05-.57.71-.2.64.08-.01.55-.37.56-.41.07-.26-.03-.7-.09-.97.98-.2,1.46.44,1.29,1.36,1.05.46.76-.98,1.02-1.24.23-.22,2-.66,2.36-.65.53.01.36.76.38,1.15-.3.35-.76.19-1.15.24-.73.1-.42.5-.7.91s-1.07.21-1.51.3-.47.47-.98.18c-.1-.06-.1-.17-.17-.19-.34-.1-1.04-.04-1.33-.19-.13-.07-.25-.47-.38-.49-.24-.05-.44.08-.66.08-.3,0-.6-.22-.94-.25-.53-.05-1.07.09-1.59.13-.23.41-.59.74-.84,1.14-.23.37-.95,1.66-.92,2.01.03.38.29,1.61.45,1.93.63,1.23,1.91.61,2.78.96.2.08.5.87.92.86-.22.44-.11.87-.18,1.3-.11.78-.61,2.42-.3,3.1.02.05.25.18.31.26.31.47.22.85.99.8.13,0,.98-.31,1.04-.37s.08-.26.17-.38c.16-.22.86-1.26.98-1.33.26-.16.65-.23.95-.43,1.57-1.02,1.03-2.83,1.78-4.2.11-.19.45-.66.63-.78.41-.27,1.22-.4,1.16-1.06-.47.14-.46-.13-.6-.21-.57-.32-.73-.45-1.08-1.06l-.45-1.04c1.14.45.91,1.72,2.27,1.87.21.02.45.03.66-.01.24-.05.2-.2.34-.26.35-.16.87,0,.75-.62-.04-.21-.29-.26-.43-.43-.18-.22-.29-.54-.47-.73s-.7-.28-.48-.54c.03-.04.89-.3,1-.3.15,0,.72.16.83.25.1.08.43,1.63.74,1.77.03.56-.41,1.94.6,1.65ZM23.44,25.23c-.41-.2-.42.08-.58.17-.17.1-.4.14-.54.3-.07.09-.09.24-.17.34-.19.26-.4.22-.35.68.04.37.23.36.54.21.05-.02.7-.66.72-.71.11-.17.2-.78.37-1Z"/>
      <path class="cls-1" d="M28.4,8.64c.06,0,.13-.02.17.06.76,1.77.2,3.43-.68,5-.03.06-.14.07-.19.17-.18.33-.53.85-.1,1.08.91-.52.55-2.44,2.03-2.21.37.33.25.82.31,1.22.03.2.14.33.17.6.18,1.72-.85,4.25-1.46,5.86-1.01.29-.57-1.09-.6-1.65-.32-.15-.65-1.7-.74-1.77-.1-.08-.68-.25-.83-.25-.11,0-.96.26-1,.3-.22.26.3.35.48.54s.28.51.47.73c.14.17.39.22.43.43.12.61-.4.45-.75.62-.13.06-.09.22-.34.26-.21.04-.45.03-.66.01-1.37-.16-1.13-1.42-2.27-1.87l.45,1.04c.35.6.51.73,1.08,1.06.14.08.14.34.6.21.06.66-.75.79-1.16,1.06-.18.12-.53.58-.63.78-.75,1.38-.21,3.18-1.78,4.2-.3.19-.68.27-.95.43-.12.07-.81,1.11-.98,1.33-.08.12-.11.32-.17.38s-.92.36-1.04.37c-.77.06-.67-.33-.99-.8-.06-.08-.28-.21-.31-.26-.31-.68.19-2.32.3-3.1.06-.44-.04-.86.18-1.3-.41,0-.71-.78-.92-.86-.87-.35-2.15.27-2.78-.96-.16-.32-.43-1.55-.45-1.93-.02-.36.69-1.64.92-2.01.25-.4.61-.73.84-1.14.52-.04,1.06-.18,1.59-.13.34.03.65.25.94.25.22,0,.41-.12.66-.08.13.03.25.43.38.49.29.15,1,.09,1.33.19.07.02.07.14.17.19.51.3.57-.09.98-.18.44-.09,1.21.14,1.51-.3s-.03-.81.7-.91c.39-.05.85.11,1.15-.24-.02-.38.16-1.13-.38-1.15-.36,0-2.13.42-2.36.65-.25.25.03,1.7-1.02,1.24.17-.92-.31-1.56-1.29-1.36.06.27.16.71.09.97,0,.03-.48.39-.56.41-.36.06-.08-.6.2-.64l-.25-.55c-.25-.17-.65.63-.83.68-.23.06-.56.02-.82.15-.72-.29-.83-.62-.83-1.39s.24-1.38,1.14-1.13c.27.07.44.49.74-.07.28-.53-.3-.57-.16-1.14h.6c-.23-.5.07-.74.17-1.2h-.33c-.12.49-.48.64-.95.46-.11-.75.55-.61.67-.82.05-.1-.01-.26.06-.41.01-.02.32-.33.34-.34.24-.18.54-.22.8-.07l.02.66c.43-.01.26.29.35.42.04.06.44.07.5.49-.19.42-.44.45-.83.63-.11.05-.25-.08-.2.18.48.05.93-.05,1.38-.2.5-.17.79-.52,1.31-.65.27,0,.3.38.43.51.3.3,1.28.14,1.7.16l.13-.13c.04-.18,0-.37.01-.54.48.22.95-.32,1.2-.68.26-.12.39-.18.68-.17.26,0,.94.16,1.11-.21.06-.13-.23-.23-.32-.27-.25-.12-.52-.22-.79-.28.15-.45.38-.71.77-.94.06-.03.04-.16.21-.18.27-.03.96-.03,1.24,0Z"/>
      <path d="M44.46,14.53c-.07.11-2.19.31-2.37-.12l.16-4.61-.22-1.75c-.05,0-.32.87-.36,1.01-.41,1.49-.75,3.58-1.28,4.96-.4,1.02-1.73.88-2.41.22l-1.68-6.1c-.04,1.35-.09,2.72-.05,4.07.03.72.34,1.42,0,2.14-.35.76-1.42.08-2.06.26l-.17-9.54,3.4.02,1.69,6.48c.18-.21.3-.47.38-.73.53-1.62.92-3.64,1.34-5.33.04-.17.03-.34.05-.5.32-.21.57.05.88.07.85.05,1.69-.08,2.53-.05.26.18.16,4.79.16,5.48,0,1.02,0,2.05,0,3.08,0,.31.12.62-.01.96Z"/>
      <path d="M58.24,11.29c.01.56-.01,1.11,0,1.67,0,.42.35,1.54-.3,1.66-.32.06-1.65.02-1.95-.1-.22-.09-.22-.34-.24-.53-.19-2.12.22-4.46-.09-6.59l.13-2.19c.06-.09.17-.07.26-.08,1.29-.16,5.01-.05,6.22.37,1.81.63,2.13,3.45.83,4.71-.18.17-.89.53-.92.58-.04.06-.02.12-.02.19.02.17.62,1.23.75,1.48.25.45.84,1.24.99,1.66.05.15.06.27.05.42h-2.52s-.18-.1-.22-.15l-1.62-3.1h-1.37ZM58.24,7.15v2.14l.13.13h2.05c.18,0,.73-.34.83-.54.42-.84.02-1.74-.93-1.85-.36-.04-1.26-.1-1.61-.09-.11,0-.45.11-.48.21Z"/>
      <path d="M84.41,27.37c-.47-.91-.83-1.89-1.39-2.76-.47-.74-.7-.44-1.52-.49.01.61-.02,1.23,0,1.84,0,.47.36,1.4-.38,1.5-.26.03-1.87-.02-1.98-.17-.14-.84-.14-1.68-.13-2.53,0-.22.09-.43.09-.68.01-2.04-.14-4.04,0-6.06l.07-.1c1.73-.04,3.61-.14,5.32.16,1.01.17,1.81.56,2.19,1.58.46,1.25.25,2.88-.84,3.74-.17.14-.59.2-.59.43l1.78,3.27c.07.09-.06.28-.11.28h-2.52ZM83.64,19.84c-.09-.06-1.8,0-2.09,0-.24,0-.04.66-.04.81.02.53-.02,1.06,0,1.59h2.09c.95,0,1.26-1.77.45-2.16-.12-.06-.26-.03-.38-.09-.04-.02-.02-.14-.02-.14Z"/>
      <path d="M79.36,5.22l2.4.04c.16.11.06,1.5.08,1.8.08,1.91-.02,3.8,0,5.73,0,.56.2,1.13-.01,1.73-.1.16-2.36.15-2.45,0l.07-3.84h-3.42c.02.64-.03,1.28,0,1.92.02.53.35,1.45-.04,1.93-.15.18-1.92.07-2.27.04l-.07-.1V5.22s2.25,0,2.25,0c.28.38.11,1.07.12,1.49.02.56.17,1.17.09,1.76l3.25-.09v-3.16Z"/>
      <path d="M61.75,27.37v-9.41c1.31-.06,2.75-.17,4.06-.08,2.51.17,3.75,1.53,4.05,3.99.42,3.46-1.1,5.33-4.56,5.51-1.17.06-2.38-.05-3.55,0ZM65.47,20.1c-.38-.06-.88.04-1.28,0l-.13.13v5.17c1.1-.03,2.58.04,3.11-1.12s.45-3.12-.73-3.79c-.14-.08-.85-.37-.98-.39Z"/>
      <path d="M43.05,18.93c1.08-1.14,3.41-1.56,4.87-1.04,1,.36,1.71.87,2.21,1.8.82,1.53,1.03,3.27.45,4.93-1.36,3.89-6.46,3.97-8.35.57-.96-1.73-.55-4.83.81-6.27ZM45.38,19.98c-1.68.94-1.76,4.69.12,5.29.51.16,1.6.23,2-.13,1.08-.96,1.22-2.86.63-4.12-.25-.55-1.27-1.34-1.88-1.32-.34.01-.62.14-.87.28Z"/>
      <path d="M113.53,20.16c-.24.21-.8.71-1.11.63-.59-.82-2.04-1.68-2.96-.9-.56.47-.55.92.17,1.19,1.32.49,3.47.17,4.31,1.59.94,1.58.06,4.05-1.73,4.59-2.01.6-4.06.33-5.66-1.05-.2-.17-.55-.63-.33-.88.02-.02.24-.05.34-.13.41-.29.75-.67,1.24-.81,1.02.72,2.25,1.43,3.52.87.59-.26.92-.86.24-1.25-1.47-.84-4.53-.17-4.84-2.51-.36-2.78,1.62-4.2,4.23-3.97.69.06,2.76.89,3.16,1.46.44.63-.12.67-.43.94-.07.06-.09.17-.15.23Z"/>
      <path d="M41.29,19.65c-.06.06-.23.08-.31.15-.24.21-.93.93-1.17.98-.38.08-.27-.15-.46-.3-.53-.43-1.13-.89-1.85-.9-.89-.01-1.99,1.06-.81,1.5,1.72.63,4.52.06,4.7,2.73.14,2.13-.94,3.3-2.98,3.61-1.91.29-3.16,0-4.68-1.17-.24-.19-.65-.62-.36-.92.48-.17,1.02-.83,1.51-.92.28-.05.73.46.96.59.68.39,1.47.55,2.23.37.88-.2,1.55-.91.44-1.42-1.98-.92-4.93-.05-4.73-3.39s4.41-3.6,6.78-2.08c.3.19,1.11.77.72,1.16Z"/>
      <path d="M90.31,14.54c-.5.28-.86.08-1.32.08-1.98-.01-3.96.02-5.94,0l-.09-9.4c1.1-.02,2.2.02,3.3,0,.99-.02,2.01-.08,2.99-.1.44,0,.6.04.64.48.05.51-.01,1.08-.09,1.58h-4.44s.09,1.46.09,1.46h3.98c.08.05.11.12.13.21.05.27.12,1.28.07,1.52-.02.1-.07.2-.15.28l-4.02.04v1.88h4.58c.14-.03.3.3.3.38v1.58Z"/>
      <path d="M101.08,20.01v1.33c.42.4.95.13,1.41.12.43,0,.84.09,1.2.09.57,0,1.39-.45,1.49.47.03.26.08,1.4-.23,1.49h-3.79v1.89h4.52c.01.08.1.18.1.21v1.71c-.54.32-1.34.04-1.92.04-.39,0-.78.09-1.11.09-1.33,0-2.64-.05-3.97-.1l-.09-9.4,6.33-.05c.64.03.56,1.85.12,1.93l-4.06.17Z"/>
      <path class="cls-1" d="M.73,12.72c-.12-.13-.35-.51-.38-.69-.21-1.62.36-2.5,1.95-2.85,2.2-.48,4.89.37,6.99,1.09.93.31,4.1,1.4,4.52,2.15.52.92,0,1.64-.98,1.83-.39.08-.56-.1-.82-.12-1.27-.09-2.51-.19-3.76-.34-1.06-.13-2.29-.41-3.33-.52-1.29-.14-3.23.47-4.21-.54Z"/>
      <path d="M51.39,5.24l3.48,9.31c-.15.19-2.12.23-2.39.15-.35-.11-.35-1.15-.66-1.4-.15-.08-2.54-.08-2.87-.05-.71.07-.56,1.08-1,1.49-.29.12-2.13.1-2.28-.13-.05-.5.17-1.02.33-1.49.51-1.5,1.18-2.96,1.71-4.44.32-.88.49-1.84.87-2.72.44-1.02.48-.71,1.39-.74.46-.02.89-.15,1.4,0ZM49.27,11.38h1.97l-.77-2.95-.29-.65-.9,3.59Z"/>
      <path d="M78.42,27.28h-2.27c-.31,0-.47-1.24-.71-1.37-.56-.2-1.12.01-1.69,0-.27,0-1.19-.22-1.33-.04-.18.24-.45,1.35-.65,1.47-.35.22-1.75-.11-2.25.01-.11-.11.23-1.24.3-1.46.45-1.42,1.1-2.83,1.59-4.23.35-1,.57-2.43,1.03-3.33.08-.15.22-.41.39-.46.1-.03.87-.09,1.02-.09.13,0,1.03.07,1.09.09.18.06.62,1.09.72,1.34.73,1.84,1.22,3.89,1.93,5.77.28.75.78,1.49.84,2.29ZM74.92,24.03l-.98-3.5-.9,3.42,1.88.09Z"/>
      <path d="M70.36,7.47c-.13-.11-.66-.38-.82-.42-3.26-.7-3.42,4.83-1.48,5.58.4.15,1.92.22,2.22-.08.06-.06.06-.2.11-.25.1-.11.24-.19.34-.3.17-.2.21-.55.55-.53s1.23.94,1.76.86c-.73,1.99-2.68,2.81-4.72,2.46-3.55-.61-4.98-4.36-3.41-7.47.96-1.91,3.62-2.93,5.62-2.26,1.12.38,2.08,1.32,2.43,2.44l-1.84.82c-.22,0-.57-.67-.75-.83Z"/>
      <path class="cls-1" d="M12.13,16.02c.42.52.61,1.67-.1,2.03-.85.11-1.81.29-2.65.34-1.92.11-3.8-.45-5.73-.34-.82.04-2.5.57-3.07-.18-.35-.46-.77-2.1-.48-2.6.2-.35,1.38-.73,1.78-.79.72-.1,1.55.02,2.29-.02.62-.03,1.38,0,2.09.03.85.05,1.19.16,1.93.3,1.17.23,3.14.23,3.94,1.23Z"/>
      <path d="M95.71,19.86l.06,7.37c-.09.27-.43.08-.61.09-.6.03-1.19.09-1.8.06-.22-.05-.05-1-.05-1.25s-.09-.45-.09-.68c-.04-1.88.05-3.76,0-5.63-.09-.28-.71-.06-.97-.05-.27,0-1.13.05-1.29-.08-.27-.22-.04-.93-.03-1.25.02-.38-.3-.67.2-.73,1.7-.21,3.61.08,5.31.1.42,0,.97-.2,1.44-.08l.13.13c.06.19.13,1.74.06,1.83-.12.17-1-.01-1.29,0-.14,0-1.03.13-1.06.18Z"/>
      <path class="cls-1" d="M9.39,19.45c.36.27.55,1.04.35,1.44-.25.5-1.16.57-1.62.75-.07.03-.07.13-.14.15-.99.38-2.04.74-3.09.86.8.48.36,1.43-.02,2.08-.17.29-.6,1.06-.97.75-.85-.99-2.69-2.94-2.6-4.31.04-.62.79-1.41,1.33-1.67,1.13-.54,4.77-.76,5.97-.43.22.06.61.24.79.37Z"/>
      <path class="cls-1" d="M9.45,9.46c-1.39-.62-2.89-1.12-4.45-1.32-.61-.08-1.22-.08-1.83-.14-.73-1.37.13-3.66,1.78-3.79,1.34-.11,3.8,1.62,4.89,2.43.55.41,2.35,1.82,2.47,2.41s-.22,1.34-.88,1.31c-.37-.01-1.53-.7-1.98-.9Z"/>
      <path d="M57.56,27.24s-.08.13-.1.2l-5.63-.03c-.14-.08-.16-.19-.17-.34-.06-.45.1-1.25.09-1.8-.01-.61-.16-1.35-.18-1.96-.04-1.76,0-3.52.17-5.26.44.13,2.06-.33,2.27.09,0,1.48-.09,2.99-.05,4.49,0,.2.08.39.09.59.03.7-.09,1.41.09,2.09h3.27c.06.02.14.2.14.22,0,.48.07,1.28,0,1.71Z"/>
      <path class="cls-1" d="M94.77,14.35l-.02-6.74c.34.09.59-.14.9-.17.8-.09,2.24.06,3.04.21,2.58.48,2.98,4.91.84,6.24-.83.52-1.46.32-2.34.39-.78.07-1.64.36-2.42.07ZM96.46,12.92c.67.05,1.72.07,2.18-.52.52-.67.54-2.13-.04-2.77-.47-.51-1.54-.76-2.14-.43v3.72Z"/>
      <path class="cls-1" d="M112.95,8.49v.23s-1.22.95-1.22.95c-.22-.13-.32-.3-.56-.46-.18-.12-.61-.35-.81-.39-.47-.08-1.52.12-1.19.77.16.32,2.35.52,2.8.71,1.61.8,1.2,3.36-.38,3.93-.99.36-2.64.37-3.59-.13-.09-.05-.97-.67-1.01-.72-.1-.16-.12-.35,0-.5.08-.11.86-.61,1-.63.38-.06,1.03.61,1.62.68.34.04,1.29-.02,1.49-.31.32-.47-.03-.61-.42-.76-.75-.28-1.49-.23-2.18-.47-1.18-.41-1.44-1.5-1.07-2.62.4-1.19,1.9-1.6,3.04-1.49.87.08,1.88.62,2.5,1.21Z"/>
      <path class="cls-1" d="M9.39,5.34c-.95-.92-1.93-2.05-1.27-3.51.63-1.39,1.91-.84,2.98-.38.97.41,2.15,1.03,3.08,1.54.22.12.99.51,1.04.67.24.79-.96,1.11-1.48,1.56-.66.58-1.09,1.37-1.64,2.04-.19.05-.49-.15-.66-.25-.71-.43-1.45-1.1-2.04-1.68Z"/>
      <path class="cls-1" d="M103.3,13c.2.2,2.64,0,3.12.09.1.02.17.03.2.14-.02.25.13,1.13-.13,1.22-.63-.06-4.72.15-4.95-.07-.12-.12-.13-.39-.13-.56,0-1.63.14-3.31.1-4.96,0-.24-.2-.81,0-.94l4.71-.08c.38.19.02,1,.09,1.33-1.05.11-2.16-.14-3.17.14l.09.93c.09-.03.18-.01.26.01.13.04.42.03.56.03.22,0,.69-.04,1.11-.02.16,0,.99-.2.99.14v1.24l-2.82.09v1.28Z"/>
      <path d="M88,27.28c-.21-.68-.19-1.39-.17-2.1.03-1.76.13-3.53.09-5.3,0-.45-.3-1.71.12-2.01.18-.13,1.99-.13,2.15,0,.07.06.1.13.12.22.1.52,0,1.55,0,2.14.02,1.77-.03,3.59,0,5.39,0,.53.29,1.19-.12,1.66h-2.18Z"/>
      <path d="M60.64,27.37h-2.18l-.04-9.49h2.09c.25.41.1,1.08.12,1.59.1,1.99-.05,3.84,0,5.81.02.71.29,1.36,0,2.09Z"/>
      <path class="cls-2" d="M26.78,7.27c-.19.68-.61,1.6-1.07,2.14s-.41.24-.85.28c-.16.02-.27.16-.57.15-.08,0-.3-.16-.32-.19-.08-.24.11-.64-.2-.58v1.58c0,.06-.64.85-.71.87-.68.24-.67-.52-.84-.99-.24-.21-1.61.76-1.62-.48,0-1.04,1.1-1.06,1.62-1.54s.38-.66,1.17-1.09c.1-.06.22-.24.44-.29.68-.14.85.3,1.35.32.27.01.4-.15.6-.17.32-.04.66.02.98,0Z"/>
      <path d="M17.44.11c.09.09.18.71.19.87.03.67-.14,1.47-.57,2.01-.66.83-.89.32-1.51,0-.59-.31-2.41-.98-2.61-1.58-.17-.51.74-.85,1.14-.96.6-.17,2.01-.38,2.65-.43.17-.01.59-.02.71.11Z"/>
      <path d="M103.96,16.13c-.27.28-.47.56-.68.78-.07.07-.63.54-.68.56-.4.16-.9-.03-1.31.15-.35-.07-.18-.37-.08-.6.09-.19.98-1.62,1.07-1.66.38-.01.78-.12,1.15-.13.21,0,1.27-.08,1.21.18-.17.3-.45.49-.68.73Z"/>
      <path d="M28.4,8.64c-.28-.03-.97-.04-1.24,0-.17.02-.16.14-.21.18.11-.7,1.37-1.07,1.45-.17Z"/>
      <path d="M25.5,10.69c.13-.19.4-1.09.81-.91l.95.33.04.38c-.4.11-1.54.08-1.8.2Z"/>
      <path class="cls-1" d="M23.44,25.23c-.17.22-.26.83-.37,1-.03.04-.68.68-.72.71-.31.15-.51.16-.54-.21-.05-.46.16-.42.35-.68.07-.11.09-.26.17-.34.14-.16.36-.2.54-.3.16-.09.17-.37.58-.17Z"/>
    </g>
  </g>
  <g id="yblt6E-2" data-name="yblt6E">
    <path class="cls-1" d="M26.78,7.27c-.19.68-.61,1.6-1.07,2.14s-.41.24-.85.28c-.16.02-.27.16-.57.15-.08,0-.3-.16-.32-.19-.08-.24.11-.64-.2-.58v1.58c0,.06-.64.85-.71.87-.68.24-.67-.52-.84-.99-.24-.21-1.61.76-1.62-.48,0-1.04,1.1-1.06,1.62-1.54s.38-.66,1.17-1.09c.1-.06.22-.24.44-.29.68-.14.85.3,1.35.32.27.01.4-.15.6-.17.32-.04.66.02.98,0Z"/>
  </g>
</svg>