<?xml version="1.0" encoding="UTF-8"?>
<svg id="Layer_1" data-name="Layer 1" xmlns="http://www.w3.org/2000/svg" viewBox="0 0 403 111">
  <defs>
    <style>
      .cls-1 {
        fill: #ef4a39;
      }

      .cls-2 {
        fill: #636565;
      }
    </style>
  </defs>
  <g id="yblt6E">
    <g>
      <path d="M103.36,73.98c-3.64,9.64-10.43,17.44-18.23,24.17-5.01,4.33-11.6,5.73-18,7.18-10.12,2.29-15.86,1.94-25.77-1.04-3.03-.91-4.04-1.97-6.59-3.25-2.1-1.05-12.28-5.17-12.47-7.25.25-1.78,2.02-2.42,3.06-3.6,1.51-1.72,2.34-4.05,2.19-6.34,4.69-1.16,12.14-2.34,14-7.56.73-2.04.07-2.5.12-4.19.07-2.21,3.03-2.06,4.81-2.74,4.38-1.68,7.13-5.95,5.4-10.63-.38-1.04-1.38-1.67-.88-3.09.09-.26,3.83-1.84,4.75-2.78,3.34-3.41,1.83-9.5-1.6-12.32-.83-.68-3.03-1.39-3.2-2.32-.39-2.14,2.34-2.81.36-6.42-.44-.8-1.47-1.17-1.18-2.19,1.38-2.06,2.73-4.2,4.59-5.86,2.7-2.42,16.48-11.81,19.45-12.68,1.88-.55,6.72-.48,8.41.39,1.33.68,1.76,4.54,1.66,5.92-.35,5.12-3.39,8.13-5.91,12.03-1.15,1.78.53,1.72,1.87.71,3.22-2.42,3.78-7.14,8.16-8.63,3.23-1.1,6.4-.94,8.29,2.3,1.24,2.13.91,3.53.33,5.6-1.08.07-2.25-.11-3.31.02-.69.08-1.12.62-2.04.59-1.68-.07-2.26-1.57-4.56-1.1-.75.15-1.13.79-1.48.98-2.69,1.47-2.2,2.05-3.96,3.7s-5.51,1.7-5.49,5.22c.03,4.2,4.65.92,5.47,1.62.6,1.59.54,4.16,2.85,3.35.23-.08,2.39-2.76,2.39-2.95v-5.35c1.03-.21.41,1.15.67,1.95.04.11.79.64,1.07.65.95,1.95.19,3.21,0,5.21-.06.6.1,1.24-.04,1.84l-.43.44c-1.42-.07-4.72.47-5.74-.55-.44-.43-.52-1.71-1.45-1.72-1.78.46-2.75,1.64-4.45,2.21-1.53.51-3.05.85-4.67.68-.17-.89.3-.43.68-.61,1.33-.6,2.18-.7,2.8-2.12-.21-1.42-1.55-1.45-1.7-1.67-.3-.46.3-1.47-1.17-1.43l-.08-2.23c-.88-.49-1.92-.36-2.72.24-.06.05-1.1,1.09-1.13,1.16-.25.5-.04,1.06-.22,1.39-.39.73-2.65.25-2.26,2.79,1.6.59,2.83.09,3.23-1.53l1.12-.04c-.35,1.54-1.37,2.35-.58,4.05h-2.03c-.49,1.94,1.49,2.07.54,3.87-1,1.91-1.57.5-2.49.25-3.05-.82-3.86,1.21-3.86,3.84,0,2.62.39,3.73,2.82,4.71.87-.44,2.01-.32,2.78-.52.61-.16,1.94-2.88,2.8-2.29l.86,1.87c-.96.16-1.93,2.39-.69,2.17.27-.05,1.85-1.26,1.88-1.37.24-.87-.1-2.36-.29-3.27,3.32-.67,4.94,1.5,4.36,4.6,3.54,1.56,2.58-3.33,3.44-4.18.77-.76,6.78-2.22,7.99-2.19,1.81.05,1.22,2.59,1.29,3.88-1.01,1.19-2.56.63-3.88.81-2.47.34-1.41,1.68-2.38,3.09-1.02,1.47-3.62.7-5.11,1s-1.58,1.59-3.32.6c-.33-.19-.33-.58-.57-.65-1.14-.33-3.53-.12-4.51-.64-.43-.23-.83-1.59-1.28-1.68-.83-.16-1.49.27-2.22.25-1-.02-2.03-.74-3.2-.86-1.79-.17-3.61.29-5.38.44-.8,1.4-2,2.52-2.85,3.87-.78,1.25-3.21,5.6-3.13,6.81.09,1.27.98,5.44,1.54,6.52,2.13,4.16,6.48,2.06,9.42,3.24.69.28,1.71,2.93,3.11,2.9-.73,1.49-.38,2.94-.59,4.42-.38,2.65-2.08,8.2-1.02,10.5.08.17.85.61,1.04.9,1.06,1.58.74,2.88,3.34,2.69.43-.03,3.33-1.05,3.53-1.27s.28-.9.57-1.29c.55-.76,2.91-4.27,3.3-4.51.89-.54,2.18-.79,3.2-1.45,5.33-3.45,3.49-9.56,6.04-14.22.36-.65,1.53-2.22,2.14-2.63,1.39-.92,4.14-1.35,3.94-3.59-1.58.46-1.57-.43-2.04-.7-1.93-1.1-2.48-1.54-3.67-3.58l-1.53-3.54c3.86,1.51,3.07,5.81,7.7,6.33.72.08,1.52.1,2.23-.03.82-.15.69-.68,1.14-.88,1.18-.55,2.94-.02,2.54-2.08-.14-.72-.99-.89-1.45-1.45-.62-.74-.98-1.84-1.58-2.47s-2.36-.96-1.62-1.84c.11-.13,3.01-1,3.37-1.01.52-.02,2.45.56,2.8.84.32.26,1.44,5.5,2.51,6,.09,1.9-1.39,6.57,2.04,5.58ZM85.7,90.19c-1.38-.67-1.41.26-1.95.57-.59.34-1.36.47-1.82,1.01-.25.3-.32.81-.57,1.17-.63.89-1.34.76-1.18,2.32.13,1.27.79,1.22,1.84.71.15-.07,2.35-2.24,2.45-2.39.36-.57.67-2.66,1.24-3.39Z"/>
      <path class="cls-1" d="M102.49,34.04c.22.03.45-.06.57.21,2.56,5.99.67,11.61-2.32,16.94-.11.19-.46.24-.65.58-.62,1.13-1.78,2.87-.32,3.67,3.09-1.77,1.86-8.25,6.88-7.47,1.26,1.11.85,2.79,1.07,4.14.11.67.49,1.11.58,2.02.6,5.82-2.88,14.4-4.94,19.84-3.43.98-1.95-3.69-2.04-5.58-1.07-.5-2.19-5.74-2.51-6-.35-.28-2.29-.85-2.8-.84-.36.01-3.26.88-3.37,1.01-.74.87,1.01,1.19,1.62,1.84s.96,1.73,1.58,2.47c.47.56,1.31.73,1.45,1.45.4,2.06-1.36,1.54-2.54,2.08-.45.21-.31.73-1.14.88-.71.13-1.51.12-2.23.03-4.62-.53-3.84-4.82-7.7-6.33l1.53,3.54c1.18,2.04,1.74,2.48,3.67,3.58.47.27.46,1.16,2.04.7.2,2.24-2.55,2.67-3.94,3.59-.61.4-1.78,1.97-2.14,2.63-2.54,4.66-.71,10.78-6.04,14.22-1.02.66-2.31.91-3.2,1.45-.39.24-2.75,3.75-3.3,4.51-.29.4-.37,1.09-.57,1.29s-3.1,1.24-3.53,1.27c-2.6.19-2.28-1.11-3.34-2.69-.19-.29-.96-.72-1.04-.9-1.06-2.31.64-7.85,1.02-10.5.21-1.48-.14-2.92.59-4.42-1.4.03-2.42-2.62-3.11-2.9-2.94-1.18-7.29.92-9.42-3.24-.56-1.09-1.45-5.25-1.54-6.52-.08-1.21,2.35-5.56,3.13-6.81.85-1.35,2.05-2.48,2.85-3.87,1.77-.15,3.59-.61,5.38-.44,1.16.11,2.19.83,3.2.86.73.02,1.39-.42,2.22-.25.45.09.85,1.45,1.28,1.68.98.52,3.38.32,4.51.64.24.07.25.46.57.65,1.74,1,1.92-.31,3.32-.6,1.48-.3,4.09.46,5.11-1,.97-1.4-.09-2.75,2.38-3.09,1.32-.18,2.88.38,3.88-.81-.06-1.29.52-3.83-1.29-3.88-1.22-.03-7.22,1.43-7.99,2.19-.86.85.1,5.74-3.44,4.18.58-3.1-1.04-5.27-4.36-4.6.19.91.53,2.4.29,3.27-.03.11-1.62,1.32-1.88,1.37-1.24.22-.27-2.01.69-2.17l-.86-1.87c-.86-.59-2.19,2.13-2.8,2.29-.77.2-1.91.08-2.78.52-2.43-.97-2.83-2.09-2.82-4.71,0-2.62.82-4.65,3.86-3.84.92.25,1.49,1.66,2.49-.25.95-1.8-1.03-1.93-.54-3.87h2.03c-.79-1.7.23-2.51.58-4.05l-1.12.04c-.39,1.62-1.63,2.12-3.23,1.53-.39-2.54,1.86-2.07,2.26-2.79.18-.32-.04-.89.22-1.39.04-.07,1.07-1.11,1.13-1.16.8-.6,1.84-.73,2.72-.24l.08,2.23c1.47-.04.87.97,1.17,1.43.14.22,1.49.25,1.7,1.67-.63,1.43-1.47,1.52-2.8,2.12-.39.17-.85-.28-.68.61,1.63.17,3.14-.16,4.67-.68,1.7-.57,2.67-1.75,4.45-2.21.93.01,1.01,1.29,1.45,1.72,1.02,1.01,4.32.47,5.74.55l.43-.44c.14-.6-.02-1.24.04-1.84,1.63.74,3.2-1.1,4.05-2.32.89-.41,1.31-.6,2.32-.58.89.01,3.2.54,3.76-.73.2-.45-.79-.77-1.1-.92-.84-.41-1.75-.75-2.66-.96.52-1.53,1.29-2.39,2.6-3.18.19-.11.15-.52.72-.6.93-.12,3.25-.1,4.2.02Z"/>
      <path d="M156.85,53.96c-.24.38-7.42,1.06-8.02-.42l.55-15.6-.74-5.92c-.18,0-1.09,2.95-1.22,3.41-1.38,5.05-2.52,12.13-4.34,16.79-1.35,3.46-5.86,2.97-8.15.75l-5.68-20.66c-.13,4.56-.32,9.2-.16,13.76.08,2.44,1.16,4.82.03,7.24-1.19,2.56-4.79.28-6.97.87l-.57-32.3,11.51.07,5.71,21.93c.61-.69,1-1.6,1.29-2.48,1.78-5.49,3.11-12.33,4.52-18.06.14-.57.09-1.14.17-1.71,1.07-.7,1.92.18,3,.25,2.86.18,5.71-.26,8.56-.16.87.61.54,16.22.55,18.55,0,3.44-.01,6.92,0,10.42,0,1.05.41,2.1-.04,3.26Z"/>
      <path d="M203.5,43.01c.04,1.88-.05,3.77-.01,5.66.03,1.41,1.18,5.21-1.01,5.63-1.09.21-5.6.06-6.59-.35-.74-.3-.74-1.14-.8-1.8-.65-7.16.74-15.09-.29-22.3l.43-7.4c.21-.3.56-.25.87-.29,4.37-.53,16.98-.18,21.06,1.25,6.11,2.14,7.21,11.67,2.8,15.95-.6.58-3.01,1.81-3.1,1.96-.12.21-.08.42-.05.64.08.57,2.1,4.17,2.55,5,.83,1.54,2.83,4.19,3.36,5.61.18.49.2.92.16,1.43h-8.54c-.14,0-.61-.33-.74-.5l-5.49-10.5h-4.63ZM203.5,28.97v7.24l.43.43h6.95c.61,0,2.48-1.14,2.81-1.82,1.41-2.84.06-5.87-3.13-6.25-1.21-.14-4.28-.34-5.44-.3-.38.01-1.51.37-1.62.7Z"/>
      <path d="M292.07,97.43c-1.61-3.07-2.83-6.41-4.69-9.35-1.59-2.52-2.37-1.49-5.15-1.65.05,2.07-.05,4.16-.01,6.24.03,1.59,1.23,4.73-1.28,5.07-.86.12-6.34-.08-6.69-.57-.47-2.84-.46-5.69-.43-8.57,0-.76.31-1.46.32-2.29.05-6.9-.48-13.66.03-20.52l.23-.35c5.86-.12,12.22-.46,18.02.54,3.44.59,6.14,1.89,7.4,5.33,1.55,4.25.83,9.76-2.85,12.65-.59.46-1.99.67-2.01,1.45l6.03,11.07c.23.31-.19.95-.38.95h-8.54ZM289.46,71.96c-.3-.19-6.08,0-7.09,0-.83,0-.15,2.22-.13,2.74.06,1.78-.07,3.58-.01,5.37h7.09c3.22,0,4.28-5.99,1.51-7.31-.41-.2-.89-.11-1.3-.31-.14-.06-.05-.48-.07-.49Z"/>
      <path d="M274.99,22.46l8.12.13c.53.37.21,5.08.26,6.11.28,6.48-.08,12.87,0,19.39.02,1.9.67,3.84-.04,5.87-.34.53-7.99.51-8.3.01l.25-12.98h-11.58c.07,2.16-.1,4.35,0,6.51.08,1.81,1.18,4.92-.14,6.52-.5.6-6.51.24-7.69.15l-.23-.35-.05-31.36h7.67c.95,1.29.36,3.61.42,5.05.08,1.88.56,3.96.3,5.95l11-.29v-10.71Z"/>
      <path d="M215.37,97.43v-31.84c4.44-.22,9.31-.59,13.75-.28,8.48.58,12.71,5.19,13.71,13.49,1.42,11.72-3.72,18.04-15.44,18.64-3.96.21-8.05-.18-12.03-.01ZM227.96,72.82c-1.29-.2-2.99.15-4.34,0l-.43.43v17.51c3.73-.1,8.74.14,10.54-3.79,1.75-3.82,1.51-10.56-2.46-12.83-.47-.27-2.87-1.26-3.3-1.33Z"/>
      <path d="M152.08,68.87c3.66-3.85,11.56-5.29,16.48-3.51,3.37,1.22,5.8,2.95,7.5,6.11,2.78,5.16,3.49,11.08,1.54,16.69-4.6,13.18-21.87,13.45-28.26,1.94-3.24-5.84-1.87-16.35,2.75-21.22ZM159.97,72.41c-5.68,3.18-5.95,15.87.41,17.92,1.71.55,5.4.77,6.78-.45,3.67-3.26,4.11-9.67,2.13-13.95-.86-1.85-4.29-4.55-6.37-4.48-1.14.04-2.1.49-2.94.96Z"/>
      <path d="M390.67,73.01c-.82.7-2.7,2.39-3.75,2.14-2-2.77-6.89-5.68-10.02-3.03-1.88,1.59-1.86,3.12.57,4.02,4.45,1.66,11.75.59,14.59,5.39,3.17,5.36.21,13.7-5.85,15.52-6.8,2.04-13.73,1.11-19.15-3.55-.68-.59-1.85-2.14-1.12-2.98.05-.06.81-.18,1.16-.43,1.4-.97,2.53-2.26,4.2-2.74,3.45,2.45,7.62,4.84,11.93,2.95,1.99-.87,3.12-2.9.81-4.22-4.97-2.84-15.35-.56-16.38-8.51-1.23-9.41,5.48-14.22,14.31-13.44,2.35.21,9.35,3.03,10.69,4.94,1.5,2.13-.42,2.28-1.45,3.18-.23.2-.32.59-.52.76Z"/>
      <path d="M146.12,71.31c-.22.22-.77.26-1.06.52-.81.7-3.14,3.15-3.95,3.32-1.27.27-.92-.52-1.55-1.02-1.81-1.44-3.83-3-6.26-3.04-3-.04-6.75,3.6-2.73,5.07,5.82,2.13,15.31.21,15.92,9.26.49,7.2-3.19,11.17-10.07,12.23-6.46,1-10.69-.02-15.84-3.98-.82-.63-2.22-2.11-1.23-3.11,1.62-.59,3.45-2.8,5.11-3.12.94-.18,2.49,1.56,3.24,2,2.3,1.34,4.96,1.86,7.56,1.26,2.99-.69,5.25-3.07,1.48-4.81-6.7-3.11-16.67-.17-16.02-11.47.68-11.85,14.92-12.18,22.95-7.04,1,.64,3.76,2.6,2.44,3.93Z"/>
      <path d="M312.04,54.01c-1.7.94-2.92.29-4.47.28-6.7-.04-13.41.07-20.11,0l-.31-31.82c3.71-.06,7.44.08,11.16.01,3.34-.06,6.8-.28,10.12-.33,1.48-.02,2.01.12,2.17,1.61.18,1.72-.05,3.65-.3,5.34h-15.04s.29,4.94.29,4.94h13.46c.28.18.38.4.44.72.16.93.41,4.35.22,5.15-.08.35-.23.69-.51.93l-13.61.14v6.37h15.49c.47-.1,1.01,1.02,1.01,1.3v5.35Z"/>
      <path d="M348.51,72.54v4.49c1.41,1.35,3.23.43,4.76.42,1.45,0,2.84.29,4.08.31,1.92.03,4.7-1.51,5.06,1.57.1.89.25,4.76-.78,5.04l-12.83.03v6.37l15.29.05c.04.21.34.57.34.68v5.79c-1.82,1.09-4.53.13-6.5.13-1.33,0-2.64.32-3.77.31-4.51-.01-8.95-.17-13.44-.33l-.32-31.81,21.44-.16c2.15.1,1.88,6.26.41,6.53l-13.75.58Z"/>
      <path class="cls-1" d="M8.81,47.83c-.42-.43-1.19-1.73-1.27-2.35-.7-5.48,1.21-8.47,6.6-9.64,7.46-1.61,16.55,1.25,23.68,3.67,3.14,1.06,13.87,4.74,15.3,7.27,1.77,3.13-.03,5.55-3.31,6.19-1.33.26-1.89-.35-2.76-.41-4.28-.32-8.51-.65-12.73-1.16-3.6-.44-7.76-1.37-11.27-1.75-4.37-.47-10.94,1.58-14.24-1.83Z"/>
      <path d="M180.3,22.51l11.79,31.52c-.49.63-7.16.78-8.07.51-1.2-.36-1.18-3.91-2.22-4.72-.51-.26-8.6-.27-9.72-.16-2.41.24-1.9,3.64-3.38,5.03-.97.4-7.22.34-7.71-.43-.16-1.69.57-3.44,1.11-5.03,1.72-5.07,3.99-10.01,5.8-15.04,1.07-2.97,1.67-6.24,2.95-9.2,1.49-3.45,1.61-2.4,4.71-2.5,1.57-.05,3.02-.5,4.73.02ZM173.11,43.3h6.66l-2.62-9.97-1-2.19-3.04,12.16Z"/>
      <path d="M271.81,97.14h-7.67c-1.04,0-1.61-4.21-2.39-4.63-1.89-.68-3.8.04-5.73.01-.92-.01-4.03-.74-4.5-.12-.62.81-1.53,4.58-2.18,4.99-1.18.74-5.93-.39-7.63.05-.37-.37.77-4.2,1-4.93,1.52-4.8,3.74-9.57,5.37-14.31,1.17-3.4,1.93-8.22,3.5-11.26.27-.52.74-1.4,1.33-1.57.34-.1,2.94-.32,3.44-.32.44,0,3.5.24,3.68.31.62.21,2.1,3.71,2.42,4.53,2.48,6.23,4.13,13.17,6.52,19.53.95,2.52,2.64,5.06,2.83,7.74ZM259.94,86.14l-3.33-11.86-3.04,11.57,6.37.29Z"/>
      <path d="M244.51,30.08c-.43-.36-2.22-1.29-2.79-1.41-11.05-2.37-11.57,16.36-4.99,18.89,1.36.52,6.51.75,7.51-.28.21-.22.2-.69.37-.86.35-.36.8-.66,1.14-1.03.59-.66.73-1.87,1.87-1.8,1.12.06,4.18,3.18,5.96,2.9-2.47,6.74-9.09,9.51-15.99,8.32-12.01-2.08-16.85-14.76-11.56-25.3,3.24-6.46,12.26-9.92,19.02-7.63,3.78,1.28,7.05,4.45,8.23,8.25l-6.23,2.76c-.76-.01-1.91-2.27-2.54-2.8Z"/>
      <path class="cls-1" d="M47.4,59.02c1.42,1.75,2.06,5.65-.33,6.88-2.86.39-6.11.99-8.97,1.15-6.49.36-12.85-1.52-19.4-1.17-2.76.15-8.47,1.91-10.4-.61-1.19-1.55-2.61-7.1-1.63-8.82.68-1.19,4.67-2.49,6.02-2.67,2.44-.32,5.26.06,7.76-.06,2.09-.1,4.68-.03,7.06.1,2.87.16,4.03.54,6.55,1.03,3.96.77,10.61.78,13.35,4.16Z"/>
      <path d="M330.32,72l.21,24.95c-.3.9-1.45.27-2.08.29-2.02.09-4.04.3-6.08.19-.73-.18-.16-3.39-.18-4.22-.02-.82-.3-1.53-.31-2.29-.15-6.35.17-12.72-.03-19.07-.31-.95-2.41-.2-3.27-.17-.93.03-3.82.17-4.38-.28-.93-.73-.13-3.13-.09-4.22.05-1.28-1.02-2.27.68-2.47,5.74-.7,12.21.28,17.96.33,1.43.01,3.29-.67,4.88-.27l.43.44c.2.63.44,5.87.21,6.2-.41.58-3.37-.05-4.36-.02-.47.01-3.48.45-3.58.62Z"/>
      <path class="cls-1" d="M38.13,70.63c1.23.9,1.87,3.52,1.2,4.88-.84,1.68-3.93,1.94-5.49,2.55-.23.09-.23.43-.46.52-3.35,1.29-6.89,2.5-10.48,2.93,2.69,1.63,1.2,4.84-.06,7.03-.57.99-2.02,3.59-3.29,2.54-2.86-3.34-9.1-9.97-8.79-14.59.14-2.08,2.68-4.78,4.5-5.65,3.82-1.83,16.14-2.57,20.21-1.47.73.2,2.06.82,2.66,1.26Z"/>
      <path class="cls-1" d="M38.35,36.81c-4.71-2.12-9.79-3.78-15.06-4.47-2.05-.27-4.14-.26-6.2-.46-2.46-4.64.45-12.38,6.01-12.83,4.53-.37,12.86,5.47,16.55,8.21,1.85,1.37,7.94,6.15,8.35,8.14.39,1.9-.74,4.53-2.96,4.45-1.26-.05-5.19-2.37-6.7-3.04Z"/>
      <path d="M201.19,96.99c-.03.16-.29.45-.34.68l-19.06-.1c-.48-.27-.53-.65-.59-1.14-.2-1.51.35-4.24.31-6.1-.04-2.05-.55-4.56-.6-6.63-.15-5.95-.02-11.91.59-17.82,1.49.45,6.99-1.12,7.67.29,0,5.01-.3,10.14-.16,15.21.02.68.29,1.32.31,2,.09,2.36-.3,4.78.31,7.07l11.06.02c.19.06.49.65.49.73,0,1.64.25,4.33,0,5.79Z"/>
      <path class="cls-1" d="M327.15,53.37l-.06-22.8c1.16.3,2.01-.47,3.03-.59,2.72-.31,7.57.21,10.3.72,8.73,1.64,10.08,16.61,2.86,21.12-2.82,1.76-4.96,1.08-7.93,1.33-2.63.22-5.54,1.23-8.19.22ZM332.88,48.51c2.25.18,5.83.24,7.36-1.75,1.75-2.27,1.84-7.21-.13-9.39-1.58-1.74-5.2-2.57-7.23-1.45v12.59Z"/>
      <path class="cls-1" d="M388.68,33.51v.76s-4.15,3.23-4.15,3.23c-.75-.44-1.09-1.03-1.89-1.56-.61-.4-2.06-1.2-2.74-1.31-1.59-.26-5.14.42-4.04,2.59.54,1.08,7.96,1.75,9.48,2.39,5.44,2.72,4.07,11.37-1.3,13.3-3.37,1.21-8.95,1.25-12.16-.42-.32-.16-3.3-2.27-3.41-2.45-.34-.55-.4-1.17,0-1.7.26-.36,2.92-2.07,3.37-2.15,1.3-.22,3.47,2.07,5.47,2.32,1.13.14,4.38-.05,5.05-1.04,1.1-1.61-.11-2.08-1.43-2.58-2.55-.96-5.03-.77-7.39-1.58-4-1.39-4.88-5.08-3.62-8.85,1.34-4.03,6.43-5.42,10.29-5.05,2.95.29,6.37,2.1,8.47,4.1Z"/>
      <path class="cls-1" d="M38.13,22.85c-3.21-3.12-6.53-6.94-4.29-11.87,2.13-4.69,6.48-2.83,10.09-1.3,3.27,1.39,7.28,3.49,10.42,5.21.73.4,3.34,1.71,3.51,2.28.83,2.68-3.26,3.76-5.02,5.29-2.25,1.96-3.67,4.64-5.55,6.92-.64.19-1.66-.49-2.24-.85-2.42-1.46-4.92-3.74-6.91-5.68Z"/>
      <path class="cls-1" d="M356.04,48.8c.68.68,8.92-.01,10.56.29.33.06.59.1.68.48-.07.85.45,3.83-.43,4.12-2.14-.2-15.99.52-16.75-.24-.41-.4-.45-1.33-.45-1.89.02-5.52.49-11.2.33-16.8-.02-.82-.66-2.74-.03-3.19l15.94-.27c1.28.63.08,3.37.29,4.49-3.54.38-7.3-.48-10.73.48l.29,3.15c.32-.09.61-.05.88.04.44.14,1.44.11,1.9.12.74,0,2.33-.12,3.74-.06.53.02,3.33-.68,3.33.48v4.2l-9.55.29v4.34Z"/>
      <path d="M304.23,97.14c-.7-2.3-.63-4.71-.59-7.1.1-5.95.43-11.95.31-17.95-.03-1.52-1.02-5.8.4-6.81.62-.44,6.74-.44,7.29,0,.25.2.34.46.4.76.33,1.75-.02,5.24,0,7.24.06,5.99-.11,12.16,0,18.23.03,1.78.98,4.02-.42,5.63h-7.38Z"/>
      <path d="M211.61,97.43h-7.38l-.14-32.13h7.09c.85,1.4.33,3.65.42,5.37.35,6.72-.17,13.01,0,19.68.06,2.41.99,4.59.01,7.08Z"/>
      <path class="cls-2" d="M96.99,29.41c-.64,2.29-2.06,5.42-3.61,7.24-1.47,1.73-1.4.8-2.86.94-.55.05-.92.54-1.92.5-.28-.01-1.03-.54-1.07-.65-.26-.8.36-2.16-.67-1.95v5.35c0,.19-2.16,2.87-2.39,2.95-2.32.82-2.25-1.75-2.85-3.35-.81-.7-5.44,2.57-5.47-1.62-.03-3.53,3.73-3.58,5.49-5.22s1.27-2.24,3.96-3.7c.35-.19.73-.82,1.48-.98,2.29-.47,2.88,1.02,4.56,1.1.92.04,1.35-.5,2.04-.59,1.07-.13,2.23.05,3.31-.02Z"/>
      <path d="M65.37,5.16c.3.31.63,2.4.65,2.96.12,2.28-.47,4.98-1.92,6.79-2.23,2.79-3.02,1.09-5.13-.03-1.98-1.05-8.16-3.33-8.83-5.36-.57-1.73,2.52-2.86,3.86-3.25,2.02-.58,6.81-1.29,8.96-1.46.59-.05,1.98-.06,2.39.36Z"/>
      <path d="M358.24,59.4c-.92.94-1.6,1.9-2.3,2.63-.23.24-2.13,1.82-2.3,1.89-1.36.55-3.03-.11-4.44.49-1.2-.25-.61-1.25-.27-2.02.29-.66,3.3-5.48,3.63-5.63,1.28-.04,2.63-.39,3.89-.45.7-.03,4.31-.29,4.08.6-.56,1-1.51,1.67-2.3,2.48Z"/>
      <path d="M102.49,34.04c-.95-.11-3.27-.13-4.2-.02-.57.07-.53.48-.72.6.36-2.36,4.64-3.61,4.92-.58Z"/>
      <path d="M92.65,40.99c.44-.63,1.37-3.7,2.74-3.08l3.2,1.1.15,1.29c-1.36.37-5.21.27-6.1.69Z"/>
      <path class="cls-1" d="M85.7,90.19c-.57.74-.87,2.82-1.24,3.39-.09.14-2.29,2.31-2.45,2.39-1.05.5-1.71.55-1.84-.71-.16-1.56.55-1.43,1.18-2.32.25-.36.32-.87.57-1.17.46-.55,1.23-.67,1.82-1.01.54-.31.58-1.24,1.95-.57Z"/>
    </g>
  </g>
  <g id="yblt6E-2" data-name="yblt6E">
    <path class="cls-1" d="M96.99,29.41c-.64,2.29-2.06,5.42-3.61,7.24-1.47,1.73-1.4.8-2.86.94-.55.05-.92.54-1.92.5-.28-.01-1.03-.54-1.07-.65-.26-.8.36-2.16-.67-1.95v5.35c0,.19-2.16,2.87-2.39,2.95-2.32.82-2.25-1.75-2.85-3.35-.81-.7-5.44,2.57-5.47-1.62-.03-3.53,3.73-3.58,5.49-5.22s1.27-2.24,3.96-3.7c.35-.19.73-.82,1.48-.98,2.29-.47,2.88,1.02,4.56,1.1.92.04,1.35-.5,2.04-.59,1.07-.13,2.23.05,3.31-.02Z"/>
  </g>
</svg>