<?xml version="1.0" encoding="UTF-8"?>
<svg id="Calque_1" xmlns="http://www.w3.org/2000/svg" version="1.1" viewBox="0 0 421.72 234.08">
  <!-- Generator: Adobe Illustrator 29.0.1, SVG Export Plug-In . SVG Version: 2.1.0 Build 192)  -->
  <defs>
    <style>
      .st0 {
        fill: #231f20;
      }

      .st1 {
        fill: #fff;
      }
    </style>
  </defs>
  <g>
    <g>
      <path d="M37.03,13.56v49.38c0,3.78,1.15,5.8,4,5.8,3.01,0,3.94-2.3,3.94-5.8V13.56h12.62v48.58c0,11.5-5.28,17.18-16.76,17.18s-16.36-5.49-16.36-17.28V13.56h12.56Z"/>
      <path d="M65.02,78.41V13.56h13.8c2.06,7.91,8.56,37.29,9.07,40.13h.3c-.69-8.63-1.13-20.43-1.13-29.48v-10.66h11.58v64.85h-13.93c-1.35-6.17-8.43-39.73-8.85-41.8h-.34c.49,7.63.87,20.53.87,30.72v11.08h-11.37Z"/>
      <path d="M132.22,49.76h-13.37v17.68h15.67l-1.5,10.97h-26.66V13.56h26.57v11.03h-14.08v14.21h13.37v10.97Z"/>
      <path d="M167.53,62.33c0,9.79-1.23,16.92-13.86,16.92-1.87,0-4.21-.19-5.62-.42v-10.36c.67.06,1.72.16,2.81.16,3.26,0,4.18-1.08,4.18-4.94V13.56h12.49v48.77Z"/>
      <path d="M207.79,30.91v30.08c0,12.87-6.06,18.39-17.39,18.39s-16.29-5.65-16.29-18.26v-30.55c0-12.52,6.88-17.99,16.87-17.99s16.82,5.37,16.82,18.32ZM186.72,29.5v33.15c0,4.01,1.37,6.09,4.16,6.09s4.22-1.89,4.22-6.16V29.41c0-4.05-1.12-6.12-4.26-6.12-2.66,0-4.13,1.92-4.13,6.22Z"/>
      <path d="M226.72,13.56v49.38c0,3.78,1.15,5.8,4,5.8,3.01,0,3.94-2.3,3.94-5.8V13.56h12.62v48.58c0,11.5-5.28,17.18-16.76,17.18s-16.36-5.49-16.36-17.28V13.56h12.56Z"/>
      <path d="M267.17,50.22v28.19h-12.46V13.56h16.18c10.87,0,16.24,4.77,16.24,16.11v2.33c0,9.24-3.69,11.99-6.47,13.3,4.03,1.95,5.93,4.91,5.93,13.96,0,6.26-.1,15.73.45,19.14h-12.07c-.81-2.93-.75-11.37-.75-19.65,0-7.3-.84-8.54-5.58-8.54h-1.47ZM267.2,40.39h1.54c4.17,0,5.87-1.32,5.87-7.35v-3.13c0-4.35-.88-6.52-5.46-6.52h-1.95v17Z"/>
      <path d="M293.87,78.41V13.56h13.8c2.06,7.91,8.56,37.29,9.07,40.13h.3c-.69-8.63-1.13-20.43-1.13-29.48v-10.66h11.58v64.85h-13.93c-1.35-6.17-8.43-39.73-8.85-41.8h-.34c.49,7.63.87,20.53.87,30.72v11.08h-11.37Z"/>
      <path d="M361.06,49.76h-13.37v17.68h15.67l-1.5,10.97h-26.66V13.56h26.57v11.03h-14.08v14.21h13.37v10.97ZM366.22,0l-12.77,9.74h-10.99L351.58,0h14.64Z"/>
      <path d="M393.62,49.76h-13.37v17.68h15.67l-1.5,10.97h-26.66V13.56h26.57v11.03h-14.08v14.21h13.37v10.97Z"/>
      <path d="M36.64,157.46v5.08c0,4.83,1.2,7.07,4.42,7.07s4.01-3.32,4.01-6.78c0-6.92-1.3-8.93-8.79-15.2-8.26-7-12.51-11.15-12.51-21.95s3.47-20.14,17.37-20.14c14.75,0,16.93,10.06,16.93,18.46v4.22h-13.32v-4.39c0-4.45-.73-6.65-3.52-6.65-2.6,0-3.44,2.24-3.44,6.4,0,4.42.8,6.6,6.87,11.33,10.79,8.48,14.66,13.24,14.66,25.32s-3.92,20.95-18.5,20.95-17.99-8.44-17.99-19.31v-4.4h13.82Z"/>
      <path d="M80.74,162.61l-1.81,17.46h-14.39l10.37-73.36h21.04l10.62,73.36h-14.68l-2.02-17.46h-9.14ZM88.68,150.17c-1.04-9.39-2.5-23.67-3.19-30.69h-.56c-.25,5.11-1.99,21.62-2.97,30.69h6.71Z"/>
      <path d="M113.25,180.07v-73.36h15.61c2.33,8.95,9.68,42.18,10.26,45.4h.34c-.78-9.76-1.28-23.11-1.28-33.35v-12.05h13.1v73.36h-15.76c-1.52-6.98-9.54-44.94-10.01-47.29h-.38c.55,8.63.98,23.23.98,34.76v12.53h-12.86Z"/>
      <path d="M172.74,157.46v5.08c0,4.83,1.2,7.07,4.42,7.07s4.01-3.32,4.01-6.78c0-6.92-1.3-8.93-8.79-15.2-8.26-7-12.51-11.15-12.51-21.95s3.47-20.14,17.37-20.14c14.75,0,16.93,10.06,16.93,18.46v4.22h-13.32v-4.39c0-4.45-.73-6.65-3.52-6.65-2.6,0-3.44,2.24-3.44,6.4,0,4.42.8,6.6,6.87,11.33,10.79,8.48,14.66,13.24,14.66,25.32s-3.92,20.95-18.5,20.95-17.99-8.44-17.99-19.31v-4.4h13.82Z"/>
      <path d="M219.34,180.07v-73.36h15.61c2.33,8.95,9.68,42.18,10.26,45.4h.34c-.78-9.76-1.28-23.11-1.28-33.35v-12.05h13.1v73.36h-15.76c-1.52-6.98-9.54-44.94-10.01-47.29h-.38c.55,8.63.98,23.23.98,34.76v12.53h-12.86Z"/>
      <path d="M304.78,126.34v34.03c0,14.56-6.85,20.8-19.68,20.8s-18.43-6.4-18.43-20.66v-34.56c0-14.16,7.79-20.35,19.08-20.35s19.02,6.08,19.02,20.73ZM280.94,124.75v37.5c0,4.53,1.55,6.89,4.71,6.89s4.78-2.14,4.78-6.97v-37.54c0-4.58-1.27-6.93-4.82-6.93-3,0-4.67,2.17-4.67,7.04Z"/>
      <path d="M327.85,106.71v55.87c0,4.28,1.3,6.56,4.52,6.56,3.41,0,4.46-2.6,4.46-6.56v-55.87h14.28v54.95c0,13-5.97,19.43-18.96,19.43s-18.5-6.22-18.5-19.55v-54.84h14.21Z"/>
      <path d="M372.61,157.46v5.08c0,4.83,1.2,7.07,4.42,7.07s4.01-3.32,4.01-6.78c0-6.92-1.3-8.93-8.79-15.2-8.26-7-12.51-11.15-12.51-21.95s3.47-20.14,17.37-20.14c14.75,0,16.93,10.06,16.93,18.46v4.22h-13.32v-4.39c0-4.45-.73-6.65-3.52-6.65-2.6,0-3.44,2.24-3.44,6.4,0,4.42.8,6.6,6.87,11.33,10.79,8.48,14.66,13.24,14.66,25.32s-3.92,20.95-18.5,20.95-17.99-8.44-17.99-19.31v-4.4h13.82Z"/>
      <path d="M22.03,198.19h4.75c3.08,0,4.6,1.63,4.6,4.91v1.13c0,3.25-1.23,5.2-4.74,5.2h-1.04v7.29h-3.57v-18.53ZM25.6,206.55h.58c1.35,0,1.64-.76,1.64-2.3v-1.28c0-1.2-.28-1.97-1.47-1.97h-.75v5.55Z"/>
      <path d="M36.5,208.66v8.06h-3.56v-18.53h4.62c3.11,0,4.64,1.36,4.64,4.6v.67c0,2.64-1.05,3.43-1.85,3.8,1.15.56,1.69,1.4,1.69,3.99,0,1.79-.03,4.49.13,5.47h-3.45c-.23-.84-.21-3.25-.21-5.62,0-2.08-.24-2.44-1.6-2.44h-.42ZM36.51,205.86h.44c1.19,0,1.68-.38,1.68-2.1v-.9c0-1.24-.25-1.86-1.56-1.86h-.56v4.86Z"/>
      <path d="M51.51,208.53h-3.82v5.05h4.48l-.43,3.13h-7.62v-18.53h7.59v3.15h-4.02v4.06h3.82v3.13Z"/>
      <path d="M63.05,210.82c0-2.87.03-6.94.07-9.21h-.1c-.39,3.71-1.21,11.21-1.71,15.11h-3.02c-.41-4.05-1.21-11.7-1.6-15.16h-.11c.05,2.18.14,6.19.14,9.39v5.77h-3.23v-18.53h5.12c.48,3.52,1.03,8.15,1.24,10.66h.08c.29-2.68.9-6.58,1.47-10.66h5.1v18.53h-3.43v-5.9Z"/>
      <path d="M72.25,198.19v18.53h-3.56v-18.53h3.56Z"/>
      <path d="M77.58,194.22l2.59,2.78h-3.31l-3.64-2.78h4.36ZM81.85,208.53h-3.82v5.05h4.48l-.43,3.13h-7.62v-18.53h7.59v3.15h-4.02v4.06h3.82v3.13Z"/>
      <path d="M87.34,208.66v8.06h-3.56v-18.53h4.62c3.11,0,4.64,1.36,4.64,4.6v.67c0,2.64-1.05,3.43-1.85,3.8,1.15.56,1.69,1.4,1.69,3.99,0,1.79-.03,4.49.13,5.47h-3.45c-.23-.84-.21-3.25-.21-5.62,0-2.08-.24-2.44-1.6-2.44h-.42ZM87.35,205.86h.44c1.19,0,1.68-.38,1.68-2.1v-.9c0-1.24-.25-1.86-1.56-1.86h-.56v4.86Z"/>
      <path d="M102.34,208.53h-3.82v5.05h4.48l-.43,3.13h-7.62v-18.53h7.59v3.15h-4.02v4.06h3.82v3.13Z"/>
      <path d="M103.67,219.23c1.04-2.65,1.42-5.6,1.43-7h3.33c-.08,2.4-1.08,5.44-2.16,7h-2.6Z"/>
      <path d="M113.79,198.19h4.38c3.82,0,5.14,1.74,5.14,5.58v6.97c0,3.19-.68,5.99-4.89,5.99h-4.62v-18.53ZM117.36,213.85h.7c1.4,0,1.63-.91,1.63-2.36v-8.3c0-1.37-.31-2.11-1.66-2.11h-.67v12.77Z"/>
      <path d="M132.6,208.53h-3.82v5.05h4.48l-.43,3.13h-7.62v-18.53h7.59v3.15h-4.02v4.06h3.82v3.13Z"/>
      <path d="M138.06,198.19v14.11c0,1.08.33,1.66,1.14,1.66.86,0,1.12-.66,1.12-1.66v-14.11h3.61v13.88c0,3.29-1.51,4.91-4.79,4.91s-4.67-1.57-4.67-4.94v-13.85h3.59Z"/>
      <path d="M151.14,216.72c-.05-.66-1.23-5.58-1.28-6.37h-.1c-.03.6-1.33,5.82-1.37,6.37h-3.59l2.79-9.24-2.69-9.29h3.8c.03.42,1.11,5.39,1.13,5.88h.11c.04-.51,1.19-5.45,1.22-5.88h3.58l-2.69,8.69,2.9,9.84h-3.81Z"/>
      <path d="M159.56,198.19v18.53h-3.56v-18.53h3.56Z"/>
      <path d="M164.9,194.22l2.59,2.78h-3.31l-3.64-2.78h4.36ZM169.17,208.53h-3.82v5.05h4.48l-.43,3.13h-7.62v-18.53h7.59v3.15h-4.02v4.06h3.82v3.13Z"/>
      <path d="M180.72,210.82c0-2.87.03-6.94.07-9.21h-.1c-.39,3.71-1.21,11.21-1.71,15.11h-3.02c-.41-4.05-1.21-11.7-1.6-15.16h-.11c.05,2.18.14,6.19.14,9.39v5.77h-3.23v-18.53h5.12c.48,3.52,1.03,8.15,1.24,10.66h.08c.29-2.68.9-6.58,1.47-10.66h5.1v18.53h-3.43v-5.9Z"/>
      <path d="M193.71,208.53h-3.82v5.05h4.48l-.43,3.13h-7.62v-18.53h7.59v3.15h-4.02v4.06h3.82v3.13Z"/>
      <path d="M195.04,219.23c1.04-2.65,1.42-5.6,1.43-7h3.33c-.08,2.4-1.08,5.44-2.16,7h-2.6Z"/>
      <path d="M206.9,201.34h-2.7v-3.15h8.97v3.15h-2.72v15.38h-3.56v-15.38Z"/>
      <path d="M218,208.66v8.06h-3.56v-18.53h4.62c3.11,0,4.64,1.36,4.64,4.6v.67c0,2.64-1.05,3.43-1.85,3.8,1.15.56,1.69,1.4,1.69,3.99,0,1.79-.03,4.49.13,5.47h-3.45c-.23-.84-.21-3.25-.21-5.62,0-2.08-.24-2.44-1.6-2.44h-.42ZM218.01,205.86h.44c1.19,0,1.68-.38,1.68-2.1v-.9c0-1.24-.25-1.86-1.56-1.86h-.56v4.86Z"/>
      <path d="M234.93,203.15v8.6c0,3.68-1.73,5.25-4.97,5.25s-4.66-1.62-4.66-5.22v-8.73c0-3.58,1.97-5.14,4.82-5.14s4.8,1.54,4.8,5.24ZM228.91,202.75v9.47c0,1.15.39,1.74,1.19,1.74s1.21-.54,1.21-1.76v-9.48c0-1.16-.32-1.75-1.22-1.75-.76,0-1.18.55-1.18,1.78Z"/>
      <path d="M240.41,198.19v18.53h-3.56v-18.53h3.56Z"/>
      <path d="M245.43,211.01v1.28c0,1.22.3,1.78,1.12,1.78s1.01-.84,1.01-1.71c0-1.75-.33-2.26-2.22-3.84-2.09-1.77-3.16-2.81-3.16-5.54s.88-5.09,4.39-5.09c3.73,0,4.28,2.54,4.28,4.66v1.07h-3.37v-1.11c0-1.12-.18-1.68-.89-1.68-.66,0-.87.57-.87,1.62,0,1.12.2,1.67,1.74,2.86,2.73,2.14,3.7,3.34,3.7,6.4s-.99,5.29-4.67,5.29-4.54-2.13-4.54-4.88v-1.11h3.49Z"/>
      <path d="M256.3,198.19v18.53h-3.56v-18.53h3.56Z"/>
      <path d="M261.63,194.22l2.59,2.78h-3.31l-3.64-2.78h4.36ZM265.9,208.53h-3.82v5.05h4.48l-.43,3.13h-7.62v-18.53h7.59v3.15h-4.02v4.06h3.82v3.13Z"/>
      <path d="M277.45,210.82c0-2.87.03-6.94.07-9.21h-.1c-.39,3.71-1.21,11.21-1.71,15.11h-3.02c-.41-4.05-1.21-11.7-1.6-15.16h-.11c.05,2.18.14,6.19.14,9.39v5.77h-3.23v-18.53h5.12c.48,3.52,1.03,8.15,1.24,10.66h.08c.29-2.68.9-6.58,1.47-10.66h5.1v18.53h-3.43v-5.9Z"/>
      <path d="M290.45,208.53h-3.82v5.05h4.48l-.43,3.13h-7.62v-18.53h7.59v3.15h-4.02v4.06h3.82v3.13Z"/>
      <path d="M305.16,216.72h-2.68c-.08-.32-.14-.98-.17-1.37-.59,1.3-1.78,1.65-2.92,1.65-2.88,0-3.7-2.15-3.7-5.17v-8.72c0-2.84,1.18-5.19,4.71-5.19,4.27,0,4.7,3.1,4.7,4.97v.83h-3.59v-1.02c0-.9-.11-1.73-1.1-1.73-.82,0-1.12.6-1.12,1.8v9.5c0,1.26.41,1.72,1.12,1.72.87,0,1.16-.67,1.16-2.2v-2.66h-1.23v-3.01h4.8v10.59Z"/>
      <path d="M314.66,208.53h-3.82v5.05h4.48l-.43,3.13h-7.62v-18.53h7.59v3.15h-4.02v4.06h3.82v3.13ZM316.13,194.31l-3.65,2.78h-3.14l2.61-2.78h4.18Z"/>
      <path d="M316.59,216.72v-18.53h3.94c.59,2.26,2.45,10.65,2.59,11.47h.09c-.2-2.47-.32-5.84-.32-8.42v-3.04h3.31v18.53h-3.98c-.38-1.76-2.41-11.35-2.53-11.94h-.1c.14,2.18.25,5.87.25,8.78v3.17h-3.25Z"/>
      <path d="M335.79,208.53h-3.82v5.05h4.48l-.43,3.13h-7.62v-18.53h7.59v3.15h-4.02v4.06h3.82v3.13ZM337.26,194.31l-3.65,2.78h-3.14l2.61-2.78h4.18Z"/>
      <path d="M341.27,208.66v8.06h-3.56v-18.53h4.62c3.11,0,4.64,1.36,4.64,4.6v.67c0,2.64-1.05,3.43-1.85,3.8,1.15.56,1.69,1.4,1.69,3.99,0,1.79-.03,4.49.13,5.47h-3.45c-.23-.84-.21-3.25-.21-5.62,0-2.08-.24-2.44-1.6-2.44h-.42ZM341.28,205.86h.44c1.19,0,1.68-.38,1.68-2.1v-.9c0-1.24-.25-1.86-1.56-1.86h-.56v4.86Z"/>
      <path d="M352.16,212.31l-.46,4.41h-3.63l2.62-18.53h5.31l2.68,18.53h-3.71l-.51-4.41h-2.31ZM354.17,209.17c-.26-2.37-.63-5.98-.81-7.75h-.14c-.06,1.29-.5,5.46-.75,7.75h1.7Z"/>
      <path d="M360.69,201.34h-2.7v-3.15h8.97v3.15h-2.72v15.38h-3.56v-15.38Z"/>
      <path d="M371.8,198.19v18.53h-3.56v-18.53h3.56Z"/>
      <path d="M383.36,203.15v8.6c0,3.68-1.73,5.25-4.97,5.25s-4.66-1.62-4.66-5.22v-8.73c0-3.58,1.97-5.14,4.82-5.14s4.8,1.54,4.8,5.24ZM377.34,202.75v9.47c0,1.15.39,1.74,1.19,1.74s1.21-.54,1.21-1.76v-9.48c0-1.16-.32-1.75-1.22-1.75-.76,0-1.18.55-1.18,1.78Z"/>
      <path d="M385.27,216.72v-18.53h3.94c.59,2.26,2.45,10.65,2.59,11.47h.09c-.2-2.47-.32-5.84-.32-8.42v-3.04h3.31v18.53h-3.98c-.38-1.76-2.41-11.35-2.53-11.94h-.1c.14,2.18.25,5.87.25,8.78v3.17h-3.25Z"/>
      <path d="M395.84,219.23c1.04-2.65,1.42-5.6,1.43-7h3.33c-.08,2.4-1.08,5.44-2.16,7h-2.6Z"/>
    </g>
    <rect class="st0" x="21.1" y="221.88" width="377.96" height="2.01"/>
    <rect class="st0" x="21.1" y="189.38" width="377.96" height="2.01"/>
  </g>
  <g>
    <path class="st1" d="M343.76,69.25s.08-.02.1,0c.6.24.67.63.86,1.24.01.05.11.1.11.13.04.64.09,1.23.13,1.87,0,.04.11.09.11.13.01.23.11.58.11.76,0,.13-.09.32-.1.46.23-.08.28-.49.2-.6l.02-.07.23-.12c-.08.13.02.22.01.24-.08,1.02-.38,1.9-.9,2.82-.1.17-.2.4-.33.57-.07.1-.86.9-.92.92-1,.32-1.87,1.07-2.47,2h-.14s-.03.15-.03.15h-.14s-.03.15-.03.15h-.14s-.19.26-.19.26l.03.17c-.08.01-.17,0-.24.01-.12.03-.47.25-.62.31-.34.14-.7.25-1.03.33-.39.1-.77.21-1.17.34-.04.01-.08.11-.19.08-.08.17.03.27.05.38.17.69.24,1.45.33,2.2.15,1.12.53,2.22.64,3.3.1.93.08,1.82.07,2.77s.1,2.2-.38,3.28c-.08.18.04.3-.04.49-.24.2-.26.43-.35.64-.01.03-.06.04-.09.07-.02.02,0,.06-.02.07-.04.05-.22.16-.28.19-.08.03-.28.06-.36.09-.21.08-.45.16-.67.24-.04.02-.08.11-.19.08.01.1-.11.16-.11.18s.09.06.03.17c-.1-.03-.16.07-.19.08-.17.04-.38,0-.56.03-.03,0-.06.07-.09.07-.23.03-.46.01-.69.04l-.13-.17s.04-.11.03-.14c-.1-.39-.21-.79-.14-1.24-.26-.23-.23-.52-.5-.7-.18-.13-.05-.4-.04-.59,0-.03-.05-.04-.05-.07.02-.39.12-.8.13-1.19.01-.44.03-.89.02-1.32-.02-.62.02-1.25,0-1.88,0-.32-.12-.74-.11-1.04,0-.53,0-1.02,0-1.53-.01-.59,0-1.19.06-1.81.01-.13-.06-.16-.12-.24-.17.1-.13.19-.17.32-.31.88-.69,1.84-1.08,2.7-.15.33-.34.67-.5,1-1.35,2.93-2.17,6.07-3.51,9-.1.11-.17.23-.31.33-.02.01-.23.15-.24.15-.16.05-.28.11-.45.16-.04.01-.13.14-.17.15-.07.02-.49.04-.56.03-.02,0-.03-.05-.05-.07-.02,0-.06.01-.07,0-.04-.02-.12-.21-.12-.24,0-.13.09-.34.11-.49,0-.03-.06-.04-.05-.07.03-.2.1-.55.23-.71.05-.07.23-.18.26-.22.15-.31.21-1.08.33-1.48.04-.12.21-.44.26-.57.05-.12.14-.39-.07-.31-.01.1-.04.18-.1.28-.26.47-.54.92-.76,1.39-.4.89-.68,1.83-.95,2.76l-.23.43-.21.18-.45.16c-.22-.16-.07-.42-.02-.69-.12.04-.13-.06-.16-.06-.15-.03-.26.03-.38.16-.11-.07-.04-.16-.05-.24,0-.09-.21-.1-.23-.2,0-.14.12-.37.11-.49,0-.04-.11-.1-.11-.13-.04-.78,0-1.85.4-2.73.44-.95.77-1.99,1.26-2.91.08-.39.29-.78.46-1.14.2-.43.26-.69.6-1.14.19-.26.12-.19.23-.43.02-.04.15-.11.17-.15.09-.18.04-.31.19-.57.07-.12.12-.24.24-.33l.05.07c.21-.13.15-.35.22-.53.01-.03.07-.05.09-.07.35-.75.51-1.69.82-2.47.12-.31.21-.68.36-.99.09-.2.19-.44.28-.64.26-.57.53-1.15.79-1.71.35-.75.58-1.59.93-2.34.52-1.12.92-2.29,1.44-3.41.42-.9.72-1.88,1.16-2.77.12-.24.1-.33.19-.57.1-.26.09-.69.2-.91.02-.04.15-.11.17-.15.2-.4.26-.46.52-.79.4-.52.73-1.16,1.19-1.66.03-.04.2-.18.21-.18.24-.08.24.29.46.25-.02-.08.27-.35.32-.36.08-.02.19,0,.28-.01.62-.16,1.4-.6,2.1-.8.55-.16,1.2-.35,1.78-.3.02,0,.03.06.05.07.2.03.5,0,.68.03.05,0,.3.16.37.19.21.09.36.22.55.32.41.22,1.06.42,1.43.69.21.15.25.32-.02.56ZM335.71,69.19s-.06.07-.02.07.06-.07.02-.07ZM338.8,71.04c-.23.04-.69.19-.95.26-.09.03-.26-.02-.34.12-.02.04,0,.1-.03.14-.02.03-.07.05-.09.07-.19.49-.26,1.28-.4,1.83,0,.02-.08.05-.09.07-.33,1.17-.58,2.34-1.04,3.46-.18.44-.37.91-.57,1.35-.05.1-.1.18-.12.21-.06.12-.06.24.03.31l1.37-.9c1.28-.71,2.79-1.25,3.98-2.15.11-.09.48-.39.55-.48.01-.02,0-.05.02-.07.02-.03.07-.05.09-.07.05-.12.18-.7.19-.84,0-.03-.05-.04-.05-.07.02-.85,0-1.59-.37-2.34,0-.02,0-.04.02-.07l-.57-.7c-.49-.09-1.01-.23-1.62-.12ZM344.13,73.78l-.58,2.63c.22.03.13-.12.19-.25.08-.17.27-.43.35-.64.1-.27.26-.72.29-.99,0-.08-.04-.4-.03-.48.02-.21.22-.54-.09-.52.03.12-.12.23-.12.25ZM335.38,81.98h.17s.13-.12.13-.12l-.15-.1-.15.22ZM328.54,87.13l.38-.47c.08-.4.16-.8.39-1.13l.06-.59-.16.39c-.22.37-.45.98-.57,1.35-.05.15-.06.31-.1.46Z"/>
    <path class="st1" d="M359.24,68.45s.08-.02.1,0c.19.08.23.19.35.26.03.02.09-.02.1,0s-.03.07-.02.11c.03.08.17.18.22.27.04.08.26.63.26.68.01.17.02.31.03.48,0,.03.09.18.09.2,0,.38-.04.68.04,1.04.05.2.21.77.2.96,0,.12-.08.29-.09.42l.12.1.16-.7c.23-.03.14.13.15.24,0,.03.06.04.05.07-.01.24-.31,1.58-.4,1.83,0,.01-.07.12-.12.21-.2.45-.6,1.2-.97,1.58-.19.2-.34.29-.53.51-.14.17-.22.09-.34.12-.04.01-.12.12-.17.15-.49.26-.94.44-1.32.87-.22.25-.47.53-.66.8l-.77.66v.24c-.06.01-.16,0-.23.01-.2.05-1.24.62-1.31.62-.37-.16-.96.22-1.38.35-.15.05-.25-.02-.42.2l.25.75c.19.96.22,2.03.44,2.96.26,1.09.46,2.18.5,3.31.04,1.06.01,2.17-.04,3.27-.03.69-.32,1.33-.37,1.96-.23.27-.43.57-.47.89-.11-.02-.24.11-.34.16-.33.14-.72.21-1.03.33-.04.02-.08.11-.19.08l-.07.32-.13.11c-.18.02-.37,0-.56.03-.03,0-.06.07-.09.07-.27.03-.53.01-.8.04.08-.14-.08-.18-.08-.24,0-.16-.04-.3-.05-.41-.01-.3-.06-.58-.08-.9,0-.08-.29-.46-.29-.54,0-.05.03-.12.04-.18h-.28c0-.06.05-.16.05-.23,0-.02-.09-.18-.09-.2,0-.24.12-.54.12-.84-.01-.51.09-1.1.08-1.6,0-.33.02-.69.03-1.04,0-.02-.09-.18-.09-.2,0-.38.05-.74.04-1.11,0-.32-.12-.74-.11-1.04,0-.54.02-1.07.01-1.6-.01-.48-.01-.99-.02-1.46,0-.14.18-.37-.07-.31l-.22.39c0,.22-.13.41-.19.57-.14.33-.21.67-.36.99-.16.34-.29.71-.44,1.06-.06.14-.27.47-.35.64-.45.97-.78,1.91-1.19,2.91-.37.88-.66,1.8-1.01,2.69-.15.38-.23.76-.39,1.13-.29.71-.56,1.43-.88,2.13-.06.13-.11.32-.16.43,0,0-.09.13-.1.14-.27.35-.8.48-1.15.72-.15-.02-.43.06-.56.03-.06-.01-.07-.19-.21-.13.03-.2.11-.4.13-.6,0-.03-.06-.04-.05-.07.02-.15.09-.51.14-.63.04-.1.33-.33.37-.44.16-.37.2-1.05.33-1.48,0-.03.08-.05.09-.07.06-.2.04-.46.21-.64v-.24s-.11.28-.11.28c-.12-.03-.18.2-.24.33-.26.48-.52.95-.73,1.43-.4.89-.64,1.83-.95,2.76-.1.09-.17.35-.33.4-.05.02-.1,0-.14,0-.03.01-.06.06-.09.07-.07.03-.2.03-.29.08-.16-.04.04-.54.05-.7-.12.04-.13-.06-.16-.06-.17-.03-.3.11-.47.09.07-.18-.14-.24-.19-.37-.07-.19.05-.38.06-.56,0-.03-.09-.17-.09-.2-.05-.38.03-.6.08-.98,0-.03-.06-.04-.05-.07.1-.69.33-1.41.59-2.04.36-.87.76-1.76,1.13-2.63.27-.63.47-1.34.91-1.92.37-.5.58-.99.75-1.53h.17c.15-.09.12-.18.16-.26.02-.03.07-.05.09-.07.17-.33.26-.78.39-1.13.46-1.26.82-2.54,1.38-3.75.17-.36.48-.86.61-1.21,1.03-2.7,2.17-5.35,3.29-8.02.16-.37.36-.82.47-1.21.07-.23.08-.57.17-.77.01-.03.16-.18.19-.22.05-.09.1-.26.15-.35.02-.04.4-.37.44-.44.22-.44.67-1.13,1.02-1.51.08-.09.21-.17.3-.26.19-.06.25.16.35.26.06-.06.17-.13.21-.18.03-.03,0-.09.02-.11.01-.01.06.01.1,0,.19-.08.21-.05.36-.09.43-.11,1.17-.56,1.67-.71.31-.09.66-.19.95-.26.35-.08.84-.15,1.2-.13.02,0,.03.06.05.07.22.02.54,0,.75.03.05,0,.5.21.56.25.08.05.2.21.28.26.44.26,1.1.4,1.5.69.21.15.25.32-.02.56ZM356.11,74.86c.27-.03.4-.36.6-.55.02-.14.08-.29.09-.42.05-.49.05-1.04,0-1.53-.07-.65-.3-1.2-.58-1.71-.09-.16-.27-.23-.45-.29-.03,0-.03-.06-.05-.07-.15-.04-.38-.02-.54-.04-.03,0-.03-.06-.05-.07-.34-.03-.86.06-1.2.13-.03,0-.06.07-.09.07-.24.04-.31,0-.57.1-.04.02-.09,0-.14,0-.18.06-.18.44-.24.6,0,.03-.08.05-.09.07-.45,1.4-.65,2.87-1.21,4.23-.15.35-.21.71-.37,1.06-.11.23-.11.38-.19.57-.01.02-.18.19-.19.22-.06.14-.05.35-.11.49,0,.02-.15.18-.19.22.04.05.03.09.12.06.17-.05.37-.24.52-.34,1.17-.73,2.43-1.31,3.58-1.92.44-.24.87-.48,1.3-.76l.03-.14ZM359.89,72.65c-.22-.03-.13.13-.19.25-.22.47-.33.73-.42,1.27-.07.42-.08.53-.22.98-.05.17-.07.35-.12.53.22.03.13-.13.19-.25.02-.04.15-.11.17-.15.05-.1.1-.24.15-.35.22-.49.42-1.35.4-1.83,0-.03-.06-.04-.05-.07,0-.11.07-.27.09-.39ZM351.12,80.95c-.16-.02-.3.05-.32.23h.28s.05-.23.05-.23ZM344.81,84.34c-.22-.04-.15.18-.21.32-.04.1-.22.41-.25.5-.09.29-.07.41-.23.71-.07.13.05.19,0,.31l.18-.18c.18-.32.19-.64.29-.99,0-.03.08-.05.09-.07.06-.2.08-.4.13-.6Z"/>
    <path class="st1" d="M228.47,96.45l-.18-.09c-.03-.18.04-.37.06-.56,0-.03-.05-.04-.05-.07.03-.91.53-2.99.87-3.93.17-.47.27-.95.45-1.41,1.81-4.6,4.82-9.1,8.53-13.08.99-.99,2.03-1.97,3.23-2.63.2-.11.73-.41.93-.47.37-.1.97.02,1.17-.48h.14c.03-.21.25-.27.39-.37h.14c.04.11.17.03.26.05.03,0,.15.12.18.13.4.1.81.2,1.14.43.85.58,1.26,1.68,1.73,2.58.21.41.5.83.68,1.28.09.24.11.42.12.69,0,.03.09.18.09.2,0,.08-.06.2-.06.28,0,.02.09.18.09.2,0,.41.02.77.01,1.18,0,.02.09.18.09.2,0,.12,0,.23,0,.35,0,.37-.1.66-.16,1.05-.13.82-.29,1.7-.63,2.53-.2.48-.39,1.02-.6,1.49-.7,1.51-1.49,3.09-2.54,4.47-.24-.02-.43.33-.57.55-.71,1.14-1.46,2.41-2.22,3.52-1.18,1.71-2.93,3.6-4.65,4.72-1.03.67-2.08,1.52-3.24,1.91-.09.03-.21.06-.29.08-.38.11-.75.13-1.14.2-.3.05-.78.16-1.07.19-1.13.12-1.78-.04-2.31-.89.03-.17-.27-.5-.28-.61-.03-.51-.32-1.69-.14-2.15,0-.02.12-.08.12-.21,0-.04-.09-.09-.11-.13-.11-.34-.13-.83-.14-1.21ZM237.43,94.11c0-.12.08-.21.14-.32.2-.38.43-.68.7-1.01.06-.07.34-.33.36-.37.23-.47.33-.75.68-1.22.78-1.03,1.62-1.77,2.24-2.96.83-1.6,1.72-3.32,2.22-5.05.17-.6.2-1.09.22-1.61s.02-.74-.14-1.24c-.09-.28-.21-.58-.37-.81-.05-.08-.42-.56-.46-.57-.07-.02-.61.01-.69.04-.13.03-.53.24-.69.31-.11.05-.33.12-.45.16-.23.07-1.03.85-1.23,1.07-.9.97-1.69,2.11-2.41,3.11-1.09,1.52-1.98,3.12-2.68,4.65-.45.97-.84,1.98-1.21,2.98-.53,1.43-.92,3.58-.95,4.91,0,.25-.02.46.05.69.02.05.09.09.11.13.01.03-.03.09-.02.11,0,0,.14-.03.16.06h.07c.08-.11.16-.06.22-.08.36-.15.66-.47.99-.61l.03-.14h.14c.18-.26.57-.63.8-.85.29-.27.61-.54.93-.78l-.29.67c-.46.57-1.1,1.05-1.67,1.51-.16.13-.31.28-.47.41l.15.1c.11-.13.24-.05.36-.09.04-.01.12-.12.17-.15.31-.17.68-.39.96-.61.31-.24.63-.63.95-.74l.03-.14h.14s.03-.15.03-.15h.14s.03-.15.03-.15c.14,0,.32-.15.34-.3h.14c.29-.39.62-.7.87-1.13.08-.13.15-.24.16-.39-.04-.05-.53.22-.49.37h-.14s-.17.16-.17.16ZM229.97,94.92c.29-.12.23-.28.31-.47s.27-.5.36-.71c.27-.59.44-1.25.56-1.9.16-.89.27-2.07.63-2.98.05-.14.12-.18,0-.28-.17.1-.12.22-.17.32-.18.38-.45.81-.61,1.21-.15.37-.32.91-.42,1.27-.22.83-.35,1.68-.48,2.46-.04.25-.14.52-.17.77-.02.14.01.19,0,.31Z"/>
    <path class="st1" d="M302.24,70.8c.12-.04.12.05.16.06.05.01.15-.02.21-.01.03,0,.03.06.05.07.12.03.27-.03.4.05.05.03.32.37.35.43.03.07.03.27.06.34.15.38.29.55.32,1.02,0,.04.11.1.11.13,0,.06-.05.15-.05.21,0,.03.09.18.09.2,0,.18-.3,1.49-.37,1.69-.01.03-.07.05-.09.07-.13.28-.2.57-.33.85-.08.18-.26.43-.33.57-.24.5-.5.89-.73,1.43-.04.09-.31.38-.39.51-.03.04-.03.21-.16.25-.05.01-.09,0-.14,0-.03.01-.06.07-.09.07-.13.03-.35.04-.4-.05-.14.1-.31.35-.48.3-.12-.03-.02-.25-.1-.31.03-.15.11-.29-.02-.38-.15.08-.12.17-.16.25-.02.04-.15.11-.17.15-.04.08-.03.22-.07.32l-.16-.2-.23.71-.03-.48-.27.15c-.17.03-.25,0-.32-.12-.15.16-.31.05-.36-.09,0-.01.02-.05.02-.07,0-.03-.05-.04-.05-.07,0-.3.29-1.38.39-1.76.18-.68.42-1.28.51-1.97,0-.03-.06-.04-.05-.07.03-.19.1-.4.13-.6-.22-.06-.28.09-.41.16-.71.38-1.31.81-1.95,1.21l-.03.14c-.48.2-.92.49-1.31.94-.31.37-.58.83-.82,1.22-.39.63-.75,1.23-1.03,1.86-.23.52-.5,1.17-.65,1.7-.1.35-.14.7-.23,1.05l.08.1c.14-.02.28,0,.42-.02.26-.04.68-.16.93-.19.66-.07,1.35-.08,1.81.18.48.39,1.04.43,1.58.61.49.17.79.51,1.12.84.38.38.85.81.97,1.37,0,.04-.04.1-.03.14s.09.18.09.2c0,.1-.07.24-.08.35,0,.03.05.04.05.07,0,.08-.06.2-.06.28,0,.15.04.25-.04.49-.13.39-.33.96-.43,1.34-.18.7-.25,1.38-.52,2.04-.05.13-.19.36-.25.5-.42.91-1,1.91-1.7,2.73-.92,1.06-2.07,2.16-3.27,2.84-.36.2-1.06.57-1.37.63-.21.04-.5-.02-.69.04-.27.07-1.39,1.22-1.77,1.48-.02.01-.05,0-.07,0-.15.1-.63.42-.79.46-.08.02-.19,0-.28.01-.03,0-.06.07-.09.07-.11.02-.24,0-.35.02-.03,0-.06.07-.09.07-.21.03-.88.08-1.04.05-.02,0-.14-.12-.18-.13-.09-.03-.28-.05-.39-.12-.08-.06-.14-.22-.22-.27-.03-.02-.09.02-.1,0s.03-.07.02-.11c-.02-.07-.13-.13-.16-.2-.05-.1-.07-.31-.11-.41-.27-.59-.74-.95-.88-1.62-.07-.38-.05-.85-.07-1.25,0-.18,0-.37-.01-.55,0-.32.02-1.2.13-1.53.22-.65.38-1.34.64-1.98.01-.03.07-.05.09-.07.27-.72.51-1.38.87-2.06.02-.04,0-.1.03-.14.08-.16.3-.09.41-.13.06-.02.18-.22.34-.16l-.08.35c.14-.06.16.11.21.13.08.02.22-.03.31-.02l.03-.14.31-.02c.18.19.06.49,0,.76l.5-.41c.04-.19.52-.49.53-.24,0,.04-.03.1-.03.14.01.15,0,.19,0,.35-.03.73-.13,1.51-.15,2.23,0,.07-.05.17-.05.25l.5-.1c0,.08-.05.17-.05.25-.02.7.06,1.41-.07,2.16l.04.45c.22.04.26-.06.41-.16.74-.47,1.48-1.15,2.08-1.81.83-.91,1.48-1.87,2.15-2.89.21-.32.43-.52.6-.86.01-.03.07-.05.09-.07.05-.13.13-.49.14-.63,0-.03-.05-.04-.05-.07,0-.08.07-.21.06-.28,0-.04-.11-.09-.11-.13,0-.12,0-.24-.06-.34-.07-.13-.22-.24-.3-.37-.33.03-.65.01-.97.05-.5.06-1.14.24-1.64.29-.36.04-1.07.1-1.39.07-.02,0-.03-.06-.05-.07-.06-.01-.15.02-.21.01-.03,0-.14-.12-.18-.13-.43-.16-.9-.37-1.32-.56-.21-.1-.45-.21-.56-.42-.03-.05-.06-.21-.08-.27-.02-.09-.11-.34-.11-.41,0-.09,0-.2,0-.28-.03-1.05.34-2.92.76-4.07.18-.48.39-1.01.6-1.49.96-2.16,2.88-4.63,4.61-6.56,1.37-1.52,3.4-3.19,5.23-3.92.28-.11.45-.12.73-.18.03,0,.06-.07.09-.07.14-.02.42-.04.56-.03.02,0,.03.06.05.07.06.01.15-.02.21-.01.17.04.35.2.56.25.03,0,.07.11.11.13.19.11.4.12.5.36.05.11.03.32.05.41s.12.19.07.31ZM301.58,70.07l-.02.38c.07.03.03.12.04.14.09.21.39.05.38-.16,0-.07-.36-.4-.4-.36ZM300.97,70.65c-.04-.19-.17-.23-.37-.19.04.19.17.23.37.19ZM298.92,70.9l-.69.17c-1.03.54-2.1,1.1-2.88,1.99-.07.08-.2.12-.19.25.12.02.05-.11.14-.15.18-.07.2-.13.32-.23.97-.7,2.05-1.4,3.08-1.83l.22-.22ZM292.02,80.36c-.03-.18.18-.26.21-.32.12-.24.24-.49.43-.72l.27-.6-.14.15h-.1c-.18.38-.41.73-.59,1.11-.01.03-.07.05-.09.07-.02.06-.12.34,0,.31ZM298.95,78.82l.16-.11.02-.07-.08-.1h-.03s-.06.28-.06.28ZM292.59,82.76c.07-.24.09-.5.16-.74,0-.03.08-.05.09-.07.05-.17.18-.54,0-.59l-.33,1.16.08.24ZM294.91,83.4c-.1,0-.22.03-.31.02-.27-.03-.63-.02-.87-.09l-.61.1c0,.11.1.17.21.13.03-.01.06-.07.09-.07.18-.04.4,0,.59-.03l-.03.14c.12-.04.13.06.16.06.22.03.43-.06.64-.1.1-.02.23-.05.14-.15ZM299.48,85.39h-.14s-.02.11-.02.11l.08.1h.03s.05-.21.05-.21ZM296.29,91.11l.53-.83c.1-.16.02-.37.02-.42.02-.21.12-.45.15-.67-.13,0-.08.16-.12.25-.01.03-.17.19-.19.22-.13.26-.27.54-.38.78-.05.12,0,.27-.15.35l-.03.14.17.16ZM296.35,91.8l-.42.33c-.2.35-.45.68-.63,1.01-.08.13-.15.24-.16.39l.18-.18c.24-.41.54-.75.8-1.15.08-.12.23-.23.22-.39Z"/>
    <path class="st1" d="M325.2,75.08l.18-.5c.18-.04.15.08.17.16,0,.03.05.04.05.07,0,.08-.06.2-.06.28,0,.19.11.57.11.76,0,.16-.06.34-.04.49l.17.16.2-.29c-.03.24-.14.51-.16.74,0,.03.06.04.05.07-.02.51-.16,1.23-.25,1.75-.48,2.76-1.2,5.62-1.8,8.43-1.07,2.72-1.47,5.71-2.18,8.59-.25.28-.27.64-.36.99l-.38.33c-.05.01-.19.06-.22.08-.09.05-.14.1-.24.15-.18.1-.86.45-.92.57-.04.07-.03.19-.06.28-.1.04-.09.24-.21.18s-.05-.2-.03-.31c.04-.21.1-.42.14-.63l-.16-.37c-.11-.03-.33.27-.41.3-.23.07-.32.12-.53.24-.07.04-.17.1-.24.15-.05-.06-.25-.13-.26-.23,0-.05.04-.11.03-.14-.01-.04-.09-.18-.09-.2,0-.08.06-.2.06-.28,0-.13,0-.25.02-.42.01-.11-.06-.13-.01-.24-.32.01-.28.43-.36.68-.08.26-.25.6-.27.92,0,.03.06.04.05.07s-.07.04-.09.07c-.04.08-.02.27-.17.32-.14.05-.15-.27-.27-.33-.03-.02-.09.02-.1,0,0-.01.03-.07.02-.11-.03-.17,0-.21,0-.35,0-.25-.11-.35-.15-.55-.09-.38-.08-1.29-.03-1.73.02-.17.09-.36.12-.53l.29-.08c-.02-.12.12-.23.12-.25.11-.3.12-.67.22-.98.03-.11.12-.33.18-.5.31-.9.59-1.85.89-2.75.25-.77.4-1.56.65-2.33.36-1.13.8-2.33,1.11-3.46.11-.4.16-.8.26-1.19l-.08-.1c-.35.03-.69.02-1.04.05-.23.02-1.21.24-1.35.21-.41-.08-1.57.08-2.1.18-.03,0-.06.07-.09.07-.09.02-.2,0-.28.01-.02,0-.27.22-.3.26-.18.21-.34.51-.57.72v.28s-.06.04-.08.07c-.76,1.07-1.48,2.08-2.21,3.17-.67,1-1.29,1.99-1.97,3.02-.22.34-.43.74-.65,1.08-.48.72-1.09,1.54-1.47,2.3-.02.04-.15.11-.17.15-.25.51-.41.64-.79,1.08-.18.21-.33.56-.66.49.02.13-.16.19-.19.25-.07.13-.05.21-.24.33-.21.13-.28.05-.44.27-.14.19-.41.28-.5.1l.17-.46-.18.18-.02.11-.43.09c.04-.12.04-.27.09-.39s.26-.32.25-.5c0-.04-.11-.1-.11-.13,0-.08.06-.22.07-.32l-.46.37c-.06.08-.15.1-.22.08-.03,0-.12-.21-.12-.24,0-.12.08-.29.09-.42.02-.16-.03-.3.06-.56.16-.5.34-1.07.55-1.56.1-.22.48-.93.67-1.15.47-.55.26-.32.48-.93.09-.25.39-.62.53-.86.5-.8.98-1.64,1.5-2.44.46-.71.93-1.31,1.41-2.02s.88-1.29,1.41-2.02c.91-1.26,1.9-2.62,2.92-3.9,2.24-2.79,4.6-5.23,7.14-7.73.23-.23.46-.57.75-.77.19-.13.28-.11.45-.16.03-.01.21-.14.24-.15.08-.02.19,0,.28-.01l.32.4c.2,0,.4.3.56.25.19-.16.53-.21.73-.18.02,0,.03.06.05.07.05.02.16.04.19.06.39.23.73.9.83,1.38.08.41-.08.87,0,1.25l-.06.59ZM323.7,79.67c.06-.13,0-.2,0-.31.02-.42.12-.91.16-1.33.06-.57.28-1.37.28-1.89,0-.06-.13-.28-.13-.34,0-.12.08-.29.09-.42.03-.34-.19-.75-.17-1.1-.14-.2-.18-.48-.51-.49,0,.1-.07.23-.07.32,0,.16.15.57.18.75.17,1.12.26,2.07.17,3.26-.02.32-.11.66-.15.98,0,.04.08.23-.02.38h.14s.02.2.02.2ZM320.95,74.4c-.05-.07-.3.17-.36.23-.11.1-.16.13-.17.29l.31-.16c0-.16.21-.19.22-.36ZM325.31,75.49l.08-.35h-.07s-.08.35-.08.35h.07ZM320.91,76.62c-.09.03-.13.16-.14.18-.68.77-1.29,1.49-1.94,2.25-.05.06-.28.21-.09.25.16.03.28-.1.43-.09.51-.16,1.03-.25,1.54-.43.06-.02.21,0,.27-.12.05-.1.18-.72.19-.84,0-.04-.06-.3-.06-.34,0-.11.08-.25.08-.35,0-.03-.09-.17-.09-.2,0-.11.12-.4-.17-.3ZM320.78,79.06s-.06.07-.02.07.06-.07.02-.07ZM320.37,82.28l-.83.36c.14.23.44-.02.65,0l.09-.07.1-.28ZM322.76,85.14l.11-.49h-.07s-.11.5-.11.5h.07ZM305.46,93.68s-.06.07-.02.07.06-.07.02-.07ZM304.43,95.68c.11-.08.18-.06.26-.08.03-.01.22-.23.23-.25.06-.14.06-.34.11-.49,0-.03.08-.05.09-.07.09-.29.11-.59.19-.88l-.19.25c-.15.33-.27.7-.5,1l-.19.53Z"/>
    <path class="st1" d="M405.09,64.73c.09.01.24-.03.31-.02.06.01.07.19.21.13-.04.25.24.49-.02.73-.01.06.28.16.28.26,0,.06-.05.15-.05.21,0,.03.09.06.02.21-.16.13-.27.3-.47.27v-.28s-.35.02-.35.02c-.08.13.02.22.01.24,0,.12-.07.37-.11.49,0,.03-.07.05-.09.07-.03.09-.03.2-.06.28-.01.03-.06.04-.09.07-.08.12-.26.33-.4.4-.04.02-.09,0-.1,0-.02.02-.1.27-.25.36-.18.11-.33.06-.5.1-.03,0-.06.07-.09.07-.15.03-.31-.04-.43.09l-.14-.13.26-.22c-.15.02-.31,0-.45.02-.03,0-.28.15-.31.16-1.15.29-2.29.61-3.43.94-.27.08-.76.22-1.02.26-.28.04-.58,0-.87.05.01.11-.1.15-.11.18-.07.17-.14.58-.17.77-.1.65-.29,1.43-.54,2.11-.16.43-.25.85-.42,1.27-.76,1.92-1.32,3.99-2,5.94-.04.12-.05.26-.09.39.31-.03.63,0,.94-.05.03,0,.06-.07.09-.07.68-.11,1.36-.13,2.04-.25.35-.06.79-.12,1.14-.2.28-.06.34.04.47.22l-.12.25c.17-.02.35,0,.52-.03.03,0,.06-.07.09-.07.42-.08.43.14.65.17.2.03.54-.06.76-.04l.24.3-.12.25.52-.03.26.23-.14.32h-.14c-.11.29-.01.5-.1.78l-.23.12.04.14-.15.35-.41.47-.59.03-.09.39-.13.11c-.18.02-.37,0-.56.03-.03,0-.06.07-.09.07-1.32.19-2.68.33-3.98.62-.57.13-1.24.29-1.8.37-.18.03-.39,0-.56.03-.03,0-.09.11-.19.08.01.11-.1.15-.11.18-.03.09-.03.2-.06.28-.53,1.17-1.12,2.27-1.6,3.49-.01.03-.08.05-.09.07-.1.29-.11.62-.2.91l.13.17c.44,0,.88-.06,1.32-.07,1.15-.01,2.38.18,3.61-.19.03.03.16.13.18.13.25.04.75-.1.97-.05.03,0,.1.11.07.17l-.2.29.32.4-.24.15.43.53c-.07.11-.2.21-.27.29-.27.33-.61.8-1.02,1.06-.02.01-.05,0-.07,0-.05.03-.22.15-.24.15-.1.03-.38.03-.49.03-.02,0-.03-.07-.05-.07-.16,0-.35.03-.52.03l.02.21.42-.02-.51.44c.17,0,.44-.1.45.12-.12-.04-.21.13-.27.15-.14.04-.38.05-.57.1-1.2.35-2.25.36-3.43.32-.77-.02-1.57.03-2.33-.02-.53-.03-1.11-.07-1.62-.12-.15-.01-.47.07-.48-.15,0-.11.24-1.19.3-1.33,0-.02.13-.08.12-.21-.09-.2-.21-.48.02-.7l-.05-.24c-.13,0-.29.03-.42.02-.02,0-.03-.06-.05-.07-.17-.02-.38.04-.48-.15.07-.11-.02-.18-.02-.21,0-.08.06-.2.06-.28,0-.03-.06-.04-.05-.07.01-.13.07-.36.11-.49.08-.25.22-.57.33-.85.54-1.47,1.1-3,1.68-4.46.1-.24.15-.54.24-.78.01-.03.12-.07.11-.18h.21s.26-.55.26-.55l.14-.94.07.14.13-.11c.04-.11.04-.25.08-.35.01-.03.07-.05.09-.07.17-.37.35-.8.4-1.2.14-1.07.77-2.2,1.2-3.26.3-.74.54-1.45.83-2.2.56-1.43,1.13-2.86,1.77-4.26.34-.75.69-1.48,1.04-2.21l-.06-.34c.04-.08.35-.18.41-.3.11-.23-.03-.15-.07-.17-.05-.03-.16-.17-.12-.24.07-.05.14-.14.21-.18.03-.02.19-.06.22-.08.04-.03.29-.24.3-.26.1-.2-.04-.32-.1-.48,0-.02.06-.04.09-.07.03-.04.09-.18.12-.21.14-.16.43-.35.6-.52.23-.23.26-.35.57-.55.19-.13.53-.4.72-.45.06-.02.15,0,.21-.01.03-.01.21-.14.24-.15.14-.04.31-.06.43-.09.49-.11.99-.12,1.49-.22,1.17-.23,2.4-.45,3.57-.6.27-.04.67-.07.83-.04.25.05.71-.09.97-.05.02,0,.03.06.05.07.04.01.1-.02.14,0,.01,0,.12.14.13.17.04.08.03.34.16.37.06.01.15-.02.21-.01.08.02.24.29.15.41ZM388.42,82.96c-.22-.04-.15.18-.21.32-.13.32-.22.67-.36.99-.06.14-.32.34-.39.51-.44,1.11-.75,2.27-1.16,3.39-.2.55-.43,1.15-.65,1.7l.08.27-.19.22c-.09.26.06.2.19.23.03,0,.03.06.05.07.13.02.31-.03.45-.02.04-.13.04-.26.09-.39.63-1.82,1.14-3.65,1.7-5.51,0-.03.08-.05.09-.07.13-.44.33-1.12.33-1.48,0-.03-.1-.11-.01-.24ZM396.01,90.83l-1.01.05s-.26.25-.34.3c-.14.08-.25.06-.36.09-.03,0-.06.07-.09.07-.12.02-.26,0-.38.02-.1.23.04.36.01.55.16.04.3.08.51.04.09-.11.29-.06.35-.19.09-.19-.05-.28-.22-.23l.12-.21c.08-.01.17,0,.24-.01.29-.07.64-.27.96-.33l.2-.15Z"/>
    <path class="st1" d="M375.09,65.4c-.05.12.11.45.2.48s.34.03.34.16c.03.4.15.14.38.29.03.02.19.22.19.23,0,.1-.05.19.08.27l-.13.28c.02.11.18.09.18.09.01.01-.03.07-.02.11.02.05.11.1.11.13,0,.11-.09.32-.1.46-.12-.04-.21.13-.27.15-.14.05-.17-.16-.11-.27l-.35.02s-.14.72-.19.88c0,.03-.07.05-.09.07-.03.09-.03.21-.06.28-.06.13-.46.3-.58.45-.04.05-.11.18-.12.25l-1.23.27.26-.26c-.04-.13-.29-.11-.43-.08-.03,0-.06.07-.09.07-.46.12-.92.22-1.38.35-.97.28-1.94.63-2.93.85-.12.03-.31.08-.36.09-.27.05-.56,0-.83.04l-.13.11c-.24.82-.31,1.72-.56,2.53-.2.64-.55,1.42-.8,2.06-.2.51-.3,1.04-.48,1.55-.47,1.35-.84,2.74-1.32,4.1-.04.11-.12.15-.12.21.04.07.06.09.15.1.2.02.61-.01.83-.04.03,0,.06-.07.09-.07.68-.11,1.36-.13,2.04-.25.35-.06.79-.1,1.14-.2.17-.05.19.03.26.06.03.01.09-.02.1,0,0,0-.05.14.03.17l-.12.25c.19-.02.4,0,.59-.03.07-.01.24-.13.43-.09.07.01.21.19.23.2.19.05.64-.09.83-.04.1.02.29.35.07.45.08.2.4.03.57.07.05.01.17.25.24.3-.12.12-.16.28-.33.26,0,.08-.05.17-.05.25,0,.06,0,.19,0,.28,0,.04.1.11.01.24l-.23.12c-.03.26-.12.48-.29.71-.06.08-.2.12-.19.25l-.62.03c0,.14-.16.17-.05.25l-.12.25c-.2.02-.39,0-.59.03-.26.04-.67.11-.93.19-.7.2-1.6.16-2.34.33-.86.19-1.79.42-2.66.56-.15.02-.35-.01-.49.03-.04,0-.22.14-.28.19.02.11-.11.19-.12.21-.07.16-.12.4-.19.57-.43.95-.91,1.88-1.32,2.85-.06.14-.22.44-.26.57s-.1.38-.11.49c0,.03.05.04.05.07,0,.08-.07.18.05.24.46-.01.93-.07,1.39-.07s1.1.07,1.57.06c.37,0,1.28,0,1.6-.08.11-.03.24-.2.45-.16.02,0,.15.13.18.13.16.03.98-.09,1.01-.05l-.19.57c.16-.03.2.14.29.23l-.2.29c.07.08.39.28.39.4,0,.15-.27.37-.39.51-.3.36-.34.49-.75.77-.08.05-.38.29-.41.3-.09.03-.44.03-.56.03-.02,0-.03-.07-.05-.07-.16,0-.35.03-.52.03.03.3.36.1.49.29l-.54.27.45.15c-.21.26-.34.16-.56.2-.21.04-.57.19-.81.25-.9.22-1.99.17-2.85.15-.8-.02-1.6.02-2.4-.01-.51-.02-1.07-.08-1.55-.13-.21-.02-.38.09-.48-.15l.37-1.69c-.2-.16.01-.52.04-.8-.16,0-.36.04-.52.03-.02,0-.03-.06-.05-.07-.08-.01-.21.03-.28.01-.02,0-.19-.22-.19-.23,0-.09.07-.24.08-.35,0-.03-.06-.04-.05-.07.02-.19.1-.51.16-.7s.22-.56.31-.78c.28-.67.46-1.39.73-2.05.26-.62.44-1.29.7-1.91.11-.27.33-.69.41-.92.06-.16.06-.36.12-.53l.26.06c.03-.08.02-.17.05-.25.01-.03.07-.05.09-.07.08-.17.25-.62.24-.78,0-.06-.19-.16-.05-.38l.16.2c-.03-.12.12-.23.12-.25.05-.13.04-.3.09-.42.01-.02.18-.19.19-.22.24-.56.25-1.39.52-2.04.09-.22.19-.48.29-.71,1.48-3.21,2.41-6.63,4.15-9.73.05-.25.16-.51.02-.7.02-.07.46-.19.44-.44,0-.05-.18-.19-.22-.27l.72-.45.1-.14-.1-.48c.09-.04.08-.12.1-.14.1-.13.37-.3.51-.44.01-.01,0-.06.02-.07.63-.65.95-.92,1.8-1.17.27-.08.51-.12.79-.18.68-.15,1.39-.25,2.08-.39.52-.1,1.04-.12,1.56-.22s1.51-.29,1.91-.24c.27.04.7-.09.97-.05.02,0,.03.06.05.07.04,0,.1-.02.14,0,.04.01.04.1.16.06ZM358.91,84.51c-.16.05-.16.13-.19.25-.14.46-.27,1.09-.66,1.42-.62,1.7-1.15,3.41-1.82,5.09-.05.11-.08.29,0,.35l-.22.36c.05.04.08.13.13.17.01,0,.05-.01.07,0,.03.01.03.06.05.07.12.02.33-.08.4.05.08-.06.11-.09.14-.18.13-.37.2-.81.33-1.2.32-.93.56-1.9.9-2.82.24-.65.35-1.32.58-1.97,0-.03.08-.05.09-.07.13-.41.2-.79.15-1.15-.01-.12,0-.22.04-.35ZM366.57,92.37l-1.08.06-.43.37c-.23.01-.44.13-.68.1-.09.27-.06.46.1.62.21.03.65-.06.78-.28.07-.12-.12-.21-.24-.16.03-.23.17-.18.29-.22.26-.09.54-.2.81-.25l.43-.23Z"/>
    <path class="st1" d="M263.84,74.05c-.04.13-.04.26-.09.39-.24.69-.51,1.43-.75,2.12-.47,1.36-.77,2.77-1.32,4.1-.47,1.14-.86,2.37-1.26,3.54-.05.13-.05.28-.09.42l.12.1.11-.35c.78-1.82,1.38-3.73,1.97-5.62.14-.44.23-.99.38-1.41,0-.02.16-.16.13-.28.15-.09.62-.6.72-.63.4-.13.81-.45,1.18-.69.1-.06.2-.17.32-.23.08-.02.2.13.2.16,0,.06-.05.15-.05.21,0,.09.09.25.05.38h.14c.09.27,0,.49-.04.79,0,.03.06.04.05.07-.08.59-.38,1.55-.61,2.12-.24.6-.43,1.24-.68,1.84-.1.24-.33.9-.32,1.13,0,.04.11.1.11.13,0,.19-.2.77-.29.99-.21.54-.39,1.1-.64,1.63-.13.28-.2.57-.33.85-.26.57-.65,1.12-.93,1.72-.19.42-.36.86-.56,1.28-.17.37-.35.77-.53,1.14-.53,1.13-1.27,2.27-1.91,3.36-.9,1.54-1.49,3.11-2.86,4.52-1.03,1.06-1.83,1.82-3.16,2.35-.56.23-1.07.46-1.65.64-.17.05-.39.39-.66.17-.35.21-.88.23-1.2.13-.03,0-.03-.06-.05-.07-.67-.26-1.66.07-2.38-.08-.12-.02-.3-.02-.4-.05-.08-.02-.18-.09-.32-.12-.04,0-.48-.35-.53-.39-.1-.1-.41-.45-.46-.57-.01-.03-.01-.18-.02-.21-.15-.36-.3-.76-.36-1.16-.04-.25.01-.46.02-.7,0-.02-.09-.18-.09-.2,0-.18.12-.49.16-.7.08-.51.15-1.05.29-1.61s.34-1.31.54-1.83c.17-.42.25-.86.42-1.27.09-.22.19-.48.29-.71.15-.32.28-.65.43-.99.01-.02.18-.19.19-.22.06-.15.09-.26.16-.43.46-1,.89-1.99,1.35-2.99.17-.37.36-.77.53-1.14.26-.56.62-1.17.93-1.72.53-.93,1.07-1.87,1.65-2.79.7-1.12,1.45-2.24,2.19-3.38.45-.68,1.09-1.74,1.69-2.38.07-.07.6-.54.64-.55.03-.01.07,0,.1,0l.06.21.19-.08.11.45c-.13.07-.09.19-.13.28-.11.22-.27.48-.36.71-.16.4-.22.81-.4,1.2-1.23,2.67-2.55,5.28-3.69,7.97l-.48.93-.05.52.12-.56h.14c.1-.44.43-.86.62-1.25.11-.23.18-.48.29-.71.88-1.86,1.79-3.73,2.57-5.69.46-.64.62-1.47,1.02-2.14.08-.37.12-.88.6-.83.02.03-.12.42-.12.53,0,.04.11.1.11.13.01.28-.32,1.38-.44,1.69-.21.54-.41,1.18-.65,1.7-.15.32-.28.65-.43.99-.06.15-.37.57-.43.72-.17.4-.32.7-.51,1.07-.3.58-.47,1.2-.74,1.77-.15.32-.22.66-.36.99-.53,1.27-1.01,2.56-1.54,3.83-.33.8-.59,1.62-.95,2.41-.14.3-.35.63-.48.93-.55,1.25-.92,2.56-.91,3.8.12.07.09.25.13.34.03.06.42.56.46.57.14.03.4-.21.55-.31.5-.34.76-.49,1.15-1,.35-.47.87-.92,1.27-1.39s.76-1.01,1.16-1.52c.32-.41.75-.85.97-1.3.02-.04.15-.11.17-.15.19-.38.48-.72.72-1.08.32-.48.47-.8.7-1.29.32-.7.69-1.38,1.01-2.07.34-.73.59-1.46.9-2.2s.49-1.39.75-2.12c.59-1.72,1.04-3.53,1.71-5.23.19-.48.32-.97.59-1.42.02-.03.07-.04.09-.07.02-.02,0-.06.02-.07.11-.13.26-.17.32-.05.23-.14.19-.24.26-.4s.16-.35.25-.5c.23-.38.6-.62.9-.95.05-.05.07-.22.25-.19ZM264.47,80.2l.09-.42h-.07c-.05.15-.16.26-.16.43h.14ZM263.36,83.94l.89-3.38-.19.25c-.08.39-.17.76-.32,1.13-.01.03-.08.05-.09.07-.14.41-.31,1.27-.37,1.69-.02.12-.05.21.08.24ZM254.92,81.46l.08-.35h-.07s-.08.35-.08.35h.07ZM249.6,93.68l.26-.53c1.33-3.69,3.15-7.14,4.59-10.8,0-.02.19-.26.2-.29.06-.16.06-.36.12-.53l-.18.18c-.25.76-.71,1.47-1.11,2.21-.35.66-.56,1.38-.87,2.06-.29.62-.57,1.29-.84,1.92-.65,1.55-1.23,3.16-1.93,4.68-.11.23-.13.4-.21.64,0,.03-.07.05-.09.07-.05.13-.1.35.05.38ZM260.23,85.07l.05-.21h-.07s-.05.21-.05.21h.07ZM251.37,87.55l.11-.49h-.07s-.11.5-.11.5h.07ZM251.14,87.98l.08-.35h-.07s-.08.35-.08.35h.07ZM259.91,87.73l.05-.21h-.07s-.05.21-.05.21h.07ZM258.86,90.01c.04-.12.04-.28.09-.39.02-.05.2-.2.2-.29l.51-1.07.07-.45c-.1.07-.13.24-.17.32-.2.36-.5.91-.63,1.28-.04.11-.05.24-.08.35-.02.08-.11.27.01.24ZM250.89,88.34s-.06.07-.02.07.06-.07.02-.07ZM246.76,91.96l.29-.4c.21-.27.15-.64.27-.92.01-.02.18-.19.19-.22.1-.22.03-.5.29-.71v-.31c-.12,0-.1.16-.12.25-.09.3-.18.28-.22.36-.06.13-.05.35-.11.49-.01.02-.18.19-.19.22-.07.16-.06.39-.12.56,0,.02-.19.26-.2.29-.05.12-.04.26-.09.39ZM258.61,90.51l.09-.42h-.07s-.09.43-.09.43h.07ZM257.06,91c-.58,1.05-1.69,2.15-2.22,3.21-.08.16-.59.73-.76.94-.59.73-1.25,1.42-1.84,2.11-.1.11-.24.12-.09.25.13-.09.26-.15.39-.23.49-.29,1.25-.82,1.61-1.23.41-.46.77-1.01,1.02-1.51,0-.02.16-.23.2-.29.6-.89,1.1-1.77,1.56-2.72.06-.11.26-.36.32-.5.03-.07.03-.17.05-.25l-.12.21h-.14ZM246.44,96.49l-.24,1.09.21.3.21-.95-.18-.44ZM251.45,97.13c-.09-.1-.49.25-.58.31-.08.05-.13-.06-.15.22l.53-.24.2-.29Z"/>
    <path class="st1" d="M281.13,70.37c-.07.2-.01.11.07.14s.13.07.23.06c-.02.24-.28.31-.26.57.12-.04.13.09.23.06.03,0,.06-.07.09-.07.09-.02.32-.08.36-.09.2-.03.65-.06.83-.04s.19.19.06.34c-.23.29-.36.19-.6.24-.13.03-.46.15-.59.17s-.31-.01-.42.02c-.14.04-.23.34-.09.42.06.01.12-.06.22-.08.4-.1.76-.18,1.16-.27.03,0,.06-.07.09-.07.08-.02.27-.03.35-.02.02,0,.03.06.05.07.04.01.1-.02.14,0,.02,0,.19.22.19.23.02.31-.4.44-.47.58-.05.1-.03.26-.08.35-.03.06-.31.24-.34.3-.04.08-.03.2-.06.28-.01.02-.14.1-.12.21l-.21.18-.55.17.03.17c-.06.04-.17.17-.21.18-.05.02-.1-.01-.14,0-.63.3-.99.29-1.61.43-.74.16-1.51.37-2.25.53-.21.05-.51.05-.71.11-.03,0-.05.06-.09.07-.02.01-.05,0-.07,0-.03.02-.21.17-.21.18-.1.21-.16.78-.23,1.05-.19.72-.42,1.52-.64,2.26-.11.37-.41.93-.21,1.26-.23.32-.28.71-.44,1.06-.31.68-.46,1.37-.73,2.05s-.45,1.34-.71,1.98c-.18.44-.25.9-.43,1.34-.28.66-.46,1.39-.73,2.05-.22.53-.39,1.11-.64,1.63-.15.33-.2.66-.36.99-.22.48-.38,1.01-.6,1.49-.24.52-.4,1.11-.64,1.63-.21.46-.38.96-.59,1.42-.18.39-.28.81-.47,1.21l-.33.26-.08-.27c0,.23-.25.28-.25.5l-.59.17c.06-.17.06-.37.12-.53.1-.25.36-.56.34-.92,0-.04-.11-.1-.11-.13,0-.16.24-1.17.31-1.41.16-.52.24-1.04.36-1.62.02-.09.11-.27-.01-.24l-.2.6c-.35.67-.62,1.38-.94,2.06-.22.47-.34,1-.66,1.42-.17.23-.44.89-.53,1.14-.06.17-.07.36-.12.53-.2.05-.13-.05-.09-.2-.01-.01-.08.02-.1,0-.14-.09-.02-.24-.02-.38,0-.22-.06-.49-.05-.69,0-.18.13-.32-.07-.45l-.14.18c-.02.16-.19.37-.25.5-.08.19-.01.31-.27.47l-.28-.12-.13.28-.14-.13-.36.23c.11-.27.02-.39-.08-.59l.02-.07c.22-.66.15-1.4.41-2.17.02-.06.2-.35.23-.43.8-1.95,1.58-3.87,2.39-5.82.59-1.42,1.2-2.81,1.77-4.26.32-.81.64-1.66.96-2.48.17-.44.26-.9.43-1.34.29-.73.57-1.48.9-2.2.08-.18.29-.5.35-.64.23-.54.45-1.05.69-1.56.04-.09.11-.19.12-.21.03-.07.03-.17.05-.25-.15.02-.31,0-.45.02-.31.06-.7.26-1.07.19-.02,0-.15-.13-.18-.13-.1-.02-.32-.04-.4-.05-.12,0-.26.02-.38.02l.09-.11-.18-.09.05-.21c-.13.02-.26,0-.38.02-.06.01-.25.06-.36.09-.03,0-.06.07-.09.07-.06.01-.22.02-.28.01-.02,0-.03-.05-.05-.07-.02,0-.06.01-.07,0-.11-.07-.14-.3-.32-.26l.03-.14h-.14s-.03-.16-.03-.16c.16-.11.34-.27.51-.27.16-.15.38-.26.58-.31,0-.19-.17-.1-.28-.12-.04,0-.17-.11-.2-.16.1-.04.1-.17.11-.18.02-.01.07.01.1,0,.14-.08.26-.23.41-.3.11-.05.22-.1.33-.09l-.2-.2h-.24c.01-.11.08-.26.09-.37,0-.03-.05-.04-.05-.07,0-.07.07-.15-.02-.21l.02-.07c.1-.06.14-.21.2-.29.14-.18.38-.34.53-.51.06-.08.15-.27.22-.36.04-.05.13-.1.17-.15.03-.03,0-.09.02-.11.01-.01.06.01.1,0,.03-.01.06-.06.09-.07.04-.02.09,0,.14,0,.03,0,.06-.07.09-.07.23-.05.52,0,.76-.04.06,0,.25-.06.36-.09.62-.14,1.25-.22,1.87-.38.99-.24,1.99-.47,2.97-.71.62-.15,1.24-.22,1.87-.38.31-.08.81-.22,1.09-.27.55-.09,1.18-.01,1.74-.09l.1.31-.19.22-.29.05Z"/>
    <path class="st1" d="M233.98,72.83c-.09.23.05.1.14.13.04.01.04.1.16.06l-.04.18-.19.22.12.24c.06.01.12-.06.22-.08s.28-.08.29-.08c.15-.03.8-.07.9-.05.04,0,.09.14.13.17l-.21.32c-.1-.03-.16.07-.19.08-.11.02-.24,0-.35.02-.13.03-.46.15-.59.17s-.31-.01-.42.02c-.14.04-.23.34-.09.42.06.01.12-.06.22-.08.4-.1.76-.18,1.16-.27.03,0,.06-.07.09-.07.08-.02.27-.03.35-.02.02,0,.03.06.05.07.04.01.1-.02.14,0,.02,0,.19.22.19.23.02.31-.4.44-.47.58-.05.1-.03.26-.08.35-.05.1-.37.28-.44.44-.04.1-.07.43-.1.46l-.74.25c-.02.11-.06.32-.18.36-.05.02-.1-.01-.14,0-.64.3-.98.29-1.61.43-.74.16-1.51.37-2.25.53-.21.05-.51.05-.71.11-.03,0-.05.06-.09.07-.02.01-.05,0-.07,0-.07.04-.14.14-.21.18-.14.51-.2,1.04-.34,1.55-.06.2-.27.65-.33.85-.28.98-.36,2.1-.74,3.02-.08.2-.12.4-.19.57-.01.02-.18.19-.19.22-.11.26-.17.68-.29.99-.84,2.12-1.4,4.35-2.32,6.44-.25.81-.54,1.71-.89,2.48-.21.46-.33.97-.52,1.42-.01.02-.18.19-.19.22-.08.19-.09.34-.19.57-.14.31-.2.61-.34.92-.21.46-.38.96-.59,1.42-.1.23-.16.54-.29.71-.07.09-.13.12-.12.25-.21.04-.11-.03-.1-.17l-.13-.03-.07.14h-.1c.01.21-.21.26-.23.43l-.23-.06c-.1.03-.25.34-.34.12.07-.09.09-.21.13-.28.13-.27.19-.51.31-.78.01-.03.07-.05.09-.07.14-.35-.09-.37-.08-.55s.14-.7.2-.91c0-.02.08-.05.09-.07.19-.7.38-1.55.5-2.25.02-.11-.01-.2-.12-.1-.06.17-.06.37-.12.53-.01.03-.07.05-.09.07-.13.28-.2.57-.33.85-.15.32-.28.65-.43.99-.01.02-.18.19-.19.22-.07.17-.09.29-.18.5-.12.25-.14.5-.23.71-.04.1-.33.39-.39.51-.24.49-.31,1.04-.6,1.49l-.16.39.06-.56h-.14c.16-.41-.03-.67.1-1.07l-.05-.38-.25.19c.02.11-.11.19-.12.21-.07.16-.09.34-.18.5-.02.04-.12.07-.11.18l-.19.08-.13-.2-.13.28c-.22-.01-.32.02-.52.17,0-.03.03-.08.02-.11-.03-.16-.08-.32-.17-.48.2-.18.14-.46.14-.63-.01-.59.27-1.44.52-2.04.56-1.35,1.09-2.69,1.65-4.04.36-.86.74-1.77,1.13-2.63.33-.71.57-1.49.9-2.2s.6-1.47.9-2.2c.15-.37.23-.76.39-1.13.29-.69.46-1.43.75-2.12.17-.41.31-.87.49-1.28.01-.02.18-.19.19-.22.12-.28.22-.63.34-.92.01-.02.18-.19.19-.22.17-.39.41-.87.54-1.21.08-.19,0-.36.25-.5-.06-.13-.28-.11-.43-.08-.34.07-.78.26-1.14.2-.02,0-.15-.13-.18-.13-.15-.03-.82.12-.78-.06l.09-.07-.18-.09.04-.18-.08-.1s-.05.06-.09.07c-.21.06-.37.06-.57.1-.03,0-.06.07-.09.07-.06.01-.22.02-.28.01-.02,0-.03-.05-.05-.07-.02,0-.06.01-.07,0-.12-.07-.21-.33-.32-.4-.03-.02-.09.02-.1,0,0,0,.05-.14-.03-.17l.51-.27c.17-.15.38-.26.58-.31,0-.2-.18-.1-.28-.12-.03,0-.21-.14-.2-.16.28-.25.58-.55.95-.57l-.2-.2h-.24c.02-.11.07-.25.09-.37,0-.03-.06-.04-.05-.07.02-.16.09-.33.11-.49l.61-.59c.06-.17.46-.65.6-.69.05-.01.09,0,.14,0,.03-.01.06-.07.09-.07.23-.05.52,0,.76-.04.03,0,.06-.07.09-.07.36-.08.72-.12,1.07-.19.64-.14,1.3-.22,1.94-.38.98-.24,1.98-.47,2.97-.71.67-.16,1.33-.23,2.01-.38.03,0,.06-.07.09-.07.55-.09,1.18-.01,1.74-.09l.11.13c.1.24-.23.5-.48.44Z"/>
    <path class="st1" d="M391.06,64.56l-.43.09c0,.17.13.11.21.13.04.01.09.13.13.17l-.17.15c-.03.15-.1.29.02.38.06.01.12-.06.22-.08s.28-.08.29-.08c.15-.03.8-.07.9-.05.03,0,.15.16.12.24l-.14.18c-.2.19-.39.13-.59.17-.13.03-.47.15-.59.17-.15.02-.3,0-.45.02l-.15.35.23.06s.06-.07.09-.07c.29-.07.58-.1.86-.18.06-.02.33-.15.38-.16.1-.02.33-.03.42-.02.02,0,.03.06.05.07.04.01.1-.02.14,0,.14.04.09.3.16.37l-.02.07c-.12.12-.3.16-.41.3-.13.16-.1.3-.16.43-.03.06-.31.24-.34.3-.04.09-.04.24-.08.35,0,.02-.15.12-.12.25l-.74.25.03.17-.11.18c-.12-.04-.21.07-.26.08-.42.14-.89.25-1.31.35-.92.2-1.82.34-2.73.56-.03,0-.06.07-.09.07-.24.05-.46-.04-.7.21.02.11-.11.19-.12.21-.19.48-.24,1.23-.39,1.76-.21.72-.71,1.85-.72,2.61,0,.25-.13.62-.27.92-.13.28-.2.57-.33.85-.28.61-.44,1.29-.7,1.91-.15.37-.24.77-.39,1.13-.18.44-.25.9-.43,1.34-.29.69-.46,1.44-.75,2.12-.22.53-.41,1.1-.64,1.63-.25.59-.41,1.26-.68,1.84-.23.51-.39,1.06-.62,1.56-.32.7-.56,1.43-.88,2.13-.11.25-.21.53-.31.78-.08.18-.14.49-.21.64-.03.06-.21.12-.19.25l-.13-.2-.3.26-.22.39-.14-.13-.36.23c.03-.1.03-.22.07-.32.1-.26.32-.64.4-.85.13-.37-.02-.37-.03-.48-.01-.24.05-.63.13-.91.22-.74.42-1.54.58-2.32.02-.09.11-.27-.01-.24,0,.13-.09.2-.14.32-.33.83-.67,1.6-1.02,2.41-.17.4-.3.81-.47,1.21-.04.1-.33.39-.39.51-.22.45-.33,1.02-.54,1.49-.01.03-.07.05-.09.07-.04.09,0,.26-.12.25,0-.13.11-.34.1-.46,0-.04-.11-.1-.11-.13-.01-.25.01-.57.05-.84-.09-.14.04-.44-.11-.58-.02,0-.21.23-.23.25-.08.16-.2.43-.26.57-.03.07-.03.17-.05.25l-.29.08c.06-.09-.06-.24-.09-.2-.04.38-.25.24-.44.3-.05.01-.13.15-.2.15l.08-.35-.18-.09c.04-.11.04-.24.08-.35,0-.03.07-.05.09-.07.13-.32-.04-.33-.05-.41,0-.11.01-.45.06-.56.18-.45.25-.97.45-1.41.21-.46.38-.96.59-1.42.54-1.17.98-2.36,1.47-3.55.54-1.29,1.15-2.62,1.69-3.91.92-2.19,1.58-4.48,2.51-6.66.42-.98.87-1.95,1.33-2.92.03-.07,0-.15.12-.21.02-.12-.33-.1-.43-.08-.32.06-.73.25-1.07.19-.02,0-.15-.13-.18-.13-.15-.03-.39.05-.56.03-.02,0-.09-.12-.23-.06.05-.13-.02-.23-.16-.2l.04-.18-.08-.1s-.05.06-.09.07c-.21.06-.37.06-.57.1-.03,0-.13.11-.29.08-.27-.17-.47-.37-.65-.63l1.09-.58c.03-.19-.52-.16-.49-.29l.38-.33.57-.24c.09-.23-.05-.1-.14-.13-.03,0-.03-.06-.05-.07-.07-.02-.18.04-.22-.09l.1-.14s-.08-.25-.08-.27c0-.07.05-.3.08-.35.02-.03.13-.1.17-.15.26-.3.56-.57.76-.94l.37-.26c.1.04.2-.08.22-.08.21-.05.47,0,.69-.04.62-.09,1.46-.3,2.09-.46.6-.15,1.2-.23,1.8-.37.72-.17,1.45-.35,2.18-.53.36-.09.72-.11,1.07-.19.3-.07.76-.21,1.02-.26.54-.1,1.18,0,1.74-.09.16.13.13.25.06.48Z"/>
    <path class="st1" d="M410.52,86.05c.03-.08.02-.18.05-.25.01-.03.16-.18.19-.22.16-.27.32-.58.46-.86.02-.04.35-.4.37-.44.06-.13,0-.32.16-.43-.04-.04-.06-.13-.15-.1-.13.04-.48.5-.65.62-.08.06-.12.14-.23.12.04-.11-.03-.13-.01-.24.02-.2.13-.45.14-.63,0-.03-.09-.06-.03-.17-.2,0-.41.1-.51.3l-.26.08c.04-.15.05-.31.1-.46.23-.7.4-1.44.68-2.12.09-.22.2-.47.29-.71.52-1.25,1.02-2.49,1.52-3.76.81-2.05,1.42-4.32,2.04-6.43.06-.21.08-.52.16-.7.02-.05.36-.53.4-.58.07-.08.32-.25.34-.3.05-.09.03-.25.08-.35.01-.03.11-.05.1-.14-.02-.36.19-.69.44-1.06.02-.04,0-.09.03-.14.12-.24.42-.16.56-.2.08-.03.25-.31.39-.06l-.16.39c.12-.04.13.06.16.06.26.04.42-.15.66-.17.14.12.09.28.07.45-.02.26.33.19.4.05.04-.08.03-.28.17-.32.39-.12.36.42.52.46.18.05.29.03.4.22,0,.01-.02.05-.02.07.02.05.09.09.11.13.01.03.08.26.08.27,0,.06-.05.15-.05.21,0,.03.06.04.05.07-.01.14-.08.41-.12.56-.17.53-.43,1.16-.58,1.7-.98,3.39-1.87,6.82-3.13,10.09l-.19.25.09-.39-.08-.24c-.06.17-.06.37-.12.53-.09.23-.18.4-.29.71-.18.52-.5,1.17-.72,1.7-.14.35-.37.61-.46.86-.04.11-.04.24-.08.35-.01.03-.12.07-.11.18-.12-.04-.21.07-.26.08-.2.07-.4.05-.57.1-.08.02-.26.21-.38.16-.05.07-.3.3-.31.33-.02.05-.06.25-.16.25l-1.56.08ZM419.05,68.17s-.06.07-.02.07.06-.07.02-.07Z"/>
    <path class="st1" d="M377.31,58.47h.14c.16.56.79,1.05.94,1.65.07.29.06.6.14.9l-.03.14c-.21.13-.09.35-.09.42-.03.29-.25.67-.05.84l-.1.14c-.08.11-.13.2-.27.29l-.09.39c-.1-.03-.26.13-.34.16-.27.08-.53.11-.79.18-.02,0-.21.14-.24.15-.08.02-.5.04-.56.03-.04,0-.11-.16-.16-.2h-.07c-.13.08-.51.49-.6.52-.07.02-.14-.03-.22.08-.25-.12-.35-.41-.55-.6-.01-.01-.06.01-.07,0-.15-.14-.3-.28-.46-.39-.02-.01-.08-.09-.08-.1-.02-.24.03-.49.1-.77l-.21-.93c-.16-.06-.28.14-.34.16-.14.04-.22-.06-.27-.16-.11-.2-.15-.54-.25-.75-.04-.08-.14-.15-.19-.23-.06.06-.15.12-.21.18-.24.25-.56.5-.72.77h-.14c-.28.38-.82.84-1.17,1.11-.29.22-.54.49-.83.67l-.26-.06-.66.52-.42.02-.13-.34c-.2.16-.39.36-.6.52-.09.07-.15.17-.27.15l.22-.39.46-.51c.08-.44-.24-.48-.61-.21-.58.11-.51-.23-.36-.71,0-.03.08-.05.09-.07.07-.19.04-.22.16-.43.77-1.28,2.62-2.81,3.82-3.78.4-.32.76-.64,1.16-.89.05-.03.14-.14.17-.15.06-.02.36-.03.42-.02.02,0,.14.11.18.13.03.01.1-.02.14,0,.04,0,.07.12.11.13.24.06.45-.07.64-.28l-.13-.03v-.35c.22-.02.42-.14.61-.1.02,0,.03.05.05.07.02,0,.06-.01.07,0,.17.11.16.41.48.32.03,0,.21-.14.24-.15.08-.02.41-.04.49-.03.02,0,.03.06.05.07.17.06.18.1.3.19.21.17,1.31,1.4,1.39,1.63.01.03-.03.09-.02.11ZM374.24,56.83c.1-.2-.31-.4-.41-.33-.1.2.31.4.41.33ZM377.07,58.76s-.06.07-.02.07.06-.07.02-.07ZM377.18,58.9s-.06.07-.02.07.06-.07.02-.07ZM377.29,59.03s-.06.07-.02.07.06-.07.02-.07Z"/>
    <path class="st1" d="M309.87,71.65l.15.41c.15-.11.32-.34.48-.3.04,0,.46.53.46.57,0,.14-.12.41-.12.56,0,.03.13.49.15.55.03.07.09.12.18.09l.14-.49.13.17c-.08.13.06.27.06.34,0,.13-.11.55-.16.7,0,.03-.08.05-.09.07-.17.47-.27.95-.45,1.41-.37.93-.66,1.91-1.04,2.83-.42,1.01-.81,2.04-1.23,3.05-.16.4-.17.64-.62.94-.06.12-.2.42-.34.47-.05.01-.09,0-.14,0-.03.01-.06.07-.09.07-.22.05-.52,0-.76.04-.03,0-.06.07-.09.07-.17.03-.35,0-.52.03l-.16.43c-.1,0-.22.03-.31.02-.03,0-.03-.06-.05-.07-.14-.02-.3.08-.36-.09l-.05-.41c.11-.37.17-.75-.3-.64-.07-.02-.08-.28-.2-.34-.13-.06-.12.14-.14.18-.02.04-.12.07-.11.18h-.21c0-.08.07-.22.07-.31,0-.04-.11-.1-.11-.13,0-.19.12-.33.16-.43.17-.4.22-.81.4-1.2.09-.2.29-.54.36-.71.64-1.48,1.02-3.02,1.68-4.46.18-.5.34-1.01.54-1.49.26-.62.73-1.34,1.11-1.93.07-.11.21-.36.33-.4.1-.03.24,0,.35-.02.02,0,.09-.11.22-.08.18.15-.02.53.31.47l.34-.16Z"/>
    <path class="st1" d="M411.53,89.54l.22-.36h.28s-.09.55-.09.55c.19-.12.25-.29.34-.47.05-.09-.03-.13.16-.11-.03.09,0,.16.01.24.03.21.05.4.07.62,0,.03.05.04.05.07,0,.15-.11.31-.26.4-.02,0-.05,0-.07,0-.03.02-.06.07-.09.07-.12.03-.29,0-.42.02-.03,0-.09.11-.19.08l-.13.6-.41.3-.02.38c-.11-.03-.14.06-.19.08-.24.09-.54.11-.79.18-.03,0-.06.07-.09.07-.18.04-.4,0-.59.03l-.05-.69c-.11.03-.2.17-.29.22-.01,0-.14.07-.15.08-.06.02-.14-.03-.22.08-.05-.08-.16-.06-.2-.16-.03-.08-.16-.4-.17-.48,0-.06.05-.15.05-.21,0-.03-.09-.18-.09-.2,0-.12.09-.3.09-.42,0-.06-.13-.28-.13-.34,0-.11.12-.65.17-.77,0-.02.07-.04.09-.07.02-.04,0-.09.02-.11.02-.01.07.01.1,0,.08-.04.3-.29.34-.3.22.16-.2.39.01.55l.37-.26c.05-.12.48-.59.58-.62.06-.02.15,0,.21-.01.03-.01.21-.14.24-.15.14-.04.35.02.49-.03.02,0,.28-.2.39-.23.18-.05.22.05.26.06.1.02.24-.06.29.09-.06.08-.1.23-.13.28-.09.16-.22.21-.23.43,0,.03.06.04.05.07s-.07.05-.09.07c-.03.09-.03.19-.06.28l.08.1h.17ZM410.73,88.81l.05-.21h-.03s-.13.11-.13.11l.12.1ZM409.31,91.53l.07-.49-.13.28.06.21Z"/>
    <path class="st1" d="M340.66,80.46l-.03.14h-.21c.03-.11.17-.12.2-.14.24-.16.51-.39.75-.46l.17-.15-.42.02-.03.14-.26-.06c.12.02.24-.11.34-.16.04-.02.09,0,.14,0,.09-.03.21-.28.4-.09l-.02-.21h.1s1.16-1.04,1.16-1.04c.03.18-.18.26-.21.32-.24.5-.74.89-1.19,1.21-.28.19-.61.48-.89.46Z"/>
    <path class="st1" d="M356.14,79.65l-.03.14h-.28s.11-.12.14-.13c.19-.06.44-.19.62-.31s.39-.34.06-.28l-.07.14-.26-.06.5-.23.14.13-.02-.21.33.05-.1-.17,1.18-1c.03.18-.18.26-.21.32-.24.49-.67.83-1.11,1.13-.28.19-.61.48-.89.46Z"/>
    <path class="st1" d="M365.29,86.05c.02-.14.23-.07.33-.09.03,0,.06-.07.09-.07.45-.07.98-.1,1.42-.21.02,0,.21-.14.24-.15.15-.04.52-.04.69-.04.13,0,.23-.05.29.09-.12.16-.22.09-.34.12-.34.09-.51.07-.85.11-.15.02-.58.16-.73.18-.38.05-.77.02-1.15.06Z"/>
    <path class="st1" d="M397.77,84.14c-.1.02-.21,0-.31.02-.48.1-1.11.23-1.57.29-.38.05-.77.02-1.15.06l.4-.09s.06-.07.09-.07c.55-.09,1.04-.14,1.57-.29.03,0,.06-.07.09-.07.11-.03.75-.06.83-.04.05.01.1.13.06.21Z"/>
    <polygon class="st1" points="264.29 74.79 264.15 75.42 263.93 75.5 264.03 75.05 264.29 74.79"/>
    <path class="st1" d="M358.38,84.39l-.16.56c-.12-.08-.06-.17-.03-.31.03-.15,0-.29.19-.25Z"/>
    <path class="st1" d="M365,86.13c0,.12-.11.07-.19.08-.13.01-.25.01-.38.02,0-.12.11-.07.19-.08.13-.01.25-.01.38-.02Z"/>
    <polygon class="st1" points="394.44 84.59 394.42 84.66 393.94 84.69 393.95 84.62 394.44 84.59"/>
    <polygon class="st1" points="289.93 91.02 289.86 91.03 289.97 90.53 290.04 90.53 289.93 91.02"/>
    <polygon class="st1" points="378.69 68.33 378.68 68.4 378.26 68.42 378.27 68.35 378.69 68.33"/>
    <polygon class="st1" points="372.66 56.22 372.38 56.23 372.39 56.2 372.52 56.09 372.59 56.08 372.66 56.22"/>
    <polygon class="st1" points="387.72 83.35 387.65 83.35 387.74 82.93 387.81 82.93 387.72 83.35"/>
    <polygon class="st1" points="269.12 74.05 269.11 74.12 268.76 74.14 268.77 74.07 269.12 74.05"/>
    <polygon class="st1" points="221.98 76.51 221.96 76.58 221.61 76.6 221.63 76.53 221.98 76.51"/>
    <polygon class="st1" points="356.22 79.3 356.2 79.37 355.93 79.38 355.94 79.31 356.22 79.3"/>
    <polygon class="st1" points="340.74 80.11 340.72 80.18 340.44 80.19 340.46 80.12 340.74 80.11"/>
    <polygon class="st1" points="289.99 91.37 289.92 91.37 289.97 91.16 290.04 91.16 289.99 91.37"/>
    <polygon class="st1" points="358.54 77.51 358.52 77.58 358.38 77.59 358.4 77.52 358.54 77.51"/>
  </g>
  <g>
    <path class="st1" d="M67.73,83.59l.07.31c-.09.43.29.24.52.28.02,0,.03.05.05.07.02,0,.06-.01.07,0,.12.09.02.37.17.48l.32-.23c.02.12.2.12.21.13.01.01-.03.07-.02.11.03.1.2.29.26.4.22.45.37.73.41,1.29,0,.04.11.09.11.13.01.18,0,.44,0,.62,0,.14.14.49.14.62,0,.26-.04.58-.04.84,0,.02.09.18.09.2,0,.26-.04.58-.04.84,0,.3.11.72.12,1.03.04,1.28.06,2.58.52,3.65.05,2.33.16,4.55.03,6.87.17.62-.18,1.52-.1,2.19.01.1,0,.17-.03.28.17.02.19-.11.25-.19.26-.35.52-.69.71-1.08.02-.04.35-.4.37-.44.11-.23.26-.37.28-.64.01-.21.07-.27.18-.5.23-.51.56-.96.79-1.43.12-.24.18-.47.29-.71.56-1.24,1.42-2.49,2.04-3.73.17-.34.23-.41.22-.71,0-.16.77-1.69.91-2,.23-.49.53-1.01.74-1.5.03-.07.03-.17.05-.25l-.17.15.11-.35c.17-.42.32-.83.51-1.24.57-1.24,1.07-2.45,1.69-3.71.05-.11.5-.47.52-.52.08-.18.16-.39.26-.57.47-.34.69-.82,1.12-1.21l.2.34.17-.29h.21c-.06.1.03.13.03.16,0,.18-.18.33-.18.5,0,.07.13.12.22.09l.45-.16.14.17c-.02.19-.16.41,0,.52l.48-.31c.02.08.11.05.12.06.14.09.06.34.14.44,0,.17-.12.25-.13.29-.31.79-.59,1.56-.92,2.34-.55,1.32-1.17,2.76-1.84,4.06-.02.05-.14.12-.12.25l.22-.08.31-.5v.38c-.39.71-.61,1.46-.9,2.2-.33.86-.71,1.72-1.1,2.56-.82,1.75-1.68,3.53-2.51,5.28-.73,1.54-1.45,3.07-2.31,4.64-.62,1.13-1.21,2.31-1.91,3.44-.14.23-.35.49-.5.72-.02.04,0,.09-.02.11-.02.01-.07-.01-.1,0-.11.06-.15.15-.32.23-.03.02-.06.07-.08.07-.05.01-.23.03-.28.02-.12-.03-.02-.25-.11-.31v-.31s-.19-.06-.19-.06c.01.11-.08.14-.11.18-.15.27-.29.59-.46.86l-.47.41s-.22-.05-.23-.06c-.01-.01.03-.07.02-.11-.11-.32-.34-.17-.54-.21-.09-.02-.39-.57-.49-.6-.03,0-.17-.01-.18.05-.06.36-.13.68-.45.96l-.33-.05c-.08-.07-.2-.21-.29-.26-.03-.02-.09.02-.1,0,0,0,0-.19-.02-.24-.05-.14-.26-.57-.27-.68-.02-.37-.01-.75-.04-1.11-.02-.26.03-.5.03-.76,0-.02-.09-.18-.09-.2,0-.22.04-.55.03-.76,0-.03-.12-.38-.14-.44-.04-.09,0-.18.03-.28-.16-.05-.2.13-.19.25,0,.03.09.18.09.2,0,.1-.08.25-.08.35,0,.02.09.18.09.2,0,.08-.07.21-.06.28,0,.16.16.14.03.48s.02.39.02.55c0,.1-.08.26-.08.35,0,.04.11.09.11.13,0,.1-.03.39-.21.32.02-.1.06-.19.03-.28-.08-.21-.14-.55-.14-.79,0-.41.11-.77.05-1.18-.05-.31-.19-.71-.19-1.03,0-.55.02-1.07,0-1.6,0-.23.02-.46.01-.69,0-.03-.05-.04-.05-.07-.01-.1.08-.22.19-.25,0,.13-.11.34-.1.46,0,.04.11.09.11.13,0,.09-.08.26-.08.35,0,.04.11.09.11.13.02.41,0,.8.09,1.17l.13.37c.02-.16.11-.37.11-.53,0-.01-.02-.12-.02-.21-.02-.51.05-1.07.07-1.6.02-.41.15-.86.13-1.26,0-.17-.01-.38-.02-.55,0-.25.06-.44-.03-.66-.04-.1.07-.23-.06-.2l-.21.64-.12-.1c.02-.15.1-.35.11-.49,0-.02-.08-.25-.08-.27,0-.13.09-.3.09-.42,0-.02-.09-.18-.09-.2,0-.15.2-.45-.06-.38-.02.15-.09.32-.1.46,0,.03.05.04.05.07,0,.32-.08.66-.07.98.01.4,0,.85,0,1.25,0,.03.06.04.05.07,0,.17-.11.41-.13.6l-.19-.37c.09-.18.02-.33.02-.42.04-2.05-.09-4-.07-6.03l-.05-.24-.2.12c-.03.09-.03.19-.06.28-.25.68-.66,1.45-.94,2.14-.43,1.04-.8,2.08-1.22,3.12-.45,1.11-.79,2.32-1.29,3.4-.34.75-.59,1.51-.9,2.27-.24.58-.34,1.23-.53,1.83s-.43,1.25-.67,1.84c-.14.34-.23.69-.3,1.06-.22.26-.25.47-.6.42l-.6-.73c-.13.09-.12.13-.16.25-.05.18-.08.69-.26.74-.16.05-.23-.05-.37-.05-.01.25-.16.44-.21.67l-.31.33-.45.03c0-.08.05-.18.05-.25,0-.03-.08-.25-.08-.27,0-.14.2-.78.17-.81-.08.01-.17,0-.24.01-.09.02-.24.2-.38.16-.01,0-.13-.14-.14-.17,0-.01.02-.05.02-.07,0-.03-.05-.04-.05-.07,0-.08.06-.2.06-.28,0-.08-.01-.16,0-.28.03-1.57.52-3.16,1.03-4.78.19-.59.31-1.18.52-1.76s.43-1.24.67-1.84c1.01-2.46,1.98-4.89,2.9-7.38,1.36-3.02,2.35-6.2,3.39-9.35.2-.16.19-.47.28-.64.05-.1.55-.35.66-.52l.23-1.05c.14-.21.4-.4.54-.59.15-.2.25-.47.41-.65.06-.07.15-.12.21-.19l.25.12.54-.1ZM65.14,87.28l-.11-.13-.03.14h.14ZM64.48,89.4c0-.1.08-.15.12-.25.15-.33.29-.63.35-.99.02-.13.08-.23-.04-.31-.32.2-.26.52-.35.82,0,.03-.08.05-.08.07-.05.17-.09.39-.12.56-.02.11.01.2.12.1ZM64.84,92.15c-.07.02-.17-.03-.22.05-.04.07-.08.15-.12.21-.14.23-.18.46-.29.71-.16.36-.38.78-.52,1.14-.23.57-.4,1.22-.66,1.77-.22.48-.38,1.01-.6,1.49-.2.44-.37.91-.57,1.35-.08.18-.18.39-.26.57-.2.44-.24.89-.43,1.34-.2.48-.38,1.02-.6,1.49-.24.53-.39,1.16-.64,1.7-.15.33-.2.66-.35.99-.23.51-.41,1.06-.59,1.59l-.11.35c.13,0,.08-.16.12-.25.02-.03.13-.1.17-.15.3-.81.65-1.63,1-2.42.24-.52.39-1.11.63-1.63s.39-1.11.63-1.63.38-1.06.61-1.56c.15-.33.2-.66.35-.99.21-.47.37-.69.66-1.15.25-.39.33-.78.47-1.21.12-.38.11-.82.24-1.12.05-.12.36-.53.41-.65.08-.19.1-.41.21-.64.12-.27.25-.65.34-.92.05-.15.06-.31.1-.46ZM70.11,92.4s-.06.07-.02.07.06-.07.02-.07ZM70.16,92.95l.05-.21h-.03s-.13.11-.13.11l.12.1ZM70.21,93.23s-.06.07-.02.07.06-.07.02-.07ZM66.37,95.25h-.21c-.02.16-.09.33-.1.47,0,.07.05.33.05.41,0,.13-.07.31.05.41v.38c.03-.26.13-.55.16-.81.02-.14,0-.47,0-.62,0-.07.05-.17.05-.25ZM74.74,96.85l.05-.21h-.07s-.05.21-.05.21h.07ZM66.27,100.18c.03-.13.06-.26.08-.39.02-.09.11-.27-.02-.24-.03.13-.06.26-.08.39-.02.09-.11.27.02.24ZM67,106.32c-.31-.02-.07.23-.07.32,0,.25-.04.58-.04.84,0,.14.13.54.13.69,0,.23-.03.47-.01.69.02.32.18.64.2.96,0,.04.07.1.08.27,0,.04.27.36.35.29,0-.16.34-.39.38-.47.09-.18-.07-.21-.08-.27,0-.14-.01-.35-.03-.48-.02-.12-.14-.21-.06-.38-.21-.02-.39-.09-.49-.28-.09-.17-.11-.46-.13-.69,0-.06-.16-.1-.09-.24l.45.15-.12-.24c-.2-.22-.37-.6-.39-.91,0-.06-.16-.1-.09-.24ZM57.88,112.6l.23-.74c.36-.56.13-1.11.35-1.62.17-.4.2-.83.4-1.2v-.38c-.14.05-.14.13-.18.25-.11.37-.17.7-.3,1.06-.19.51-.36,1.18-.5,1.69-.05.18-.19.71-.18.84,0,.06.11.12.19.09ZM71.11,110.17l.16.06.13-.11-.08-.1h-.17s-.03.15-.03.15Z"/>
    <path class="st1" d="M145.13,79.96l-.03.14h.14c.01.14-.21.2-.21.32s.16.08.22.09c.31.08.63.94.73,1.24.19.62.07,1.25.22,1.86.05.22.18.54.18.75,0,.15-.11.36.03.48l-.08.39c.12,0,.1-.17.12-.25.03-.12.09-.28.05-.38l.04-.35.22-.08v.31c-.08,1.13-.52,2.56-1.38,3.55-.09.11-.66.74-.75.77-.58.19-1.47.73-1.88,1.25-.03.03-.09.18-.12.21-.27.34-.67.58-.95.89-.03.03-.07.17-.18.22l.03.17c-.08.01-.17,0-.24.01-.32.09-.94.46-1.3.63l-.26-.05c-.4.18-.83.28-1.26.42-.04.01-.08.11-.19.08-.04.12-.02.21,0,.31.08.4.32.9.34,1.3.03.59.13,1.18.16,1.79,0,.04.11.09.11.13.03.45.18.83.28,1.23.27,1.07.19,2.36.34,3.52-.07.67-.07,1.31-.08,1.95-.01.69-.28,1.5-.42,2.24-.21.17-.32.47-.43.72l-.28.19c-.1.02-.27.06-.36.09-.21.08-.45.16-.67.25-.04.02-.08.11-.19.08l-.08.35c-.1-.03-.16.07-.19.08-.17.04-.38,0-.56.03-.03,0-.06.07-.08.07-.27.03-.53.02-.8.05.06-.12-.03-.13-.03-.17-.04-.26-.08-.52-.11-.76-.03-.2,0-.44,0-.62,0-.03-.27-.37-.31-.47-.07-.14-.27-.31-.27-.33-.01-.19.05-.38.05-.56.02-.66.07-1.35.09-2.02.03-.94-.04-1.86-.09-2.77-.06-1.32-.14-2.62-.02-4.02l-.17-.16c.03.12-.11.22-.12.25-.15.36-.24.77-.38,1.13-.48,1.25-1.11,2.45-1.62,3.7-.36.87-.65,1.72-.98,2.62-.59,1.63-1.16,3.31-1.88,4.9-.05.12-.1.3-.16.43-.1.11-.17.23-.31.33-.02.01-.23.15-.24.15-.16.05-.28.11-.45.16-.04.01-.13.14-.17.15-.07.02-.49.04-.56.03-.02,0-.03-.05-.05-.07-.02,0-.06.01-.07,0-.25-.15-.02-.57.02-.87,0-.03-.06-.04-.05-.07.02-.17.09-.43.19-.57.05-.07.23-.18.25-.22.12-.26.18-.93.27-1.26.05-.18.21-.59.31-.78v-.38s-.31.54-.31.54c-.41.7-.61,1.37-.93,2.07-.26.56-.46,1.26-.67,1.84-.04.11-.03.25-.08.35-.01.03-.06.04-.08.07-.01.02,0,.05-.02.07-.03.03-.17.16-.21.19-.02,0-.05,0-.07,0-.03.02-.06.07-.08.07-.1.03-.2-.04-.29.09l-.16-.06.13-.6c-.06-.14-.2-.09-.36-.08l-.17.15c-.13-.08,0-.26-.13-.34-.03-.02-.09.02-.1,0-.06-.07.04-.4.04-.52,0-.16-.13-.44-.14-.62-.02-.29.09-.6.13-.91,0-.03-.06-.04-.05-.07.17-1.15.75-2.21,1.19-3.26.37-.9.67-1.84,1.13-2.7.29-.53.68-1.03.89-1.58.03-.09.02-.21.06-.28.06-.11.37-.22.41-.3s.03-.19.06-.28c.64-1.63,1.09-3.37,1.83-4.96.62-1.34,1.14-2.68,1.7-4.05.49-1.18.97-2.36,1.45-3.55.23-.56.55-1.15.78-1.71.21-.51.25-1.31.43-1.69.02-.04.15-.11.17-.15.02-.05,0-.1.03-.14.16-.24.32-.44.48-.65.39-.5.7-1.11,1.1-1.59.07-.09.21-.17.3-.26.19-.06.25.16.36.26.06-.09.18-.07.19-.08.02-.01,0-.07.02-.11.19-.26.35-.16.56-.21.03,0,.05-.06.08-.07.66-.22,1.27-.54,1.94-.74.55-.16,1.2-.35,1.78-.31.02,0,.03.06.05.07.2.03.5,0,.68.03.02,0,.15.12.18.13.06.01.15-.02.21-.01.04,0,.42.33.53.39.5.27,1.04.51,1.59.74ZM139.99,82.27c-.23.04-.69.19-.95.26-.07.02-.15,0-.21.01-.18.06-.18.44-.23.6-.45,1.42-.73,2.89-1.2,4.3-.25.77-.63,1.56-.92,2.34-.02.06-.22.18-.03.31l1.36-.91c1.32-.73,2.78-1.26,3.97-2.17.13-.1.46-.37.55-.48.03-.03.09-.17.12-.21.02-.03.06-.04.08-.07.07-.14-.02-.19-.02-.21,0-.24.11-.61.11-.84,0-.02-.09-.18-.09-.2,0-.1.08-.25.08-.35,0-.03-.09-.17-.09-.2,0-.06.05-.15.05-.21,0-.04-.11-.09-.11-.13-.01-.18-.02-.31-.03-.48,0-.05-.33-.74-.37-.81-.04-.07-.24-.33-.3-.36-.01,0-.05.01-.07,0-.03-.01-.03-.06-.05-.07-.5-.08-1.01-.22-1.62-.11ZM144.73,87.82c.04-.14.15-.26.22-.39.1-.17.16-.32.25-.5.01-.03.07-.05.08-.07.14-.37.37-1.64.36-1.96,0-.07-.13-.19-.07-.31-.12,0-.1.16-.12.25-.19.62-.3,1.07-.36,1.69-.04.37-.24.72-.37,1.06-.02.06-.1.27.02.24ZM136.91,93.2c.06-.28-.22-.26-.28.02l.28-.02ZM129.97,98.32c-.03-.17.18-.26.21-.32.11-.23.15-.45.14-.63,0-.09.24-.53.28-.64.05-.15.06-.31.1-.46l-.28.33c-.2.45-.27.96-.44,1.41,0,.03-.07.04-.08.07-.06.11-.02.22.09.24Z"/>
    <path class="st1" d="M160.45,79.56s.08-.02.1,0c.4.16.52.38.69.76.43.95.21,1.91.56,2.81l.06.69-.1.46c.12,0,.1-.16.12-.25.05-.21.09-.42.14-.63l.16-.11c-.06.12.03.14.03.17.03.46-.28,1.75-.49,2.25-.08.18-.24.46-.35.64-.32.6-.6.89-1.05,1.38-.21.23-.24.14-.42.2-.04.01-.12.12-.17.15-.67.36-1.36.66-1.71,1.38l-1.03.96.02.24c-.08.01-.17,0-.24.01-.12.03-.47.25-.62.31-.38.16-.74.24-1.1.34s-.71.24-1.1.34c-.27.07-.25.27-.2.46.03.15.14.33.17.48.19.88.19,1.9.37,2.75.12.61.36,1.14.45,1.71.06.34.05.68.05,1.04,0,.03.09.17.09.2.03.5,0,1.02.01,1.53.02.61.02,1.25,0,1.87,0,.26-.02.65-.06.91-.03.21-.36,1.54-.43,1.69-.02.04-.15.11-.17.15-.04.08-.03.19-.06.28-.01.03-.15.12-.12.25-.11-.02-.24.11-.34.16-.33.15-.72.21-1.03.34-.04.02-.08.11-.19.08l-.07.32-.13.11c-.18.02-.37,0-.56.03-.03,0-.06.07-.08.07-.25.03-.51.02-.76.04-.08-.04-.05-.12-.07-.17,0-.03-.05-.04-.05-.07-.04-.22-.01-.54-.04-.76-.04-.31-.18-.79-.31-1.09-.06-.13-.34-.23-.34-.33,0-.07.06-.2.06-.28.03-.68.09-1.4.11-2.09.04-1.51-.08-2.97-.14-4.43-.03-.59-.03-1.2-.02-1.8,0-.19.07-.46.07-.63,0-.02-.05-.04-.05-.07-.02-.09,0-.2-.17-.16-.05.15-.05.31-.1.46,0,.03-.07.05-.08.07-.24.58-.4,1.2-.66,1.77-.36.78-.7,1.56-1.06,2.35-.32.7-.58,1.42-.87,2.13-.28.67-.44,1.38-.72,2.05-.15.37-.23.76-.38,1.13-.3.73-.56,1.48-.89,2.2-.15.32-.17.61-.41.93-.04.05-.13.1-.17.15-.03.03,0,.09-.02.11-.01.01-.06-.01-.1,0-.26.12-.59.33-.86.47-.15-.02-.43.06-.56.03-.06-.01-.07-.19-.21-.13.04-.22.11-.45.14-.67,0-.02-.06-.04-.05-.07.02-.13.07-.45.12-.56.04-.1.33-.34.37-.44.14-.34.2-1.01.3-1.41.04-.16.16-.38.21-.64.02-.09.11-.27-.02-.24l-.15.39c-.88,1.36-1.3,2.8-1.75,4.26-.1.09-.17.35-.33.4-.05.02-.1,0-.14,0-.03.01-.06.06-.08.07-.07.03-.2.03-.29.09-.16-.04.03-.54.05-.7-.16.04-.21-.01-.28-.12l-.36.23v-.35s-.18-.09-.18-.09c.08-.21.05-.33.04-.49-.03-.29-.09-.59-.08-.9.01-.53.2-1.5.44-2.04.3-.65.57-1.34.84-1.99.31-.74.57-1.54.9-2.27.2-.45.64-.92.84-1.37.12-.25.18-.55.31-.78.02-.04.12-.07.11-.18l.19.06c.03-.08.02-.17.05-.25.1-.25.18-.42.29-.71.51-1.41.92-2.88,1.54-4.25.56-1.26,1.14-2.56,1.65-3.84.31-.77.57-1.58.92-2.34.29-.63.54-1.29.83-1.92.21-.47.37-.95.58-1.42.17-.38.33-.93.34-1.27s.32-.53.45-.79c.03-.06.02-.15.05-.21s.31-.24.34-.3c.11-.22.34-.51.41-.65.11-.22.43-.72.61-.94.04-.04.36-.33.38-.33.26-.08.18.18.2.2,0,0,.14-.03.16.06.12-.12.31-.21.32-.37.12-.02.26,0,.38-.02.1-.02.37-.21.46-.23.2-.06.39-.11.59-.17.07-.02.49-.27.62-.31.31-.1.66-.2.95-.26.35-.08.84-.16,1.2-.14.02,0,.03.06.05.07.22.02.54,0,.75.03.05,0,.3.16.37.19.17.08.29.17.43.25.5.31,1.01.44,1.49.75.02,0,.06-.01.07,0,.21.15.25.32-.02.56ZM151.84,89.22c.13.03.18-.09.27-.15,1.32-.86,2.62-1.48,3.9-2.17.55-.29.9-.52,1.43-.92.2-.15.31-.32.48-.48.03-.22.14-.49.15-.7.01-.17-.05-.5-.06-.69,0-.27.02-.56-.03-.83-.03-.17-.11-.38-.16-.55-.11-.36-.32-.67-.47-1.01-.04-.1-.28-.18-.4-.22-.13-.12-.41-.08-.6-.1-.03,0-.03-.06-.05-.07-.34-.02-.86.06-1.2.14-.03,0-.06.07-.08.07-.16.03-.34,0-.49.03-.02,0-.13.13-.22.08l-.21.19c-.13.51-.2,1.03-.33,1.55-.39,1.52-.91,3.21-1.49,4.66-.09.23-.3.59-.38.78-.04.12-.04.26-.08.39ZM161.11,83.83c-.32.02-.26.38-.34.61-.03.08-.15.21-.16.43-.03.45-.1,1.04-.26,1.54-.04.11-.15.18-.14.32l.25-.19c.43-.79.61-1.65.67-2.47,0-.02-.1-.12-.02-.24ZM160.15,87l.05-.21h-.07s-.05.21-.05.21h.07ZM152.39,92.1c-.16-.02-.3.05-.32.23l.28-.02.05-.21ZM145.57,97.28c.15-.34.19-.67.29-1.02,0-.03.08-.05.08-.07.08-.29.11-.59.19-.88l-.19.25c-.16.49-.37,1-.53,1.49-.05.15-.06.31-.1.46l.12-.21h.14ZM144.12,103.81s-.06.07-.02.07.06-.07.02-.07Z"/>
    <path class="st1" d="M50.72,109.2h-.14s-.03.15-.03.15h-.14s-.03.15-.03.15h-.14s-.03.15-.03.15h-.14s-.03.15-.03.15c-1.33.81-2.69,2.03-4.15,2.53-.09.03-.21.06-.29.09-.71.21-1.39.25-2.13.33-.02,0-.06.07-.08.07-.74.08-1.37.05-1.86-.31-.12-.17-.3-.32-.41-.5-.18-.29-.27-.67-.33-1.02-.1-.61-.37-1.29-.06-1.94-.07-.31-.24-.74-.24-1.1,0-.07.05-.17.05-.25h-.21c.08-.13-.01-.19-.02-.23-.03-.38.05-.7.1-1.12.33-2.62,1.24-5.17,2.39-7.56,1.73-3.6,4.39-7.17,7.25-10.34,1.14-1.09,2.35-2.33,3.76-2.96.31-.13.65-.18.95-.26.12-.03.23-.01.36-.09.25-.14.48-.49.69-.66.17-.06.22.05.26.05.06.01.15-.02.21-.01.18.04.53.17.7.24,1.27.47,1.7,1.6,2.27,2.68.21.39.45.81.63,1.21.05.1.28.54.28.61.03.42.04.84.07,1.24.05.63.16,1.22.15,1.86-.02.72-.32,1.99-.59,2.74-.34.94-.73,1.93-1.16,2.84-.5,1.04-1.1,2.12-1.78,3.16-.2.31-.15.37-.48.48-.16.05-.66,1.01-.77,1.19-.39.62-.84,1.23-1.16,1.87-.02.04-.15.11-.17.15-.77,1.56-2.31,3.09-3.56,4.4ZM55.4,90.75s.03-.07.02-.11c-.02-.05-.42-.55-.46-.56-.07-.02-.61.02-.7.04-.13.03-.53.24-.69.32-.11.05-.33.12-.45.16s-1.05.84-1.21,1.01c-3.07,3.67-5.26,7.6-6.51,11.68-.27.87-.43,1.66-.55,2.53-.05.38-.13.88-.13,1.26,0,.03.06.04.05.07,0,.13-.09.3-.09.42,0,.05.13.5.16.55.04.08.14.15.19.23h.07c.08-.11.16-.06.22-.09.36-.15.66-.47.99-.61l.03-.14h.14s.03-.15.03-.15h.14c.17-.26.56-.63.8-.85.26-.25.55-.49.84-.71l-.27.61c-.45.66-1.15,1.17-1.77,1.66-.07.05-.36.3-.38.33-.05.09-.06.23.07.17.2-.1.22-.05.36-.09.18-.05.7-.47.89-.61.35-.26.82-.62,1.16-.9.65-.55,1.26-1.1,1.73-1.8.02-.15.17-.26.16-.43,0-.02-.07-.13-.12-.06-.15.16-.41.29-.45.48h-.1s-.13.15-.13.15l.38-.82c.36-.47.7-.71.95-1.23.19-.39.36-.72.64-1.08.45-.56,1.4-1.52,1.69-2.11.02-.04.15-.11.17-.15.28-.56.52-1.06.77-1.64.06-.15.37-.57.43-.72.13-.32.27-.63.41-.93.24-.52.46-1.17.64-1.7.06-.16.14-.39.18-.5.15-.5.28-1.23.29-1.68,0-.12.02-.29.02-.42,0-.03-.09-.17-.09-.2-.02-.3,0-.49-.11-.76-.08-.2-.28-.4-.27-.64h-.14ZM42.9,104.41l1.04-4.81-.29.4c-.28.58-.58,1.18-.8,1.78-.36,1-.78,2.95-.85,3.93,0,.03.05.04.05.07,0,.14-.18.37.07.31,0-.12.08-.21.14-.32.19-.36.35-.77.52-1.14.04-.09.11-.2.12-.21Z"/>
    <path class="st1" d="M102.86,90.03l-.52.17v-.21c-.08.07-.16.16-.24.22-.02.01-.05,0-.07,0-.12.09-.23.27-.39.23-.15-.04-.09-.38-.06-.52.01-.06.08-.25-.07-.17s-.28.36-.28.5l-.16-.06c-.26.17-.09.51-.36.71l-.03-.35-.5.1.03-.14c-.21.14-.39.11-.46-.08,0-.01.02-.05.02-.07,0-.03-.05-.04-.05-.07,0-.33.29-1.41.39-1.83.14-.57.42-1.29.48-1.9,0-.05-.05-.38-.05-.41,0-.01.15-.13.12-.25-.22-.05-.28.09-.41.16-.48.26-.84.46-1.26.77-.45.33-.88.75-1.36.91-.1.03-.66.66-.75.77-.74.92-1.2,1.9-1.72,2.87-.13.51-.46,1.1-.61,1.56-.13.39-.15.86-.27,1.26l.08.1c.14-.02.28,0,.42-.02.26-.05.68-.16.93-.19.67-.08,1.35-.1,1.82.17.48.38,1.04.42,1.59.6.62.21.92.68,1.34,1.1.16.16.4.33.53.56.08.14.14.37.16.55,0,.04.11.09.11.13,0,.14-.07.38.03.48-.31,1.09-.4,2.29-.73,3.37,0,.03-.08.05-.08.07-.14.41-.22.81-.4,1.2-1.07,2.42-3.33,4.97-5.91,6.2-.14,0-.41.15-.52.17-.21.04-.5-.01-.7.04-.27.07-1.38,1.22-1.76,1.49-.02.01-.05,0-.07,0-.15.1-.63.42-.79.46-.08.02-.19,0-.28.02-.03,0-.06.07-.08.07-.11.02-.24,0-.35.02-.03,0-.06.07-.08.07-.21.03-.88.09-1.04.06-.02,0-.14-.11-.18-.13-.09-.03-.29-.04-.39-.12-.08-.06-.14-.22-.22-.26-.03-.02-.09.02-.1,0s.03-.07.02-.11c-.02-.07-.13-.13-.16-.2-.05-.1-.07-.31-.12-.41-.26-.57-.77-.97-.89-1.61-.01-.07.02-.27,0-.35-.07-.55-.15-1.09-.12-1.66.04-.81.25-1.82.58-2.67.35-.91.68-1.8,1.06-2.7.03-.07.22-.22.21-.32.1-.02.23,0,.31-.02.06-.02.18-.22.34-.16-.14.36.14.5.45.46l.15-.22c.03.1.13.04.19.06.16.04-.02.5-.04.66,0,.03.06.04.05.07-.02.19-.1.4-.13.6l.18-.53c.17-.19.35-.34.52-.52.01-.01,0-.05.02-.07.03-.04.19-.18.21-.19.29-.1.17.19.17.3,0,.03.09.18.09.2,0,.21-.09.51-.1.77-.02.44-.16.9-.15,1.33,0,.03.05.04.05.07,0,.14-.12.29.02.38l.29-.09s.12.21.12.24c0,.12-.09.3-.09.42,0,.02.09.18.09.2,0,.16-.04.29-.04.49,0,.27-.1.55-.1.77,0,.02.09.18.09.2,0,.08-.06.2-.06.28,0,.02.05.04.05.07.03.1.01.23.21.16.03-.01.11-.11.17-.15.19-.13.4-.32.6-.38l.03-.14c.17-.02.46-.27.51-.45h.14c.06-.22.35-.38.53-.56,1.17-1.19,1.98-2.59,2.98-3.92.11-.26.26-.64.27-.92,0-.03-.05-.04-.05-.07,0-.25-.01-.48-.13-.69-.07-.13-.22-.24-.3-.36-.33.03-.65.02-.97.06-.5.06-1.14.24-1.64.3-.36.04-1.07.11-1.39.08-.02,0-.03-.06-.05-.07-.21-.04-.2-.03-.39-.12-.38-.18-.86-.3-1.27-.48-.33-.15-.61-.4-.69-.76-.1-.16-.06-.42-.07-.62,0-.03-.05-.04-.05-.07-.03-1.08.25-2.47.65-3.65.29-.85.54-1.61.93-2.41.34-.69.73-1.33,1.19-2.01.2-.3.37-.56.6-.87.65-.88,1.33-1.78,2.01-2.61,1.39-1.7,3.77-3.73,5.75-4.53.28-.11.45-.12.73-.18.03,0,.06-.07.08-.07.16-.03.48-.05.63-.04.02,0,.03.06.05.07.06.01.15-.02.21-.01.04,0,.07.12.11.13.09.02.1.01.19.06.22.11.71.33.81.54.07.15.02.33.03.48,0,.02.16.21.19.23.01,0,.11.06.12.06.17.06.45.01.6.1.06.04.26.29.3.36.14.23.25.67.34.95.11.35.24.73.24,1.1,0,.08-.06.2-.06.28,0,.03.06.04.05.07-.02.18-.09.52-.15.7-.02.08-.11.29-.16.43-.23.64-.53,1.23-.88,1.85-.33.58-.6,1.15-.92,1.72-.02.04-.12.07-.11.18ZM103.14,82.03c-.04-.19-.14-.35-.28-.47-.07-.07-.14-.05-.18.05s.06.5.13.51l.33-.09ZM102.03,82.1c.06-.22-.11-.22-.3-.19.03.15.13.23.3.19ZM100.21,82.27l-.62.17c-1.09.52-2.32,1.15-3.1,2.12l-.17.15c.1-.04.18-.09.27-.15,1.07-.8,2.26-1.63,3.43-2.07l.02-.11.16-.11ZM94,90.33l-.35.33c-.1.23-.18.41-.28.64,0,.01-.11.12-.14.18-.08.15-.1.18,0,.28.09-.06.04-.17.13-.29.18-.22.37-.53.51-.79.07-.13.09-.23.11-.35ZM100.33,89.97h-.14c-.04.14-.05.21.04.28h.03s.06-.28.06-.28ZM94.17,92.75c-.15,0-.13-.02-.16.11-.06.22-.12.43-.21.64-.01.03-.07.05-.08.07-.07.14.02.18.02.21,0,.11-.1.23.04.31l.14-.18.25-1.16ZM95.09,94.85l-.44-.04-.34.12.26.05.51-.13ZM96.11,94.86c-.1,0-.22.03-.31.02-.03,0-.03-.06-.05-.07-.18,0-.4.04-.59.03l.11.27c.16-.03.34,0,.49-.03.03,0,.06-.07.08-.07.13-.04.27.08.27-.15ZM100.65,96.75l-.15.04.09.24h.14s-.08-.28-.08-.28ZM97.46,102.62c.03-.16.2-.26.29-.4.06-.09.1-.23.13-.29.02-.04.17-.19.18-.22.11-.26-.01-.46.08-.7.01-.03.08-.05.08-.07.05-.14.05-.31.1-.46l-.19.25c-.26.46-.44.89-.64,1.35-.01.03-.07.05-.08.07-.03.08-.03.19-.06.28l.1.17ZM96.55,104.89c.17-.47.61-.88.91-1.34.08-.13.14-.25.15-.39-.07.03-.2.13-.25.19-.3.38-.5.77-.8,1.16l-.25.53.13-.15h.1Z"/>
    <path class="st1" d="M8.04,106.59l.17-.46.12-.21.74-.7c.02.05.13.13.14.17,0,.04-.03.1-.03.14.01.11.01.15,0,.28-.01.72-.15,1.51-.14,2.23,0,.11-.1.23.04.31l.29-.09c.18.14.05.38.04.59,0,.02.08.25.08.27-.02.58-.13,1.19-.1,1.74,0,.05.08.19.12.24h.14c.05-.09.13-.07.15-.09.15-.09.27-.32.44-.3l.03-.14c.27-.1.71-.49.85-.74h.14c.89-.96,1.68-1.96,2.44-3.03.2-.28.3-.49.45-.79.05-.1.48-.48.55-.66.04-.11.18-.74.18-.84,0-.02-.08-.16-.09-.2,0-.03.03-.09.03-.14,0-.04-.11-.09-.11-.13,0-.04.03-.1.03-.14,0-.08-.31-.32-.35-.43-.33.03-.65.02-.97.06-.48.06-1.09.24-1.57.3-.37.05-1.13.11-1.46.08-.02,0-.03-.06-.05-.07-.21-.04-.2-.03-.39-.12-.41-.19-.89-.36-1.32-.55-.12-.05-.29-.12-.37-.19-.05-.04-.16-.17-.19-.23,0-.02-.09-.19-.09-.2,0-.04.03-.1.03-.14,0-.04-.11-.09-.11-.13,0-.11.03-.29.02-.42,0-.11-.05-.31-.05-.41,0-.28.06-.48.1-.77.13-1.07.39-2.31.8-3.38.16-.42.36-.86.55-1.28.76-1.67,1.95-3.29,3.17-4.83,1.04-1.32,2.18-2.68,3.6-3.64l.03-.14c.92-.57,1.84-1.27,2.87-1.69.28-.11.45-.12.73-.18.03,0,.06-.07.08-.07.16-.03.48-.05.63-.04.02,0,.03.06.05.07.06.01.15-.02.21-.01.04,0,.07.12.11.13.09.02.1.01.19.06.22.11.71.33.81.54.07.15.02.33.03.48,0,.02.16.21.19.23.11.07.24.03.33.05.09.02.17.03.26.05.1.02.36.31.42.43.12.2.22.57.3.81.13.38.28.85.28,1.23,0,.08-.06.2-.06.28,0,.03.06.04.05.07-.02.18-.09.52-.15.7,0,.03-.08.05-.08.07-.21.59-.38,1.13-.64,1.7-.22.48-.61,1.03-.88,1.51-.12.21-.24.52-.36.71-.05.08-.15.19-.23.26l-.4.09v-.28c0,.09-.07.26-.17.29-.05.01-.09,0-.14,0s-.27.25-.39.23l-.11-.31c0-.08.17-.48-.02-.38-.15.07-.28.36-.28.5l-.19-.06c-.02.22-.12.4-.2.6l-.2.12.04-.35c-.24.01-.39.2-.51-.04-.19.17-.34.08-.43-.08l.87-4s-.08-.26-.08-.27c0-.01.15-.13.12-.25-.22-.05-.28.09-.41.16-.82.44-1.35.86-2.08,1.37-.31.21-.67.37-.93.64-.19.21-.47.56-.58.8-.06.13-.51.6-.57.73-.28.58-.64,1.21-.94,1.79-.13.51-.46,1.1-.61,1.56-.09.26-.24.94-.26,1.19-.02.23.28.18.48.15.26-.05.68-.16.93-.19.67-.08,1.35-.1,1.82.17.18-.02.38.3.48.32.64.16,1.15.18,1.66.6.33.27,1.21,1.04,1.38,1.41.01.03.01.18.02.21.02.05.09.09.11.13.09.24.02.54.11.76-.28,1.06-.4,2.18-.7,3.23,0,.02-.08.05-.08.07-.14.49-.22.88-.43,1.34-.17.38-.47.96-.71,1.36-.81,1.38-2.64,3.33-4.04,4.22-.36.23-1.33.72-1.68.79-.21.04-.5-.01-.7.04-.27.07-1.38,1.22-1.76,1.49-.02.01-.05,0-.07,0-.15.1-.63.42-.79.46-.08.02-.19,0-.28.02-.03,0-.06.07-.08.07-.11.02-.24,0-.35.02-.03,0-.06.07-.08.07-.22.03-.79.08-.97.06-.03,0-.03-.06-.05-.07-.18-.04-.44-.08-.58-.17-.15-.11-.49-.6-.56-.77-.03-.08-.03-.27-.06-.34-.15-.34-.46-.55-.64-.87-.1-.17-.13-.39-.14-.62,0-.04-.11-.09-.11-.13,0-.11.03-.3.02-.42-.02-.33-.06-.62-.07-.97-.03-.9.14-2.17.54-3.15.13-.31.2-.62.34-.92.18-.4.36-.81.54-1.21.09-.19.12-.4.19-.57.03-.07.22-.22.21-.32.1-.02.23,0,.31-.02.06-.02.18-.22.34-.16v.31s.26.23.26.23l.34-.3c.03.1.13.04.19.06.03,0,.12.22.12.24l-.24,1.09ZM21.67,86.73c-.04-.19-.14-.35-.28-.47-.07-.07-.14-.05-.18.05l.13.51.33-.09ZM20.55,86.79c.06-.22-.11-.22-.3-.19l-.03.14c.13-.02.17.1.33.05ZM18.73,86.97l-.62.17c-.62.31-1.3.63-1.87,1.01-.11.07-.2.23-.32.23l-1.07.96c.2.04.28-.13.43-.23,1-.72,2.17-1.5,3.26-1.92l.02-.11.16-.11ZM14.8,89.41s-.06.07-.02.07.06-.07.02-.07ZM19.1,94.16l.03-.14h-.07s-.03.14-.03.14h.07ZM11.81,96.46c0-.12.08-.21.14-.32.14-.23.3-.48.43-.72.02-.03.07-.05.08-.07.05-.11.04-.27.08-.39l-.48.62-.36.71.1.17ZM18.79,94.94l.06-.28h-.07c0,.09-.03.13-.11.18l.12.1ZM12.46,98.53l.27-1.23-.18.18c-.01.35-.3.67-.31.95l-.04.35.26-.26ZM14.64,99.55c-.1,0-.22.03-.31.02-.27-.03-.63-.02-.87-.09l-.61.1c0,.11.1.17.21.13.03-.01.06-.07.08-.07.18-.04.4,0,.59-.03l.06.2c.16-.03.34,0,.49-.03.03,0,.06-.07.08-.07.13-.04.27.08.27-.15ZM19.06,101.66l.16.06.04-.04-.09-.24h-.07s-.05.21-.05.21ZM15.91,107.32c.2-.12.37-.42.48-.62.08-.14.26-.42.26-.57,0-.19-.03-.3.05-.56,0-.03.08-.05.08-.07.04-.12.05-.26.08-.39-.12,0-.1.16-.12.25-.02.06-.02.12-.04.18h-.14c-.04.35-.39.75-.5,1.04-.08.22-.08.51-.16.74ZM15.09,109.52l.42-.68.45-.51.17-.46c-.33.22-.53.57-.75.91-.06.1-.08.16-.12.21-.02.04-.17.19-.18.22-.02.05-.12.34,0,.31ZM14.91,109.74l.05-.21h-.07s-.05.21-.05.21h.07Z"/>
    <path class="st1" d="M127.56,84.37c.08-.25.09-.43,0-.62.35-.06.2.13.21.3,0,.03.09.18.09.2,0,.08-.06.2-.06.28,0,.18.12.58.11.76,0,.09-.06.22-.07.32l.15-.04.02-.07.15-.04c-.06.12.03.14.03.17,0,.06-.05.15-.05.21,0,.32-.06.5-.11.84-.03.2-.01.63-.04.84-.15.95-.52,2.02-.64,2.95-.13,1.05-.48,2.29-.67,3.44s-.48,2.2-.85,3.31c-.43,1.27-.62,2.69-.94,4.01-.13.56-.44,1.3-.48,1.9,0,.03.09.1,0,.28-.3.67-.43,1.5-.68,2.19-.04.11-.03.26-.08.35-.01.02-.33.3-.38.33-.03.02-.19.06-.22.08-.25.15-.45.24-.7.39-.11.06-.5.38-.55.48-.05.11.02.34-.17.32-.12-.08-.06-.18-.04-.31.03-.19.09-.38.12-.56l-.14-.44-.32.23c-.35.1-.63.45-.98.4l-.14-.17c.08-.14-.06-.26-.06-.34-.01-.25.09-.53.1-.77,0-.03-.09-.06-.03-.17h-.21c-.06.26-.09.51-.16.75,0,.03-.08.05-.08.07-.09.31-.1.51-.1.77,0,.16-.07.2-.13.29-.01.02,0,.06-.02.07-.19.23-.33.06-.24-.16l-.26-.05c.06-.12-.03-.14-.03-.17.01-.26.08-.35,0-.62-.14-.45-.22-1.24-.18-1.72.02-.23.13-.5.16-.74.29-.03.28-.22.36-.4.01-.03.08-.05.08-.07.07-.19.08-.43.14-.63.59-2,1.27-4.06,1.86-6.07.34-1.15.72-2.31,1.02-3.46.09-.34.13-.68.22-1.02-.38.04-.76.03-1.15.07-.23.02-1.21.24-1.35.22-.56-.11-1.56.12-2.19.26-.22.05-.26-.05-.49.2-.22.23-.4.54-.65.8v.28c-.3.33-.49.7-.78,1.09-.46.62-.91,1.24-1.38,1.95-.28.42-.57.95-.84,1.37-1.17,1.77-2.29,3.59-3.43,5.4-.19.3-.37.54-.58.8-.12.15-.56.73-.68.77-.09.03-.26-.02-.34.12-.17.34-.32.5-.72.63l-.27.29h-.14s-.15-.09-.15-.09l.17-.46-.26.26-.02.11-.42.02c-.01-.11.08-.14.11-.18.07-.12.11-.31.16-.43.01-.03.07-.05.08-.07.11-.26-.14-.32,0-.59h-.21c.02.09-.26.36-.32.38-.16.05-.2-.08-.27-.16l.43-1.97c.22-.19.2-.5.29-.71.01-.02.17-.19.18-.22.1-.23.17-.42.28-.64.06-.11.48-.45.54-.59.08-.18.06-.45.14-.63.05-.11.37-.51.4-.58.15-.31.26-.43.43-.72,2.79-4.66,6.33-9.41,10.02-13.66h.14c1.11-1.37,2.45-2.63,3.73-3.93.37-.37.64-.77,1.14-1,.04-.02.1.01.14,0s.21-.15.24-.15c.08-.02.19,0,.28-.02l.33.4c.2,0,.4.3.56.24.19-.16.53-.21.73-.18.02,0,.03.06.05.07.05.02.16.04.19.06.37.22.56.63.7,1.03.02.05.11.1.11.13,0,.14.06.26.06.34,0,.09,0,.2,0,.28.01.32-.13.64-.13.91,0,.02.09.18.09.2,0,.15-.17.39.04.45ZM125.92,88.77c.04-.28.16-.61.19-.88,0-.03-.06-.04-.05-.07.02-.58.2-1.22.26-1.82.02-.18.1-.65.1-.77,0-.02-.15-.19-.15-.27,0-.1.07-.24.08-.35.02-.32-.09-.59-.15-.89-.02-.09,0-.31-.05-.41-.07-.14-.24-.27-.37-.36-.13.08-.17.2-.17.32,0,.03.09.17.09.2.03.52.16.96.24,1.44.1.6.09,1.24.08,1.87,0,.38-.11.8-.12,1.19,0,.03.06.04.05.07-.02.23-.25.63-.02.73ZM122.98,83.94s0-.07.02-.11c.03-.05.19-.18.16-.25l-.37.26-.19.25c.13.03.19-.11.27-.15.04-.02.09,0,.1,0ZM123.21,87.95c.04-.28.16-.6.19-.88.03-.3-.06-.65,0-.97l-.16-.37-2.06,2.37-.22.39.47-.1c.5-.12,1.04-.31,1.54-.44.07-.02.16,0,.24-.01ZM121.84,91.78c0,.17.22.15.35.12.03,0,.06-.07.08-.07.16-.05.33.04.37-.26l-.31-.02-.5.24ZM107.74,103c-.23-.04-.16.24-.22.39-.01.03-.17.19-.18.22-.16.33-.26.62-.45.96-.06.1-.09.18-.1.28.58.02.48-.51.61-.9.02-.05.21-.37.23-.43.06-.17.06-.36.11-.53ZM109.67,103.79s-.06.07-.02.07.06-.07.02-.07Z"/>
    <path class="st1" d="M176.59,79.85s-.07.04-.08.07c-.03.05-.09.18-.12.21-.17.21-.57.3-.62.63l-1.23.28.26-.26c-.04-.13-.3-.11-.43-.08-.03,0-.06.07-.08.07-.46.12-.92.22-1.38.36-.97.29-1.94.64-2.93.86-.12.03-.31.08-.36.09-.27.05-.56,0-.83.05l-.13.11c-.04.27-.15.57-.18.84-.04.31-.04.32-.14.63-.21.7-.32,1.45-.59,2.12s-.44,1.27-.69,1.91c-.32.83-.52,1.71-.82,2.55-.2.56-.28,1.15-.5,1.69-.01.03-.08.05-.08.07-.08.23-.09.5-.16.74.31-.04.63-.01.94-.05.03,0,.06-.07.08-.07.68-.11,1.36-.13,2.05-.26.35-.06.79-.11,1.14-.2.17-.05.23.05.37.05-.05.15.11.2-.07.32-.03.13.44.09.57.07.03,0,.06-.07.08-.07.42-.08.43.13.65.17.2.03.59-.09.76-.04.02,0,.19.22.19.23,0,.08-.06.22-.07.32l.52-.03.23.37c-.17.16-.4.28-.38.51,0,.04.11.09.11.13,0,.08-.06.22-.07.32l-.23.12c-.03.2-.1.39-.19.57-.03.06-.24.15-.21.32l-.71.11-.08.39-.13.11c-.18.02-.37,0-.56.03-.26.04-.66.11-.93.19-.7.21-1.6.17-2.34.34-.86.2-1.79.43-2.66.57-.15.02-.35,0-.49.03-.03,0-.05.06-.08.07-.02.01-.05,0-.07,0-.19.12-.13.25-.19.39-.01.02-.17.19-.18.22-.41.96-.78,1.93-1.3,2.85,0,.2-.11.35-.18.5-.1.23-.27.68-.27.92,0,.02.09.23.12.24.46-.01.93-.07,1.39-.08s1.1.06,1.57.05c.37,0,1.28,0,1.6-.09.11-.03.23-.2.45-.16.02,0,.16.12.18.13.16.03.98-.09,1.01-.06-.02.17-.09.33-.24.46l.34.33-.2.29s.17.15.21.16c.03.01.09-.02.1,0,.01.01-.03.07-.02.11.03.09.16.1.08.27l-.55.66c-.22.25-.3.31-.55.48-.08.05-.38.29-.41.3-.09.03-.44.04-.56.03-.02,0-.03-.06-.05-.07-.14,0-.31.03-.45.03-.08.34.32.09.42.29l-.54.27.45.15c-.21.26-.34.16-.56.21-.04,0-.33.15-.38.16-1.3.28-2.7.32-3.98.3-.34,0-.81-.06-1.15-.07-.74-.04-1.48,0-2.18-.08-.08-.01-.21.03-.28.02-.09-.02-.12-.24-.17-.3l.02-.07s.07-.05.08-.07c.06-.13.29-1.2.29-1.33,0-.02-.09-.18-.09-.2,0-.13.08-.47.19-.57-.08-.17-.32-.06-.5-.08-.03,0-.03-.06-.05-.07-.2-.02-.39.09-.48-.15-.04-.1.01-.27-.06-.34.09-.29.1-.63.2-.91.01-.04.2-.32.21-.36.47-1.3.82-2.6,1.32-3.89.22-.56.54-1.24.73-1.78.05-.14.05-.31.1-.46l.08.41.19-.39c-.17-.25.02-.62.07-.94.13-.02.02.15.02.24,0,.03.06.04.05.07,0,.09-.14.33,0,.31.08-.22.07-.53.16-.74.01-.03.17-.19.18-.22.41-.85.44-1.74.77-2.61.23-.62.57-1.29.83-1.92.33-.83.61-1.65.95-2.48.42-1.03.76-2.11,1.22-3.12.27-.59.51-1.19.8-1.78.14-.29.26-.54.39-.86.01-.02.17-.19.18-.22.09-.21.13-.55.01-.69l.47-.27-.25-.44c.08-.08.19-.13.28-.19.08-.04.24-.11.31-.16.12-.07.13-.18.23-.26-.06-.17-.19-.27-.1-.48.01-.03.06-.04.08-.07.01-.02,0-.05.02-.07.09-.11.31-.25.42-.37.01-.02,0-.06.02-.07.64-.67,1.01-1,1.88-1.25.27-.08.51-.12.8-.18.68-.16,1.4-.26,2.08-.4.52-.11,1.04-.12,1.56-.23s1.56-.31,1.98-.25c.25.03.65-.08.9-.05.01,0,.13.04.19.06.06.01.07.19.21.13-.09.12.07.39.15.41.04.01.11-.02.14,0,.17.07.26.21.22.4.23-.04.41.04.5.21,0,.01-.02.05-.02.07.02.05.11.1.11.13,0,.11-.08.3-.09.42l.23.19.03.48c-.14.13-.3.25-.47.27l.04-.18-.08-.1-.31.02c-.11.3-.1.74-.22,1.02ZM158.14,103.28c.06-.22.08-.45.14-.67.47-1.62,1.07-3.32,1.55-4.95.14-.46.35-1.1.4-1.55,0-.07-.04-.32,0-.45l.04-.35-.15.39c-.14.34-.3.73-.44,1.07-.06.14,0,.29-.19.39-.04.02-.09,0-.1,0,.03.16-.15.39-.17.46-.49,1.53-1.01,3-1.53,4.53-.05.15-.28.47-.14.63l-.2.29.03.17c.14-.06.2.05.23.06.12.02.28-.07.33.05l.19-.08ZM167.93,103.41l-1.01.06s-.05.06-.08.07c-.16.08-.26.16-.41.3-.23.01-.44.14-.68.11-.09.27-.06.46.11.62.23,0,.44,0,.66-.18l.14-.18-.26-.09c.03-.23.17-.18.29-.22.26-.09.54-.2.81-.25l.43-.23Z"/>
    <path class="st1" d="M206.87,75.71s-.03.07-.02.11c.02.05.11.1.11.13,0,.14.05.33-.09.42l.22.26c-.04.08.08.22.08.27,0,.23-.28.5-.52.48l.06-.28-.42.02c0,.08-.05.17-.05.25,0,.28-.01.19-.09.42-.05.15-.05.37-.11.49-.01.03-.42.39-.47.41-.04.02-.09,0-.1,0-.02.02-.09.27-.25.36-.18.11-.33.06-.5.1-.03,0-.06.07-.08.07-.15.03-.31-.04-.43.09l-.14-.13.23-.12c.03-.12-.34-.1-.43-.08-.03,0-.28.15-.31.16-1.15.3-2.29.62-3.43.96-.27.08-.76.23-1.02.27-.28.04-.58.01-.87.05-.21.74-.26,1.56-.49,2.28,0,.03-.08.05-.08.07-.18.49-.25,1.02-.46,1.48-.26.57-.42,1.19-.66,1.77s-.29,1.13-.5,1.69c-.19.48-.27,1-.46,1.48-.14.36-.18.77-.3,1.06-.01.02-.17.19-.18.22-.07.17-.07.42-.13.6.31-.04.63-.01.94-.05.03,0,.06-.07.08-.07.68-.11,1.36-.13,2.05-.26.35-.06.79-.12,1.14-.2.28-.06.34.04.47.22l-.12.25c.17-.02.35,0,.52-.03.03,0,.06-.07.08-.07.5-.09.43.13.65.17.2.03.59-.09.76-.04.06.01.07.19.21.13l-.07.32.08.1.42-.02c.14.18.34.14.21.47-.17-.02-.21.15-.33.26.12.15.08.34.02.55l-.23.12c.13.34-.26.7-.53,1l-.49.03-.13.11-.06.28-.13.11c-.18.02-.37,0-.56.03-.03,0-.06.07-.08.07-1.32.2-2.68.35-3.98.65-.57.13-1.24.3-1.8.38-.17.03-.4,0-.56.03-.04.01-.22.14-.28.19-.05.13-.04.3-.09.42-.01.02-.17.19-.18.22-.4.94-.79,1.85-1.22,2.78-.13.28-.2.56-.32.85-.01.03-.07.05-.08.07-.08.2,0,.32-.04.49l.14.17c.44-.01.89-.07,1.32-.08.49,0,1.15.06,1.64.04.55-.01,1.32.01,1.84-.24h.14s.16.12.18.12c.16.03.98-.09,1.01-.06-.04.14-.02.3-.15.39l.31.47-.24.15.43.53c-.07.11-.2.21-.27.29-.27.34-.6.8-1.02,1.06-.02.01-.05,0-.07,0-.05.03-.22.15-.24.15-.1.03-.38.03-.49.03-.02,0-.03-.07-.05-.07-.16,0-.35.03-.52.03.05.22.21.21.44.18l-.51.45c.17,0,.44-.1.46.11-.12-.04-.21.14-.27.15-.12.04-.27.05-.43.09-1.18.35-2.41.38-3.58.34-.78-.02-1.56.02-2.33,0-.53-.02-1.12-.07-1.62-.11-.1,0-.24.02-.35.02-.19-.04-.04-.67.02-.87.07-.23.28-.65.27-.92,0-.04-.11-.09-.11-.13,0-.16.24-.69.06-.73-.1-.02-.3.03-.42.02-.02,0-.03-.06-.05-.07-.08-.01-.2.03-.28.02-.02,0-.2-.13-.21-.16,0-.06.05-.15.05-.21,0-.06-.07-.3-.06-.34.02-.25.13-.55.24-.78.29-.64.44-1.27.69-1.91s.44-1.35.7-1.98c.24-.58.42-1.18.66-1.77.01-.03.07-.05.08-.07.04-.12.04-.26.08-.39l.12.1c.02.07.15-.06.15-.08.02-.04.06-.24.06-.28,0-.04-.11-.09-.11-.13,0-.13.11-.38.11-.53l.12.1v.38s.11-.91.11-.91l.19.06c.03-.08.02-.17.05-.25.08-.19.28-.5.35-.64.25-.58.21-1.38.51-2.04s.58-1.34.84-1.99c.96-2.37,1.75-4.79,2.84-7.1.21-.45.43-.89.64-1.35.01-.03.07-.05.08-.07.1-.22-.07-.4-.03-.48.19-.16.44-.21.45-.48-.19.04-.15-.13-.22-.23.07-.05.14-.14.21-.19.03-.02.19-.06.22-.08.04-.03.29-.24.3-.26.1-.2-.05-.32-.1-.48.09-.15.23-.24.35-.37.31-.32.64-.75,1-.99.45-.3.57-.4,1.08-.55.14-.04.39-.14.52-.17.5-.11.99-.12,1.49-.22,1.17-.24,2.39-.45,3.57-.62.47-.07,1.29-.14,1.74-.1.02,0,.12.12.26.05.03.06.11.11.14.17.04.08.04.34.16.37.06.01.15-.03.21-.01.11.03.2.39.26.4s.15-.03.21-.01c.03,0,.07.11.11.13.03.02.09-.02.1,0ZM189.63,93.84c-.06.19-.06.41-.13.6-.01.04-.2.32-.21.36-.05.15-.05.37-.11.49-.02.05-.2.16-.25.22-.14.19-.27.84-.38,1.13-.35.91-.66,1.85-1.01,2.76-.16.42-.25.85-.41,1.27-.05.14-.24.26-.02.42-.14.1-.22.21-.21.36,0,.12.17.08.22.09.03,0,.03.06.05.07.12.02.29-.03.42-.02l.13-.11c.09-.35.13-.71.23-1.05.15-.5.4-1.18.57-1.7.36-1.05.63-2.14.96-3.18.07-.21.28-.84.28-.99,0-.02-.09-.18-.09-.2,0-.17.2-.45-.03-.52ZM191.68,96.77l.03-.14h-.07s-.03.14-.03.14h.07ZM197.41,101.71l-1.01.06s-.26.25-.34.3c-.13.08-.25.06-.36.09-.03,0-.06.07-.08.07-.12.03-.26,0-.38.02l-.04.49c.14-.06.16.11.21.13.08.02.25-.03.35-.02.09-.11.29-.06.35-.19.09-.19-.05-.28-.22-.23l.12-.21c.08-.01.17,0,.24-.01.29-.07.63-.28.96-.33l.2-.15Z"/>
    <path class="st1" d="M192.29,75.51l-.43.09c0,.17.13.11.21.13.04.01.09.13.14.17l-.17.15-.07.32c.11-.04.15.06.16.06.02,0,.06-.07.08-.07.12-.03.3-.08.36-.09.15-.03.8-.08.9-.05.03,0,.16.16.12.24-.08.07-.21.3-.31.33-.11.03-.29,0-.42.02-.12.02-.46.15-.59.17-.15.03-.46-.03-.54.14-.04.09-.06.29.04.31.13.03.2-.08.22-.08.3-.06.57-.11.86-.19.12-.03.22-.06.36-.09.03,0,.06-.07.08-.07.08-.02.27-.03.35-.02.02,0,.03.06.05.07.04.01.1-.02.14,0,.09.02.12.24.17.3-.01.09-.02.16-.12.21-.11.07-.23.11-.32.23-.12.16-.1.3-.16.43-.03.06-.31.24-.34.3-.05.11-.04.3-.09.42-.01.03-.12.07-.11.18-.1-.03-.26.13-.34.16-.09.03-.26-.02-.34.12-.02.05,0,.1-.03.14-.03.05-.12.07-.11.18-.12-.04-.21.07-.26.08-.42.14-.89.25-1.31.35-.91.23-1.82.35-2.73.57-.03,0-.06.07-.08.07-.24.05-.46-.04-.7.21-.04.14-.05.29-.09.42-.17.51-.26,1.01-.4,1.55-.22.84-.64,1.75-.63,2.6,0,.13-.26.69-.32.85-.55,1.43-.99,2.86-1.48,4.32-1.31,3.86-2.8,7.62-4.25,11.41l-.36.54-.18-.13-.45.51-.47.1c.03-.08.02-.17.05-.25.1-.23.48-1,.47-1.21,0-.04-.11-.09-.11-.13-.02-.28.05-.66.14-.98.11-.36.24-.55.27-.92s.21-.93.29-1.33c.02-.09.11-.27-.02-.24-.04.12-.04.28-.08.39-.02.05-.16.17-.2.29-.22.62-.44,1.06-.7,1.64-.21.47-.37.96-.58,1.42-.16.35-.33.59-.48.93s-.33.75-.44,1.07c-.04.12-.05.26-.08.39-.25.07-.06-.18-.07-.31,0-.04-.11-.09-.11-.13-.02-.35.05-.77.03-1.11,0-.04-.1-.11-.02-.24h-.21s-.42,1.01-.42,1.01l-.19.08-.18-.13-.15.22c-.18-.02-.34.05-.5.1l.06-.28-.19-.09c.04-.14.04-.29.09-.42,0-.03.07-.05.08-.07.11-.25-.06-.27-.06-.34-.02-.23.02-.5.1-.77.49-1.6,1.21-3.19,1.85-4.75s1.33-3.13,1.98-4.69c.33-.81.62-1.59.93-2.41.57-1.47,1.06-3.01,1.65-4.47.19-.46.35-.84.55-1.28.31-.67.6-1.35.91-2,.04-.09,0-.21.13-.29.02-.12-.32-.1-.43-.08-.32.06-.73.26-1.07.2-.02,0-.16-.12-.18-.13-.14-.02-.34-.03-.47-.04-.09,0-.21.02-.31.02.07-.19-.19-.22-.12-.41-.1.02-.21,0-.31.02-.12.03-.28.06-.43.09-.03,0-.13.12-.29.09-.27-.16-.47-.36-.66-.62l1.09-.58c.03-.19-.52-.16-.49-.28l.38-.33c.21-.05.42-.26.64-.24l-.27-.19c-.34.04-.16-.22-.14-.44,0-.03-.06-.04-.05-.07,0-.06.04-.22.06-.28.01-.03.07-.04.08-.07.03-.05.09-.18.12-.21.22-.27.6-.5.74-.88l.37-.26c.1.04.2-.08.22-.08.21-.05.47,0,.7-.04.62-.1,1.46-.31,2.09-.47.6-.15,1.2-.23,1.8-.38.72-.18,1.45-.36,2.18-.54.36-.09.72-.11,1.07-.2.3-.07.76-.21,1.02-.27.54-.11,1.19-.01,1.74-.1l.17.3-.11.18Z"/>
    <path class="st1" d="M35.27,85.11c.12-.05.13.06.16.06.22.03.54-.06.76-.04.09,0,.19.06.14.17-.07.14-.26.08-.35.19-.35.1-.75.06-1.09.27-.09.06-.7.62-.66.66.24.02.37-.03.57-.24.49-.04.98-.33,1.47-.43.1-.02.21,0,.31-.02-.03.26-.03.16-.15.22-.03.01-.06.06-.08.07-.29.12-.61.1-.92.12l-.35.19.33.22c.18-.03.39,0,.56-.03.03,0,.06-.07.08-.07.08-.02.14.03.22-.08.09.04.06.25.15.27.04,0,.1-.02.14,0,.14.03.05.44-.11.49-.1.03-.23.06-.33.09-.07.23-.37.54-.61.59.05.12-.34.48-.42.51-.1.03-.26.06-.36.09-.18.05-.39.15-.59.17l-.28.19c-.18.72-.28,1.46-.47,2.18-.31,1.15-.79,2.39-1.18,3.54-.44,1.29-.76,2.62-1.25,3.89-.54,1.39-1.15,2.74-1.72,4.12-.36.89-.63,1.8-.99,2.69-.51,1.24-1.07,2.48-1.62,3.7-.24.53-.45,1.03-.68,1.57-.01.02-.17.19-.18.22-.03.08-.03.19-.06.28l.08.1c.09,0,.2-.03.28-.02.03,0,.03.06.05.07.33.06.68.07,1,.15.04,0,.23.23.29.26.03.02.09-.02.1,0,0,.01-.03.2.09.24l-.15.39.26.05.12.72c-.33.18-.23.37-.33.57-.01.02-.36.33-.38.33-.26.09-.44.21-.7.39l-.94.05v.31s-.13.11-.13.11c-.33.03-.65.02-.97.06-.6.07-1.27.31-1.87.39-1.59.2-2.89-.01-4.11-.53l.02-.11-.12-.1.37.05s.08.12.11.13c.04.01.26.03.26-.08-.17.03-.24-.12-.34-.19-.32-.22-.74-.35-1.05-.56-.19-.13-.11-.31-.05-.55.2-.05.1.04.14.13s.13.06.23.06c0-.11.09-.29.08-.39,0-.02-.12-.15-.15-.27-.02-.08-.08-.12,0-.28.02-.04.13-.1.17-.15.03-.03,0-.09.02-.11.01-.01.06.01.1,0,.05-.02.19-.13.24-.15.75-.33,1.52-.61,2.27-.96.04-.02.09,0,.14,0,.02,0,.29-.24.3-.26.04-.08.03-.2.06-.28.01-.02.17-.19.18-.22.09-.2.19-.37.25-.5.29-.69.65-1.28.97-1.93.53-1.1.99-2.12,1.45-3.21.31-.73.67-1.39.94-2.14.17-.46.3-.79.61-1.21.35-.5.34-.82.5-1.35,0-.03.08-.05.08-.07.23-.75.34-1.25.7-1.98.53-1.05.92-2.16,1.32-3.27.44-1.21.62-2.54,1.08-3.74.14-.37.36-.85.47-1.21.06-.19.07-.4.13-.6-.12,0-.27.03-.38.02-.3-.02-.64-.12-.93-.15-.1-.01-.25.04-.35.02-.02,0-.03-.05-.05-.07-.02,0-.06.01-.07,0-.13-.08-.11-.28-.23-.37l-.16-.55c.21-.2.44-.2.68-.28l-.26-.37.03-.14c.08-.11.19-.2.27-.29.21-.24.38-.24.49-.38.03-.03.09-.19.12-.21.07-.08,1.21-.99,1.28-1.01.27-.09.53-.23.83-.33.04-.01.13-.14.17-.15.06-.02.15,0,.21-.01.03-.01.21-.15.24-.15.12-.03.28,0,.42-.02.03,0,.06-.07.08-.07.37-.05.96-.08,1.32-.08.02,0,.03.07.05.07.39.01.87-.04,1.24,0,.02,0,.12.12.26.05.12.12.2.28.14.48ZM31.43,88.87c-.17,0-.5.02-.59.21-.04.09-.04.24-.08.35-.12.32-.3.7-.44,1.07-.32.83-.74,1.78-.98,2.62-.08.27-.1.54-.17.81l.29-.4c.44-.93.92-1.79,1.34-2.71.24-.53.31-1.14.5-1.69,0-.02.15-.13.12-.25Z"/>
    <path class="st1" d="M179.11,74.25c-.1-.03-.26.13-.34.16-.26.08-.53.11-.8.18-.02,0-.21.15-.24.15-.08.02-.5.05-.56.03-.04,0-.11-.16-.16-.2h-.07c-.13.08-.51.5-.59.52-.1.03-.26,0-.38.02l.03-.14h-.14s.03-.13.03-.13c-.19-.04-.35-.26-.5-.39-.07-.06-.23-.23-.29-.26-.03-.02-.09.02-.1,0,0-.01.03-.07.02-.11-.03-.15-.13-.19-.05-.41.03-.09.08-.2.08-.35,0-.05-.07-.21-.08-.27-.05-.23-.08-.49-.24-.65l-.24.15c-.14.04-.22-.06-.27-.16-.1-.17-.14-.43-.21-.61-.04-.12-.15-.23-.13-.37-.11.06-.23.09-.32.19-.47.58-1.22,1.07-1.66,1.66h-.14c-.02.15-.2.31-.34.31l-.03.14c-.35.09-.48.47-.81.39-.12-.03-.65.45-.8.53l-.42.02-.13-.34c-.2.17-.39.36-.59.52-.09.07-.15.17-.27.15-.04-.06.45-.67.58-.76l.09-.42c0-.11-.25-.11-.36-.08-.03,0-.21.15-.24.15-.06.02-.3.03-.35.02-.24-.06-.02-.64.02-.87.01-.03.07-.05.08-.07.1-.23.2-.43.35-.64.45-.63,1.16-1.17,1.62-1.79h.14c.48-.57,1.25-1.25,1.86-1.64l.03-.14c.35-.11.7-.53,1.02-.75.02-.01.05,0,.07,0,.05-.04.14-.14.17-.15.06-.02.36-.03.42-.02.02,0,.14.11.18.13.03.01.1-.02.14,0,.04,0,.07.12.11.13.08.02.25-.03.35-.02l.34-.3.42.11c.06-.21-.14-.24-.24-.33-.09-.02-.22.12-.22.22l-.17-.16c.09-.27.44-.32.64-.28.02,0,.03.05.05.07.02,0,.06-.01.07,0,.17.11.16.41.48.32.03,0,.21-.15.24-.15.08-.02.42-.04.49-.03.02,0,.03.06.05.07.17.06.18.1.3.19.56.43,1.03,1.19,1.44,1.76.38.52.79,1,1.03,1.61.08.21.03.25.05.41,0,.05.08.24.08.27-.01.32-.27.73-.07.98l-.2.29c.12.15.08.34.02.55l-.34.3v.31ZM178.25,69.79s-.06.07-.02.07.06-.07.02-.07ZM178.36,69.93s-.06.07-.02.07.06-.07.02-.07Z"/>
    <path class="st1" d="M110.46,82.79s-.03.07-.02.11c0,.03.05.04.05.07.02.11-.08.29.19.23l.31-.16c.12.05.01.31.13.34.15.04.27-.13.39-.23h.07c.09.05.53.46.53.56,0,.12-.1.35-.11.49,0,.11.08.37.09.55,0,.06.16.1.09.24l.15-.04c.03-.14.05-.28.09-.42.03-.11.1-.2.16-.11-.06.12.07.24.07.31.01.2-.03.54-.1.77-.11.35-.25.77-.38,1.13-.23.65-.45,1.33-.7,1.98-.31.8-.58,1.63-.93,2.41-.24.52-.39,1.1-.63,1.63-.15.32-.18.71-.42,1-.07.08-.31.24-.34.3-.02.05,0,.11-.03.14-.04.07-.25.31-.31.33-.05.02-.09,0-.14,0-.03.01-.06.07-.08.07-.23.05-.52,0-.76.04-.03,0-.06.07-.08.07-.15.03-.46-.03-.54.14-.02.05,0,.1-.03.14-.03.05-.12.07-.11.18-.26.06-.4-.08-.65-.03-.17-.13-.06-.33-.06-.52,0-.1-.04-.31-.05-.41,0-.04.03-.1.03-.14-.01-.16-.27-.06-.36-.08-.08-.02-.06-.16-.07-.17-.04-.08-.15-.1-.09-.24l-.18.18-.12.25h-.21c.06-.19.08-.37-.03-.51l.03-.14c.16-.14.13-.38.19-.57.23-.7.58-1.44.87-2.13.51-1.21.85-2.47,1.35-3.69.32-.77.6-1.76,1.02-2.49.1-.18.3-.42.4-.58.1-.18.18-.39.26-.57.02-.03.13-.1.17-.15.01-.01,0-.05.02-.07.17-.21.39-.16.56-.21.03,0,.09-.11.15-.08.02.09.15.05.16.06Z"/>
    <path class="st1" d="M204.91,100.03l-.11.18c.02.1.23.1.23.19.01.2.04.15.08.27.2.65-.11,1.22-.22,1.96,0,.02.06.04.05.07-.06.48-.27.8-.47,1.21s-.34.76-.52,1.14c-.04.08-.26.27-.27.29-.02.05-.02.12-.04.18l-.19-.06-.03.14h-.14c-.44.67-1.16,1.22-1.64,1.87-.39.34-.61.69-1.09.9-.14.06-.13.03-.19-.06.12-.12.24-.24.35-.37.39-.43.88-.81,1.23-1.25l.1-.32c-.09.09-.19.08-.28.19-.24.29-1.46,1.65-1.71,1.73-.46.15-.35.18-.62.49-.05.05-.44.4-.47.41-.05.02-.09,0-.14,0-.03.01-.06.07-.08.07-.14.03-.31,0-.45.03,0-.29.33-.5.38-.78-.12-.05-.22.07-.26.08-.06.02-.14,0-.21.01-.03,0-.09.11-.22.08-.01,0-.14-.15-.14-.17-.01-.24.26-.32.25-.5l-.29-.26c.03-.22.13-.48.15-.7,0-.03-.06-.04-.05-.07.01-.29.12-.28.23-.43.07-.1.14-.26.21-.36.15-.2.4-.46.55-.66.41-.54.81-1.08,1.17-1.59.28-.4.44-.61.63-1.01.02-.04.15-.11.17-.15.22-.45.43-1.02.65-1.43.02-.04.12-.07.11-.18h-.17s-.12-.23-.12-.23c.07-.11-.02-.19-.02-.21.01-.25.1-.51.38-.47l.05-.21c.17-.04.26.1.44.04.06-.02.25-.24.34-.3.14-.08.25-.06.36-.09.03,0,.06-.07.08-.07.38-.09.34.16.44.18.25.06.86-.12,1.11-.06.08.02.25.31.39.25Z"/>
    <path class="st1" d="M143.31,90.89s-.07-.01-.1,0c-.35.2-.87.79-1.3.77v.04s-.24.12-.24.12l.85-.6h.1s.03-.15.03-.15h.14s0-.15,0-.15c-.14.16-.24.17-.41.16l-.03.14-.26-.05.65-.32.23.06-.02-.21c.23,0,.4-.38.63-.38l.03-.14h.14s.25-.37.25-.37l.15-.22c.12-.03.04.19.02.24-.04.08-.26.27-.27.29-.16.34-.37.41-.55.66-.03.03,0,.09-.02.11Z"/>
    <path class="st1" d="M166.62,97.11c.02-.14.23-.07.33-.09.03,0,.06-.07.08-.07.45-.07.98-.1,1.42-.22.02,0,.21-.15.24-.15.15-.04.52-.04.7-.04.13,0,.23-.05.29.09-.12.16-.22.09-.34.12-.34.09-.51.07-.85.12-.15.02-.58.16-.73.18-.38.05-.77.02-1.15.07Z"/>
    <path class="st1" d="M199.13,95.02c-.1.02-.21,0-.31.02-.48.1-1.11.24-1.57.3-.38.05-.77.02-1.15.07l.4-.09s.06-.07.08-.07c.55-.09,1.04-.14,1.57-.3.03,0,.06-.07.08-.07.11-.03.75-.07.83-.05.05.01.1.13.06.2Z"/>
    <path class="st1" d="M158.19,90.03l-.03.14-.28.02-.02.11-.29.05.2-.15c.12-.06.3-.11.41-.16Z"/>
    <path class="st1" d="M158.19,90.03s0-.06.05-.07c.09-.03.11.1.23.06l-.02-.21s.07.01.1,0c.18-.1.74-.64.83-.81h.14s.18-.23.18-.23l-.22.39c-.05.05-.13.1-.17.15-.13.16-.25.37-.38.51-.4.42-.99.79-1.48.95-.07.02-.18.22-.34.16.07-.17.18-.12.27-.15.14-.05.57-.47.75-.46l.03-.14h.14s-.11-.14-.11-.14Z"/>
    <path class="st1" d="M200.82,102.42c-.1.1-.14.02-.12-.1.02-.1.04-.26.08-.35,0-.02.13-.08.12-.21,0-.03-.06-.04-.05-.07,0-.13.08-.31.1-.46.08,0,.14-.02.2.02.07.05.03.25.06.34-.13.07-.08.19-.13.29-.02.03-.17.19-.18.22-.04.09-.03.22-.07.32Z"/>
    <path class="st1" d="M91.31,102.14l-.14.49c-.12-.09-.06-.23-.02-.38.03-.11.1-.2.16-.11Z"/>
    <polygon class="st1" points="68.14 112.15 67.73 112.17 67.73 112.14 67.86 112.03 68.07 112.01 68.14 112.15"/>
    <path class="st1" d="M9.7,107.47c-.12.02-.05-.09-.03-.17.02-.13.06-.26.08-.39.12-.02.05.09.03.17-.02.13-.06.26-.08.39Z"/>
    <polygon class="st1" points="166.32 97.19 166.31 97.26 165.82 97.29 165.84 97.22 166.32 97.19"/>
    <polygon class="st1" points="195.8 95.49 195.78 95.56 195.3 95.59 195.31 95.52 195.8 95.49"/>
    <path class="st1" d="M173.85,67.13l-.03.14-.28.02c.07-.14.18-.17.31-.16Z"/>
    <polygon class="st1" points="179.93 79.34 179.91 79.41 179.57 79.43 179.58 79.36 179.93 79.34"/>
    <polygon class="st1" points="157.49 90.42 157.47 90.49 157.2 90.5 157.21 90.43 157.49 90.42"/>
    <polygon class="st1" points="141.99 91.31 141.97 91.38 141.69 91.4 141.71 91.33 141.99 91.31"/>
    <polygon class="st1" points="159.79 88.69 159.72 88.69 159.76 88.48 159.83 88.48 159.79 88.69"/>
    <polygon class="st1" points="144.38 89.44 144.31 89.44 144.34 89.3 144.41 89.3 144.38 89.44"/>
  </g>
</svg>